<?xml version="1.0" encoding="UTF-8" standalone="no"?>
<svg xmlns="http://www.w3.org/2000/svg" height="90" width="90" version="1.1" viewBox="0 0 90 90">
 <path style="paint-order:normal;fill:#808080" d="m43.81 6.512-0.42 0.217c-3.08 1.58-5.79 12.31-6.84 27.14-0.26 3.64-0.3003 17.35-0.07031 20.89 0.554 8.19 1.356 13.91 2.717 19.36 1.179 4.72 2.698 7.855 4.193 8.66l0.4336 0.2168-0.4766-0.04492 0.08984 0.04492-0.5859-0.05469c-0.322-0.02982-1.163-0.08559-1.871-0.125-6.67-0.371-13.55-2.913-19.12-7.066-5.298-3.95-9.359-8.736-12.07-14.22-1.943-3.92-3.027-7.58-3.588-12.11-0.2694-2.173-0.2694-7.18 0-9.352 0.83-6.7 3.12-12.48 7.02-17.72 3.083-4.146 7.219-7.945 11.48-10.54 5.21-3.175 11.15-4.946 17.61-5.248l1.109-0.05078-0.03906 0.01953zm-7.51 5.264c-2.55 0.7654-4.982 1.773-7.268 3.037-4.261 2.359-8.397 5.81-11.48 9.578-3.9 4.767-6.19 10.01-7.02 16.1-0.2694 1.974-0.2694 6.525 0 8.5 0.5611 4.113 1.647 7.448 3.584 11.01 2.711 4.985 6.772 9.332 12.07 12.92 3.061 2.075 6.52 3.702 10.12 4.807-0.3968-1.091-0.7759-2.32-1.123-3.705-1.361-5.429-2.163-11.13-2.717-19.3-0.23-3.528-0.1897-17.19 0.07031-20.82 0.6774-9.536 2.049-17.35 3.762-22.13z"/>
 <path style="opacity:.4;stroke-width:.9886;fill:#808080" d="m48.16 6.393c19.71 1.697 35.18 18.09 35.18 38.05-0.01 20.21-15.9 36.91-36.27 38.11-0.8519-0.6411-1.702-2.003-2.486-3.982 0.06445 0.0021 0.1289 0.0041 0.1934 0.0059 19.12 0 34.62-15.34 34.62-34.28 0-18.86-15.39-34.18-34.43-34.28 0.76-1.707 1.57-2.849 2.42-3.281l0.4238-0.2168s-0.761-0.2147 0.3538-0.1187z"/>
</svg>
