<?xml version="1.0" encoding="UTF-8" standalone="no"?>
<svg xmlns="http://www.w3.org/2000/svg" height="90" width="90" version="1.1" viewBox="0 0 90 90">
 <rect style="fill:none" height="90" width="90" y="0" x="0"/>
 <path style="fill:#808080" d="m45.99 7.039c0.4389 0 0.8714 0.02688 1.301 0.06836 0.1281 0.01231 0.2555 0.03089 0.3828 0.04688 0.3302 0.0417 0.658 0.09559 0.9824 0.1621 0.101 0.02059 0.2023 0.03952 0.3027 0.0625 0.8691 0.1999 1.719 0.4856 2.547 0.8652 0.05751 0.02628 0.1146 0.05488 0.1719 0.08203 0.3778 0.1795 0.7499 0.3766 1.119 0.5938 0.0398 0.02334 0.07944 0.04654 0.1191 0.07031 0.8439 0.5069 1.668 1.11 2.467 1.814 0.4064 0.3581 0.8063 0.7414 1.201 1.15 0.000318 0.00033 0.0016-0.000329 0.002 0 1.596 1.653 3.098 3.715 4.504 6.205l-0.0098 0.0098c4.186 7.42 6.277 16.37 6.277 26.85 0 10.44-2.091 19.38-6.277 26.82-1.407 2.502-2.914 4.572-4.516 6.232-0.3944 0.4089-0.7951 0.7923-1.201 1.15-0.7971 0.703-1.617 1.306-2.459 1.812-0.04024 0.02415-0.08075 0.04662-0.1211 0.07031-0.3775 0.2223-0.76 0.4244-1.146 0.6074-0.04574 0.02158-0.09085 0.04538-0.1367 0.06641-0.8266 0.3804-1.673 0.6662-2.541 0.8672-0.107 0.02469-0.2146 0.0464-0.3223 0.06836-0.3384 0.06934-0.6809 0.1237-1.025 0.166-0.1004 0.01225-0.1999 0.02715-0.3008 0.03711-0.4396 0.04368-0.8825 0.07227-1.332 0.07227 0.7495 0 1.489-0.02425 2.223-0.0625 0.1691-0.0089 0.3357-0.0242 0.5039-0.03516 0.5742-0.037 1.144-0.08388 1.709-0.1445 0.1803-0.01951 0.3598-0.04058 0.5391-0.0625 0.5614-0.06818 1.118-0.1504 1.67-0.2422 0.1548-0.02587 0.3108-0.04846 0.4648-0.07617 0.6896-0.1236 1.372-0.2629 2.047-0.4238 6.614-1.578 12.5-4.943 17.66-10.1 7.433-7.43 11.15-16.37 11.15-26.82 0-10.48-3.716-19.43-11.14-26.85-5.14-5.17-11.03-8.531-17.64-10.11-0.69-0.16-1.39-0.301-2.09-0.426-0.12-0.021-0.24-0.04-0.36-0.06-0.57-0.095-1.14-0.178-1.71-0.248-0.2-0.025-0.41-0.049-0.61-0.071-0.54-0.057-1.09-0.102-1.65-0.138-0.1754-0.01147-0.3491-0.0259-0.5254-0.03516-0.7339-0.03817-1.473-0.0625-2.223-0.0625zm17.46 8.5c1.864 1.233 3.653 2.64 5.357 4.24 7.425 6.973 11.14 15.39 11.14 25.24 0 9.823-3.717 18.23-11.15 25.21-1.708 1.605-3.499 3.016-5.365 4.252 0.5614-0.8272 1.113-1.694 1.646-2.643 4.186-7.439 6.277-16.38 6.277-26.82 0-10.48-2.091-19.43-6.277-26.85l0.0098-0.0098c-0.5311-0.9404-1.081-1.8-1.639-2.621z"/>
 <path style="opacity:.4;fill:#808080" d="m42.02 6.924c-20.08 1.539-35.59 18.13-35.61 38.08 0.014 19.83 15.33 36.35 35.27 38.06 2.804-0.3945 5.754-2.036 7.607-3.633 0.2289-0.2016 0.4508-0.4307 0.6758-0.6484-1.64 0.24-3.3 0.37-4.96 0.38-19.13 0-34.65-15.36-34.65-34.31s15.51-34.32 34.65-34.32c1.569 0.01325 3.135 0.132 4.688 0.3555-2.27-1.935-5.18-3.498-7.67-3.966z"/>
</svg>
