<?xml version="1.0" encoding="UTF-8" standalone="no"?>
<svg
   xmlns:dc="http://purl.org/dc/elements/1.1/"
   xmlns:cc="http://creativecommons.org/ns#"
   xmlns:rdf="http://www.w3.org/1999/02/22-rdf-syntax-ns#"
   xmlns:svg="http://www.w3.org/2000/svg"
   xmlns="http://www.w3.org/2000/svg"
   xmlns:sodipodi="http://sodipodi.sourceforge.net/DTD/sodipodi-0.dtd"
   xmlns:inkscape="http://www.inkscape.org/namespaces/inkscape"
   height="90"
   width="90"
   version="1.1"
   viewBox="0 0 90 90"
   id="svg7"
   sodipodi:docname="moon-phase-5-full-moon.svg"
   inkscape:version="0.92.4 (unknown)">
  <metadata
     id="metadata13">
    <rdf:RDF>
      <cc:Work
         rdf:about="">
        <dc:format>image/svg+xml</dc:format>
        <dc:type
           rdf:resource="http://purl.org/dc/dcmitype/StillImage" />
        <dc:title></dc:title>
      </cc:Work>
    </rdf:RDF>
  </metadata>
  <defs
     id="defs11" />
  <sodipodi:namedview
     pagecolor="#ffffff"
     bordercolor="#666666"
     borderopacity="1"
     objecttolerance="10"
     gridtolerance="10"
     guidetolerance="10"
     inkscape:pageopacity="0"
     inkscape:pageshadow="2"
     inkscape:window-width="1859"
     inkscape:window-height="1056"
     id="namedview9"
     showgrid="true"
     showguides="false"
     inkscape:zoom="6.9689302"
     inkscape:cx="42.788143"
     inkscape:cy="38.049876"
     inkscape:window-x="61"
     inkscape:window-y="24"
     inkscape:window-maximized="1"
     inkscape:current-layer="svg7">
    <inkscape:grid
       type="xygrid"
       id="grid4752" />
  </sodipodi:namedview>
  <rect
     style="fill:none"
     height="90"
     width="90"
     y="0"
     x="0"
     id="rect2" />
  <path
     style="fill:#808080"
     d="M 45 6.3691406 A 39 38.63 0 0 0 6 45 A 39 38.63 0 0 0 45 83.630859 A 39 38.63 0 0 0 84 45 A 39 38.63 0 0 0 45 6.3691406 z M 45 10.164062 A 35.019741 34.686499 0 0 1 80.019531 44.851562 A 35.019741 34.686499 0 0 1 45 79.527344 A 35.019741 34.686499 0 0 1 9.9804688 44.851562 A 35.019741 34.686499 0 0 1 45 10.164062 z "
     id="path4756" />
</svg>
