<?xml version="1.0" encoding="UTF-8" standalone="no"?>
<svg xmlns="http://www.w3.org/2000/svg" height="256" viewBox="0 0 256 256" width="256" version="1.1">
 <g transform="translate(147.9 1.495)">
  <g transform="matrix(0 -1 -1 0 373.5 516.5)">
   <g transform="matrix(-.9996 0 0 1 575.9 -611)">
    <g transform="matrix(-2.667 0 0 2.667 1226 -44.6)">
     <rect style="color:#000000;fill:none" transform="scale(-1,1)" height="96" width="96.04" y="345.4" x="-438"/>
    </g>
   </g>
   <path style="color-rendering:auto;color:#000000;shape-rendering:auto;stroke:#808080;text-decoration-line:none;stroke-width:2.908;fill:none;text-indent:0;image-rendering:auto;text-transform:none" d="m395.3 372.6c0 19.83-12.22 36.68-29.69 44.73l-1.17 0.5378-0.0948 1.284c-1.333 18.3-17.16 32.79-36.42 32.79-20.13 0-36.65-15.76-36.65-35.23v-85.22c0-14.6 12.4-26.41 27.44-26.41 11.4 0 20.96 6.844 25.09 16.55l0.5378 1.265 1.371 0.0605c27.49 1.246 49.59 22.85 49.59 49.65z"/>
   <path style="color-rendering:auto;text-decoration-color:#000000;color:#000000;font-variant-numeric:normal;text-orientation:mixed;shape-rendering:auto;solid-color:#000000;text-decoration-line:none;fill:#808080;font-variant-position:normal;mix-blend-mode:normal;font-feature-settings:normal;shape-padding:0;font-variant-alternates:normal;text-indent:0;dominant-baseline:auto;font-variant-caps:normal;image-rendering:auto;white-space:normal;text-decoration-style:solid;font-variant-ligatures:normal;isolation:auto;text-transform:none" d="m159.5 30.86c-0.8582-0.01624-1.715-0.01342-2.57 0.0078-18.3 0.4546-35.65 9.471-47.31 24.25-5.716-2.246-11.74-3.582-17.84-3.674-8.741-0.1312-17.57 2.056-25.56 6.82-13.4 7.988-21.39 21.49-23.3 36.14-0.5196 1.305-1.003 2.635-1.426 3.998l-0.06836 0.2207-0.2227 0.04687c-18.4 3.82-30.95 21.82-28.38 41.32 2.59 19.6 19.66 33.9 38.67 32.5 1.194 0.4772 0.1055-3.455 0.1055-3.455-17.27 1.487-32.95-11.52-35.33-29.57-2.343-17.74 9.057-34 25.66-37.44h0.002l2.234-0.4648 0.6699-2.178v-0.002c0.4107-1.325 0.8829-2.628 1.4-3.916l0.08203-0.209 0.0293-0.2227c1.734-13.78 9.168-26.38 21.68-33.84 7.427-4.428 15.6-6.45 23.72-6.328 6.073 0.0912 12.11 1.401 17.79 3.797l1.244 0.5234 0.8164-1.074c11.04-14.55 27.84-23.39 45.43-23.82 6.435-0.1599 12.98 0.7994 19.4 3.014 21.73 7.49 35.58 27.24 37.81 49.49l0.2539 2.549 2.355 1.014h0.002c19.3 8.268 29.12 30.81 21.9 51.75-6.192 17.96-22.97 29.26-40.44 28.71 0.0327 0.4627 0.0746 0.9228 0.0957 1.389l0.0606 1.371 1.266 0.5371c0.1353 0.0575 0.2643 0.126 0.3984 0.1856 18.27-0.2711 35.46-12.35 41.91-31.06 7.784-22.58-2.808-47.07-23.82-56.07l-0.002-0.002-0.4707-0.2012-0.0508-0.5117v-0.002c-2.352-23.47-17.06-44.47-40.14-52.42-5.967-2.057-12.04-3.095-18.05-3.209z" transform="matrix(0 -1 -1 0 518 521.4)"/>
  </g>
 </g>
</svg>
