<?xml version="1.0" encoding="UTF-8" standalone="no"?>
<svg xmlns="http://www.w3.org/2000/svg" height="256" viewBox="0 0 256 256" width="256" version="1.1">
 <g transform="translate(147.9 1.495)">
  <g transform="matrix(0 -1 -1 0 373.5 516.5)">
   <g transform="matrix(-.9996 0 0 1 575.9 -611)">
    <g transform="matrix(-2.667 0 0 2.667 1226 -44.6)">
     <rect style="color:#000000;fill:none" transform="scale(-1,1)" height="96" width="96.04" y="345.4" x="-438"/>
     <path style="color-rendering:auto;color:#000000;shape-rendering:auto;stroke:#808080;text-decoration-line:none;stroke-width:1.5;fill:none;text-indent:0;image-rendering:auto;text-transform:none" d="m51.54 16.89c-11.88 0-21.98 7.324-26.8 17.79l-0.3223 0.7012-0.7695 0.05664c-10.97 0.79-19.65 10.27-19.65 21.82 0 12.06 9.441 21.96 21.11 21.96h51.07c8.75 0 15.82-7.43 15.82-16.44 0-6.83-4.1-12.56-9.92-15.03l-0.7578-0.3223-0.03711-0.8203c-0.75-16.48-13.69-29.72-29.75-29.72z" transform="matrix(0 -1 -1 0 438 441.4)"/>
    </g>
   </g>
  </g>
 </g>
</svg>
