<?xml version="1.0" encoding="UTF-8" standalone="no"?>
<svg xmlns="http://www.w3.org/2000/svg" height="256" viewBox="0 0 256 256" width="256" version="1.1">
 <g transform="translate(147.9 1.495)">
  <g transform="matrix(0 -1 -1 0 373.5 516.5)">
   <g transform="matrix(-.9996 0 0 1 575.9 -611)">
    <g transform="matrix(-2.667 0 0 2.667 1226 -44.6)">
     <rect style="color:#000000;fill:none" transform="scale(-1,1)" height="96" width="96.04" y="345.4" x="-438"/>
    </g>
    <g transform="matrix(-2.667 0 0 2.667 1226 -44.6)">
     <rect style="color:#000000;fill:none" transform="scale(-1,1)" height="96" width="96.04" y="345.4" x="-438"/>
     <path d="m426 409.9c0 0.001-0.00023 0.002-0.001 0.002-0.00026 0.002-0.001 0.002-0.002 0.002-0.00075 0.001-0.002 0.002-0.002 0.002-0.00076 0.001-0.00076 0.001-0.002 0.002-2.716 1.265-5.484 2.243-7.181 2.799-0.001 1.829-0.0709 4.84-0.4436 7.711-0.001 0.00024-0.001 0.0005-0.002-0.0005-0.001 0.00024-0.002-0.001-0.003-0.002-0.001-0.00025-0.002-0.001-0.002-0.002-0.002-0.00026-0.001-0.0005-0.002-0.001-2.043-2.191-3.829-4.521-4.882-5.962-1.74 0.5638-4.627 1.429-7.474 1.961-0.0005-0.00076-0.00075-0.001 0-0.002-0.00075-0.001 0.00025-0.002 0.0005-0.003-0.00025-0.002 0.00025-0.002 0.0005-0.003-0.00025-0.001-0.00025-0.002 0-0.002 1.454-2.62 3.118-5.037 4.163-6.484-1.074-1.48-2.789-3.958-4.175-6.499 0.0005-0.00075 0.001-0.00075 0.002-0.0005 0.001-0.001 0.002-0.0005 0.003-0.0005 0.001-0.00076 0.002-0.00051 0.003-0.00051 0.001-0.00075 0.001-0.00099 0.002-0.00099 2.942 0.5724 5.756 1.408 7.455 1.955 1.076-1.479 2.903-3.874 4.893-5.977 0.00074 0.00025 0.001 0.00075 0.001 0.002 0.001 0.00077 0.001 0.002 0.002 0.002 0.00099 0.00099 0.001 0.002 0.002 0.003s0.002 0.001 0.002 0.002c0.3644 2.973 0.4389 5.907 0.4436 7.691 1.74 0.5664 4.583 1.564 7.199 2.805z" style="stroke-linejoin:round;stroke-width:1.5;color:#000000;stroke:#808080;stroke-linecap:round;fill:none"/>
     <path d="m406 428.5c0 0.00075-0.00018 0.001-0.00079 0.001-0.00019 0.001-0.00078 0.001-0.001 0.001-0.00057 0.00079-0.001 0.001-0.001 0.001-0.00057 0.00079-0.00057 0.00079-0.001 0.001-2.037 0.949-4.114 1.682-5.386 2.099-0.00078 1.372-0.0531 3.631-0.3327 5.784-0.00076 0.00018-0.00079 0.00037-0.002-0.00037-0.00079 0.00017-0.001-0.00076-0.002-0.001-0.00078-0.00019-0.001-0.00075-0.001-0.001-0.002-0.0002-0.00079-0.00038-0.002-0.00075-1.532-1.644-2.872-3.391-3.662-4.472-1.305 0.4229-3.471 1.072-5.606 1.471-0.00038-0.00057-0.00057-0.00075 0-0.001-0.00057-0.00079 0.00019-0.001 0.00038-0.002-0.00019-0.002 0.00018-0.002 0.00036-0.002-0.00018-0.00078-0.00018-0.001 0-0.001 1.09-1.965 2.339-3.778 3.123-4.863-0.8057-1.11-2.092-2.969-3.132-4.875 0.00037-0.00056 0.00078-0.00056 0.002-0.00038 0.00075-0.00074 0.001-0.00037 0.002-0.00037 0.00078-0.00056 0.001-0.00037 0.002-0.00037 0.00079-0.00056 0.00079-0.00074 0.001-0.00074 2.206 0.4293 4.318 1.056 5.592 1.466 0.8073-1.109 2.178-2.906 3.67-4.483 0.00055 0.00019 0.00078 0.00056 0.00078 0.001 0.00078 0.00058 0.00078 0.002 0.001 0.002 0.00074 0.00074 0.00079 0.001 0.001 0.002 0.00074 0.00074 0.001 0.00074 0.001 0.001 0.2733 2.23 0.3292 4.431 0.3327 5.769 1.305 0.4248 3.438 1.173 5.399 2.104z" style="stroke-linejoin:round;stroke-width:1.5;color:#000000;stroke:#808080;stroke-linecap:round;fill:none"/>
     <path style="color-rendering:auto;text-decoration-color:#000000;color:#000000;font-variant-numeric:normal;shape-rendering:auto;solid-color:#000000;text-decoration-line:none;fill:#808080;font-variant-position:normal;mix-blend-mode:normal;font-feature-settings:normal;shape-padding:0;font-variant-alternates:normal;text-indent:0;font-variant-ligatures:normal;dominant-baseline:auto;font-variant-caps:normal;image-rendering:auto;white-space:normal;text-decoration-style:solid;text-orientation:mixed;isolation:auto;text-transform:none" d="m162.2 38.54l4 4.97c16.2 19.76 21.8 46.06 15.3 70.69-2.7 10.1-7.3 19.2-13.1 27.1 1.1 0 2.1 0.1 3.2 0.3 0.5-0.1 1.1-0.1 1.6-0.2 5.4-7.7 9.6-16.5 12.2-26.1v-0.1c6.3-23.75 1.3-48.78-12.6-68.83 38.1 13.79 62.2 50.76 59.7 90.33-0.4 5.9-1.3 11.9-2.9 17.8-2.5 9.1-6.2 17.5-10.9 25 0.1 1.1 0.2 2.2 0.3 3.4v0.8l0.8 0.4c0.1 0 0.3 0.1 0.5 0.2 5.8-8.5 10.3-18.2 13.1-28.7 1.7-6.2 2.7-12.5 3.1-18.7 2.7-43.28-24.9-84.09-68.2-96.58l-6.1-1.78zm-112.6 112.6l1.77 6.2c8.23 28.6 29.39 51.4 56.81 62-1.8-1.9-3.3-4-4.6-6.3-21.5-10.2-38.24-28.6-46.39-51.4 7.92 5.6 16.54 10.1 25.91 12.7h0.01c8.11 2.1 16.27 3 24.27 2.8 1.4-1.6 2.9-3 4.5-4.3-9 0.8-18.41 0.1-27.73-2.4h-0.01c-10.82-2.9-20.9-8.1-29.58-15.2l-4.96-4.1z" transform="matrix(0 -.375 -.3751 0 438 441.4)"/>
     <path style="color-rendering:auto;color:#000000;shape-rendering:auto;stroke:#808080;text-decoration-line:none;stroke-width:1.5;fill:none;text-indent:0;image-rendering:auto;text-transform:none" d="m385 374.9c0 6.251-3.86 11.56-9.367 14.1l-0.2696 0.123-0.0215 0.2949c-0.423 5.796-5.443 10.38-11.54 10.38-6.375 0-11.62-4.987-11.62-11.15v-26.5c0-4.65 3.954-8.408 8.74-8.408 3.63 0 6.679 2.178 7.993 5.266l0.125 0.289 0.3146 0.0139c8.667 0.392 15.64 7.199 15.64 15.64z"/>
    </g>
   </g>
  </g>
 </g>
</svg>
