<?xml version="1.0" encoding="UTF-8" standalone="no"?>
<svg xmlns="http://www.w3.org/2000/svg" height="256" viewBox="0 0 256 256" width="256" version="1.1">
 <g transform="translate(147.9 1.495)">
  <g transform="matrix(0 -1 -1 0 373.5 516.5)">
   <g transform="matrix(-.9996 0 0 1 575.9 -611)">
    <g transform="matrix(-2.667 0 0 2.667 1226 -44.6)">
     <rect style="color:#000000;fill:none" transform="scale(-1,1)" height="96" width="96.04" y="345.4" x="-438"/>
     <path style="enable-background:new;fill:#808080" d="m378.2 399.5-13.27 1.002v-7.988l-17.92 1.879 25.01-13.7v9.455l6.167-0.9897z"/>
     <path style="color-rendering:auto;color:#000000;shape-rendering:auto;stroke:#808080;text-decoration-line:none;stroke-width:1.451;fill:none;text-indent:0;image-rendering:auto;text-transform:none" d="m430.5 390.1c0 9.89-6.098 18.29-14.81 22.31l-0.5838 0.2682-0.0473 0.6402c-0.6652 9.128-8.56 16.35-18.17 16.35-10.04 0-18.29-7.858-18.29-17.57v-42.5c0-7.283 6.187-13.17 13.69-13.17 5.688 0 10.46 3.413 12.52 8.255l0.2683 0.6308 0.6839 0.0302c13.71 0.6212 24.74 11.4 24.74 24.76z"/>
    </g>
   </g>
  </g>
 </g>
</svg>
