<?xml version="1.0" encoding="UTF-8" standalone="no"?>
<svg xmlns="http://www.w3.org/2000/svg" height="256" viewBox="0 0 256 256" width="256" version="1.1">
 <g transform="translate(147.9 1.495)">
  <g transform="matrix(0 -1 -1 0 373.5 516.5)">
   <g transform="matrix(-.9996 0 0 1 575.9 -611)">
    <g transform="matrix(-2.667 0 0 2.667 1226 -44.6)">
     <rect style="color:#000000;fill:none" transform="scale(-1,1)" height="96" width="96.04" y="345.4" x="-438"/>
     <path style="color:#000000;font-variant-east_asian:normal;fill:#808080" d="m346 392.8c0 3.978 3.225 7.202 7.202 7.202 0.7898 0 1.548-0.1332 2.259-0.3681 0.0723-0.024 0.1469-0.043 0.2181-0.069 0.607-0.1834 9.429-2.872 17.34-6.773h-0.002-0.004-0.004-0.002c-8.641-4.168-17.55-6.817-17.55-6.817-0.7107-0.2346-1.469-0.3634-2.259-0.3634-3.978 0-7.202 3.225-7.202 7.202z"/>
     <path style="color:#000000;fill:#808080" d="m352.7 375.5c0 3.329 2.698 6.027 6.027 6.027 0.6609 0 1.295-0.1115 1.89-0.3081 0.0605-0.02 0.1229-0.036 0.1825-0.058 0.508-0.1535 7.891-2.404 14.51-5.668h-0.001-0.004-0.003-0.001c-7.231-3.487-14.68-5.704-14.68-5.704-0.5947-0.1963-1.23-0.3041-1.89-0.3041-3.329 0-6.027 2.698-6.027 6.027z"/>
     <path style="color:#000000;font-variant-east_asian:normal;fill:#808080" d="m353.8 410.1c0 2.985 2.419 5.404 5.404 5.404 0.5926 0 1.161-0.1 1.695-0.2762 0.0542-0.018 0.1102-0.032 0.1637-0.052 0.4555-0.1376 7.075-2.155 13.01-5.082h-0.001-0.003-0.003-0.001c-6.483-3.127-13.17-5.115-13.17-5.115-0.5332-0.1761-1.102-0.2727-1.695-0.2727-2.985 0-5.404 2.42-5.404 5.404z"/>
     <path style="color-rendering:auto;color:#000000;shape-rendering:auto;stroke:#808080;text-decoration-line:none;stroke-width:1.5;fill:none;text-indent:0;image-rendering:auto;text-transform:none" d="m431.8 390.3c0 10.23-6.307 18.92-15.32 23.07l-0.6038 0.2773-0.0489 0.6621c-0.6879 9.44-8.852 16.91-18.79 16.91-10.39 0-18.91-8.127-18.91-18.17v-43.96c0-7.532 6.399-13.62 14.16-13.62 5.882 0 10.82 3.53 12.94 8.537l0.2775 0.6524 0.7073 0.0312c14.18 0.6424 25.59 11.79 25.59 25.61z"/>
    </g>
   </g>
  </g>
 </g>
</svg>
