<?xml version="1.0" encoding="UTF-8" standalone="no"?>
<svg xmlns="http://www.w3.org/2000/svg" height="256" viewBox="0 0 256 256" width="256" version="1.1">
 <g transform="translate(147.9 1.495)">
  <g transform="matrix(0 -1 -1 0 373.5 516.5)">
   <g transform="matrix(-.9996 0 0 1 575.9 -611)">
    <g transform="matrix(-2.667 0 0 2.667 1226 -44.6)">
     <rect style="color:#000000;fill:none" transform="scale(-1,1)" height="96" width="96.04" y="345.4" x="-438"/>
     <path style="color-rendering:auto;color:#000000;shape-rendering:auto;stroke:#808080;text-decoration-line:none;stroke-width:1.451;fill:none;text-indent:0;image-rendering:auto;text-transform:none" d="m430.6 390.4c0 9.89-6.098 18.29-14.81 22.31l-0.5838 0.2682-0.0473 0.6402c-0.6652 9.128-8.56 16.35-18.17 16.35-10.04 0-18.29-7.858-18.29-17.57v-42.5c0-7.283 6.187-13.17 13.69-13.17 5.688 0 10.46 3.413 12.52 8.255l0.2683 0.6308 0.6839 0.0302c13.71 0.6212 24.74 11.4 24.74 24.76z"/>
     <path style="color:#000000;fill:#808080" d="m373.8 375.7 0.2655-1.5h-14.05v1.5z"/>
     <rect style="color:#000000;fill:#808080" transform="matrix(.8661 .4999 .5001 -.8659 0 0)" height="14.04" width="1.5" y="-148.3" x="504.6"/>
     <rect style="color:#000000;fill:#808080" transform="matrix(.8661 -.4999 .5001 .8659 0 0)" height="14.04" width="1.5" y="501.2" x="129.5"/>
     <path style="color:#000000;fill:#808080" d="m371.9 411.6 0.23-1.299h-12.17v1.299z"/>
     <rect style="color:#000000;fill:#808080" transform="matrix(.8661 .4999 .5001 -.8659 0 0)" height="12.16" width="1.299" y="-179" x="521.9"/>
     <rect style="color:#000000;fill:#808080" transform="matrix(.8661 -.4999 .5001 .8659 0 0)" height="12.16" width="1.299" y="532.8" x="110.8"/>
     <path style="color:#000000;fill:#808080" d="m367.4 394.4 0.3396-1.918h-17.96v1.918z"/>
     <rect style="color:#000000;fill:#808080" transform="matrix(.8661 .4999 .5001 -.8659 0 0)" height="17.95" width="1.919" y="-170.4" x="506.5"/>
     <rect style="color:#000000;fill:#808080" transform="matrix(.8661 -.4999 .5001 .8659 0 0)" height="17.95" width="1.919" y="511.1" x="113"/>
    </g>
   </g>
  </g>
 </g>
</svg>
