<?xml version="1.0" encoding="UTF-8" standalone="no"?>
<!-- Created with Inkscape (http://www.inkscape.org/) -->
<svg id="svg4874" xmlns:rdf="http://www.w3.org/1999/02/22-rdf-syntax-ns#" xmlns="http://www.w3.org/2000/svg" height="96" viewBox="0 0 96 96.000001" width="96" version="1.1" xmlns:cc="http://creativecommons.org/ns#" xmlns:dc="http://purl.org/dc/elements/1.1/">
 <metadata id="metadata4879">
  <rdf:RDF>
   <cc:Work rdf:about="">
    <dc:format>image/svg+xml</dc:format>
    <dc:type rdf:resource="http://purl.org/dc/dcmitype/StillImage"/>
    <dc:title/>
   </cc:Work>
  </rdf:RDF>
 </metadata>
 <g id="layer1" transform="translate(67.857 -78.505)">
  <rect id="rect4782" style="color:#000000;fill:none" transform="rotate(90)" height="96" width="96" y="-28.143" x="78.505"/>
  <path id="path4179" style="color-rendering:auto;text-decoration-color:#000000;color:#000000;font-variant-numeric:normal;shape-rendering:auto;solid-color:#000000;text-decoration-line:none;fill:#808080;font-variant-position:normal;mix-blend-mode:normal;font-feature-settings:normal;shape-padding:0;font-variant-alternates:normal;text-indent:0;font-variant-ligatures:normal;font-variant-caps:normal;image-rendering:auto;white-space:normal;text-decoration-style:solid;text-orientation:mixed;isolation:auto;text-transform:none" d="m23.977 8c-5.033 0.0582-8.714-0.1203-11.725 1.541-1.506 0.831-2.6969 2.236-3.3555 3.99-0.6587 1.755-0.8965 3.839-0.8965 6.469v56c0 2.63 0.2378 4.712 0.8965 6.467 0.6586 1.754 1.8495 3.159 3.3555 3.99 3.011 1.661 6.692 1.485 11.725 1.543h0.011 48.024 0.011c5.033-0.058 8.714 0.118 11.725-1.543 1.506-0.831 2.697-2.236 3.356-3.99 0.658-1.755 0.896-3.837 0.896-6.467v-10h-4v10c0 2.37-0.25 4.023-0.641 5.062-0.39 1.04-0.809 1.488-1.543 1.893-0.764 0.422-2.061 0.669-3.816 0.82v-21.775h1 5 4v-22h-4v18h-6v-22h1 5 4v-4-12c0-2.63-0.238-4.714-0.896-6.469-0.659-1.754-1.85-3.159-3.356-3.99-3.011-1.6613-6.692-1.4828-11.725-1.541h-0.011-48.024-0.011zm0.023 4h48c5.038 0.059 8.352 0.237 9.816 1.045 0.734 0.405 1.153 0.853 1.543 1.893 0.391 1.039 0.641 2.692 0.641 5.062v12h-10v26 4 21.957c-0.657 0.015-1.27 0.034-2 0.043h-47.977-0.023c-0.73-0.009-1.343-0.028-2-0.043v-71.914c0.657-0.015 1.27-0.034 2-0.043z" transform="translate(-67.857 78.505)"/>
  <path id="path4202" style="color-rendering:auto;text-decoration-color:#000000;color:#000000;font-variant-numeric:normal;text-orientation:mixed;shape-rendering:auto;solid-color:#000000;text-decoration-line:none;fill:#808080;font-variant-position:normal;mix-blend-mode:normal;font-feature-settings:normal;shape-padding:0;font-variant-alternates:normal;text-indent:0;dominant-baseline:auto;font-variant-caps:normal;image-rendering:auto;white-space:normal;text-decoration-style:solid;font-variant-ligatures:normal;isolation:auto;text-transform:none" d="m-19.82 105.18c-1.5856 0-3.1101 0.30155-4.5117 0.90625-1.3899 0.57546-2.6327 1.4255-3.6582 2.5176l-0.0098 0.01-0.0098 0.0117c-1.0016 1.0999-1.7696 2.419-2.3047 3.8945-0.000216 0.00058 0.000216 0.001 0 0.002-0.54857 1.4882-0.81055 3.1074-0.81055 4.8223 0 1.7371 0.26004 3.3686 0.81055 4.8613 0.53685 1.4558 1.3064 2.7592 2.3047 3.8555l0.0098 0.0117 0.0098 0.0117c1.023 1.0895 2.2544 1.951 3.6367 2.5508l0.01758 0.008 0.01758 0.006c1.3999 0.577 2.9172 0.85938 4.498 0.85938s3.1001-0.28238 4.5-0.85938l0.01758-0.006 0.01563-0.008c1.382-0.59961 2.6059-1.4681 3.6074-2.5644 1.0259-1.0957 1.8163-2.4033 2.3555-3.8652 0.5505-1.4928 0.81055-3.1242 0.81055-4.8613 0-1.7127-0.26144-3.3297-0.80859-4.8164-0.53778-1.4859-1.3273-2.8102-2.3594-3.9121-1.0038-1.0983-2.2361-1.9542-3.625-2.5293-1.4021-0.60522-2.9274-0.90625-4.5137-0.90625zm0 4c1.1019 0 2.0603 0.1978 2.9414 0.58008l0.01758 0.006 0.01758 0.008c0.8871 0.36564 1.6015 0.86701 2.2188 1.5449l0.01172 0.0117 0.0098 0.0117c0.64062 0.68219 1.1456 1.5091 1.5215 2.5488l0.002 0.006 0.002 0.006c0.36629 0.99325 0.56445 2.129 0.56445 3.4414 0 1.3405-0.19966 2.4874-0.56445 3.4766-0.37426 1.0149-0.87844 1.8364-1.5254 2.5254l-0.0098 0.0117-0.01172 0.0117c-0.61969 0.68057-1.3468 1.1958-2.2402 1.5859-0.88313 0.361-1.8489 0.55274-2.9551 0.55274-1.1069 0-2.0715-0.19129-2.9551-0.55274-0.89333-0.38995-1.6368-0.91237-2.2852-1.5996-0.62425-0.68852-1.1255-1.5144-1.502-2.5352-0.3648-0.98919-0.5625-2.136-0.5625-3.4766 0-1.3124 0.1962-2.4482 0.5625-3.4414l0.002-0.006 0.002-0.006c0.37794-1.0454 0.87989-1.8767 1.498-2.5586 0.64582-0.6844 1.3791-1.1932 2.2656-1.5586l0.01758-0.008 0.01563-0.006c0.8811-0.38228 1.8395-0.58008 2.9414-0.58008z"/>
  <path id="path4228" style="color-rendering:auto;text-decoration-color:#000000;color:#000000;font-variant-numeric:normal;text-orientation:mixed;shape-rendering:auto;solid-color:#000000;text-decoration-line:none;fill:#808080;font-variant-position:normal;mix-blend-mode:normal;font-feature-settings:normal;shape-padding:0;font-variant-alternates:normal;text-indent:0;dominant-baseline:auto;font-variant-caps:normal;image-rendering:auto;white-space:normal;text-decoration-style:solid;font-variant-ligatures:normal;isolation:auto;text-transform:none" d="m-19.812 133.48c-7.6894 0-12.528 0.60316-15.816 2.9492-1.6442 1.173-2.7651 2.8266-3.375 4.6953-0.60993 1.8687-0.78538 3.9434-0.79102 6.3184l4 0.01c0.0051-2.1674 0.19325-3.8589 0.59375-5.0859s0.93847-1.9982 1.8965-2.6816c1.916-1.367 6.057-2.2051 13.492-2.2051 7.4352 0 11.577 0.83893 13.49 2.2051 0.95676 0.68308 1.4939 1.4532 1.8926 2.6797 0.39866 1.2265 0.58237 2.9188 0.58398 5.0859l4-0.004c-0.00177-2.3751-0.17367-4.4491-0.78125-6.3184-0.60758-1.8692-1.7275-3.5258-3.3711-4.6992-3.2872-2.3469-8.125-2.9492-15.814-2.9492z"/>
 </g>
</svg>
