<?xml version="1.0" encoding="UTF-8" standalone="no"?>
<!-- Created with Inkscape (http://www.inkscape.org/) -->
<svg id="svg4874" xmlns:rdf="http://www.w3.org/1999/02/22-rdf-syntax-ns#" xmlns="http://www.w3.org/2000/svg" height="96" viewBox="0 0 96 96.000001" width="96" version="1.1" xmlns:cc="http://creativecommons.org/ns#" xmlns:dc="http://purl.org/dc/elements/1.1/">
 <metadata id="metadata4879">
  <rdf:RDF>
   <cc:Work rdf:about="">
    <dc:format>image/svg+xml</dc:format>
    <dc:type rdf:resource="http://purl.org/dc/dcmitype/StillImage"/>
    <dc:title/>
   </cc:Work>
  </rdf:RDF>
 </metadata>
 <g id="layer1" transform="translate(67.857 -78.505)">
  <g id="g4845" transform="matrix(0 -1 -1 0 373.51 516.51)">
   <g id="g4778" transform="matrix(-.99960 0 0 1 575.94 -611)">
    <g id="g4780" transform="matrix(-1 0 0 1 576 611)">
     <rect id="rect4782" style="color:#000000;fill:none" transform="scale(-1,1)" height="96" width="96.038" y="345.36" x="-438"/>
     <path id="rect4289" style="stroke-width:0;color:#000000;fill:#808080" d="m429 426.98c0 5.7303-4.6397 10.344-10.403 10.344h-23.405v0.0125a44.223 43.972 0 0 1 -38.298 -21.987 44.223 43.972 0 0 1 0 -43.972 44.223 43.972 0 0 1 38.298 -21.987v0.0125h23.405c5.763 0 10.403 4.6134 10.403 10.344zm-17.078-9.0444a6.777 6.7385 0 0 0 -2.0532 -4.8351l-19.849-19.737 19.849-19.737a6.777 6.7385 0 1 0 -9.5833 -9.5289l-24.641 24.501a6.777 6.7385 0 0 0 0 9.529l24.641 24.501a6.777 6.7385 0 0 0 11.636 -4.6939z"/>
    </g>
   </g>
  </g>
 </g>
</svg>
