<?xml version="1.0" encoding="UTF-8" standalone="no"?>
<!-- Created with Inkscape (http://www.inkscape.org/) -->
<svg id="svg3336" xmlns:rdf="http://www.w3.org/1999/02/22-rdf-syntax-ns#" style="enable-background:new" xmlns="http://www.w3.org/2000/svg" height="512" viewBox="0 0 512 512" width="512" version="1.1" xmlns:cc="http://creativecommons.org/ns#" xmlns:xlink="http://www.w3.org/1999/xlink" xmlns:dc="http://purl.org/dc/elements/1.1/">
 <defs id="defs3338">
  <linearGradient id="linearGradient4285" y2="496" gradientUnits="userSpaceOnUse" x2="368" gradientTransform="matrix(.84848 0 0 .94118 95.03 0)" y1="16" x1="128">
   <stop id="stop4366-7" style="stop-color:#4b8bf5" offset="0"/>
   <stop id="stop4368-5" style="stop-color:#72aaf8" offset="1"/>
  </linearGradient>
  <clipPath id="clipPath4277-8" clipPathUnits="userSpaceOnUse">
   <rect id="rect4279-6" style="opacity:0.82;color:#000000;enable-background:accumulate;fill:#88b637" ry="1" height="512" width="512" y="0" x="5.6e-7"/>
  </clipPath>
  <filter id="filter4261" style="color-interpolation-filters:sRGB" height="1.0244" width="1.0237" y="-.012176" x="-.011829">
   <feGaussianBlur id="feGaussianBlur4263" stdDeviation="2.76"/>
  </filter>
 </defs>
 <metadata id="metadata3341">
  <rdf:RDF>
   <cc:Work rdf:about="">
    <dc:format>image/svg+xml</dc:format>
    <dc:type rdf:resource="http://purl.org/dc/dcmitype/StillImage"/>
    <dc:title/>
   </cc:Work>
  </rdf:RDF>
 </metadata>
 <g id="layer3">
  <path id="rect4158" style="color:#000000;enable-background:accumulate;fill:#f3f2eb" d="m166.05 18c-145.29 0-166.05 20.737-166.05 165.9v144.2c0 145.16 20.757 165.9 166.05 165.9h179.9c145.29 0 166.05-20.74 166.05-165.9v-144.2c0-145.16-20.76-165.9-166.05-165.9z"/>
  <rect id="rect4362" style="color:#000000;enable-background:accumulate;fill:#f03b4f" transform="scale(1,-1)" height="152" width="176" y="-152" x="336"/>
  <rect id="rect4287" style="color:#000000;enable-background:accumulate;fill:#3ad550" height="104" width="176" y="152" x="336"/>
  <rect id="rect4289" style="color:#000000;enable-background:accumulate;fill:#faf8f6" height="168" width="176" y="344" x="336"/>
  <rect id="rect4327" style="color:#000000;enable-background:accumulate;fill:#fbcb38" height="104" width="176" y="256" x="336"/>
  <g id="g4275" style="enable-background:new" clip-path="url(#clipPath4277-8)">
   <g id="g4268">
    <rect id="rect4259" style="opacity:.1;color:#000000;filter:url(#filter4261);enable-background:accumulate" height="544" width="560" y="0" x="-110"/>
   </g>
  </g>
  <rect id="rect4268" style="color:#000000;enable-background:accumulate;fill:url(#linearGradient4285)" height="512" width="448" y="0" x="1.6484e-8"/>
  <rect id="rect4280" style="color:#000000;fill-opacity:.50980;enable-background:accumulate;fill:#416bf8" height="512" width="64" y="-5.5652e-7" x="5.6e-7"/>
  <path id="rect4342" style="opacity:.1;color:#000000;enable-background:accumulate;fill:#fff" d="m446 0v512h2v-512h-2z"/>
  <path id="path4228" style="enable-background:new;stroke:#f7f7f7;stroke-width:13.59;fill:none" d="m385.21 391.85c-0.0489-67.949-20.432-88.334-129.15-88.334s-129.1 20.385-129.26 88.334m197.74-190.22q0 16.967-5.0524 30.65-5.0523 13.683-14.315 23.535-8.982 9.8516-21.613 15.325-12.631 5.1995-27.508 5.1995t-27.508-5.1995q-12.631-5.4733-21.894-15.325-8.9821-9.8518-14.034-23.535-5.0525-13.683-5.0525-30.65 0-16.693 5.0525-30.376 5.0524-13.957 14.034-23.808 9.2629-9.8517 21.894-15.051 12.631-5.4733 27.508-5.4733t27.508 5.4733q12.631 5.1996 21.613 15.051 9.2631 9.8516 14.315 23.808 5.0524 13.683 5.0524 30.376z"/>
 </g>
</svg>
