<?xml version="1.0" encoding="UTF-8" standalone="no"?>
<!-- Created with Inkscape (http://www.inkscape.org/) -->
<svg id="svg3336" xmlns:rdf="http://www.w3.org/1999/02/22-rdf-syntax-ns#" style="enable-background:new" xmlns="http://www.w3.org/2000/svg" height="512" viewBox="0 0 512 512" width="512" version="1.1" xmlns:cc="http://creativecommons.org/ns#" xmlns:xlink="http://www.w3.org/1999/xlink" xmlns:dc="http://purl.org/dc/elements/1.1/">
 <defs id="defs3338">
  <linearGradient id="linearGradient4335">
   <stop id="stop4331" style="stop-color:#ff9169" offset="0"/>
   <stop id="stop4333" style="stop-color:#ff9069;stop-opacity:0" offset="1"/>
  </linearGradient>
  <linearGradient id="linearGradient4319">
   <stop id="stop4322" style="stop-color:#fed965" offset="0"/>
   <stop id="stop4324" style="stop-color:#fed965;stop-opacity:0" offset="1"/>
  </linearGradient>
  <linearGradient id="linearGradient4296" y2="478.31" gradientUnits="userSpaceOnUse" x2="475.4" y1="41.65" x1="34">
   <stop id="stop4292" style="stop-color:#ef1e5f" offset="0"/>
   <stop id="stop4272" style="stop-color:#f1374c" offset=".48272"/>
   <stop id="stop4294" style="stop-color:#ff725b" offset="1"/>
  </linearGradient>
  <linearGradient id="linearGradient4348" y2="192" xlink:href="#linearGradient4335" gradientUnits="userSpaceOnUse" x2="456" y1="368" x1="456"/>
  <linearGradient id="linearGradient4350" y2="128" xlink:href="#linearGradient4335" gradientUnits="userSpaceOnUse" x2="416" y1="336" x1="416"/>
  <linearGradient id="linearGradient4352" y2="96" xlink:href="#linearGradient4335" gradientUnits="userSpaceOnUse" x2="376" y1="304" x1="376"/>
  <linearGradient id="linearGradient4354" y2="152" xlink:href="#linearGradient4335" gradientUnits="userSpaceOnUse" x2="336" y1="288" x1="336"/>
  <linearGradient id="linearGradient4356" y2="72" xlink:href="#linearGradient4335" gradientUnits="userSpaceOnUse" x2="296" y1="280" x1="296"/>
  <linearGradient id="linearGradient4358" y2="184" xlink:href="#linearGradient4335" gradientUnits="userSpaceOnUse" x2="56" y1="360" x1="56"/>
  <linearGradient id="linearGradient4360" y2="162.4" xlink:href="#linearGradient4335" gradientUnits="userSpaceOnUse" x2="96.8" y1="352" x1="96.8"/>
  <linearGradient id="linearGradient4362" y2="80" xlink:href="#linearGradient4335" gradientUnits="userSpaceOnUse" x2="136" y1="312" x1="136"/>
  <linearGradient id="linearGradient4364" y2="136" xlink:href="#linearGradient4335" gradientUnits="userSpaceOnUse" x2="176" y1="264" x1="177.6"/>
  <linearGradient id="linearGradient4366" y2="-32" xlink:href="#linearGradient4335" gradientUnits="userSpaceOnUse" x2="218" y1="326.1" x1="216"/>
  <linearGradient id="linearGradient4368" y2="72" xlink:href="#linearGradient4335" gradientUnits="userSpaceOnUse" x2="288" y1="296" x1="288"/>
  <linearGradient id="linearGradient4390" y2="400" xlink:href="#linearGradient4319" gradientUnits="userSpaceOnUse" x2="256" y1="232" x1="256"/>
  <linearGradient id="linearGradient4394" y2="472" xlink:href="#linearGradient4319" gradientUnits="userSpaceOnUse" x2="256" gradientTransform="translate(-40)" y1="232" x1="256"/>
  <linearGradient id="linearGradient4398" y2="400" xlink:href="#linearGradient4319" gradientUnits="userSpaceOnUse" x2="256" gradientTransform="translate(-80)" y1="200" x1="256"/>
  <linearGradient id="linearGradient4402" y2="368" xlink:href="#linearGradient4319" gradientUnits="userSpaceOnUse" x2="256" gradientTransform="translate(-120)" y1="152" x1="256"/>
  <linearGradient id="linearGradient4406" y2="408" xlink:href="#linearGradient4319" gradientUnits="userSpaceOnUse" x2="256" gradientTransform="translate(-160)" y1="112" x1="256"/>
  <linearGradient id="linearGradient4411" y2="312" xlink:href="#linearGradient4319" gradientUnits="userSpaceOnUse" x2="256" gradientTransform="translate(-200)" y1="160" x1="256"/>
  <linearGradient id="linearGradient4415" y2="544" xlink:href="#linearGradient4319" gradientUnits="userSpaceOnUse" x2="256" gradientTransform="translate(40)" y1="160" x1="256"/>
  <linearGradient id="linearGradient4419" y2="456" xlink:href="#linearGradient4319" gradientUnits="userSpaceOnUse" x2="256" gradientTransform="translate(80)" y1="208" x1="256"/>
  <linearGradient id="linearGradient4423" y2="368" xlink:href="#linearGradient4319" gradientUnits="userSpaceOnUse" x2="256" gradientTransform="translate(120)" y1="176" x1="256"/>
  <linearGradient id="linearGradient4427" y2="376" xlink:href="#linearGradient4319" gradientUnits="userSpaceOnUse" x2="256" gradientTransform="translate(160)" y1="185.9" x1="256"/>
  <linearGradient id="linearGradient4431" y2="352" xlink:href="#linearGradient4319" gradientUnits="userSpaceOnUse" x2="256" gradientTransform="translate(200)" y1="128" x1="256"/>
  <linearGradient id="linearGradient4399" y2="280.98" gradientUnits="userSpaceOnUse" x2="-251.83" gradientTransform="translate(458,-32)" y1="280.98" x1="-126.57">
   <stop id="stop4340" style="stop-color:#ef5145;stop-opacity:0" offset="0"/>
   <stop id="stop4346" style="stop-color:#ef5145" offset="1"/>
  </linearGradient>
  <filter id="filter4403" style="color-interpolation-filters:sRGB" height="1.0217" width="1.0269" y="-.010838" x="-.013441">
   <feGaussianBlur id="feGaussianBlur4405" stdDeviation="1.3415057"/>
  </filter>
  <filter id="filter4409" style="color-interpolation-filters:sRGB" height="1.1734" width="1.215" y="-.086707" x="-.10752">
   <feGaussianBlur id="feGaussianBlur4411" stdDeviation="10.732046"/>
  </filter>
  <linearGradient id="linearGradient4420" y2="398.16" spreadMethod="reflect" gradientUnits="userSpaceOnUse" x2="94.471" y1="256.72" x1="94.471">
   <stop id="stop4413" offset="0"/>
   <stop id="stop4415" style="stop-opacity:0" offset="1"/>
  </linearGradient>
 </defs>
 <metadata id="metadata3341">
  <rdf:RDF>
   <cc:Work rdf:about="">
    <dc:format>image/svg+xml</dc:format>
    <dc:type rdf:resource="http://purl.org/dc/dcmitype/StillImage"/>
    <dc:title/>
   </cc:Work>
  </rdf:RDF>
 </metadata>
 <g id="layer3">
  <path id="rect4158" style="color:#000000;enable-background:accumulate;fill:url(#linearGradient4296)" d="m0 0v183.9 144.2 183.9h512v-183.9-144.2-183.9h-512z"/>
  <path id="path4269" style="opacity:.1;color:#000000;enable-background:accumulate;fill:#fff" d="m0 256v72.1 183.9h512v-183.9-72.1h-512z"/>
  <g id="g4370" style="opacity:.5">
   <path id="rect4273" d="m272 72v16h32v-16zm0 24v16h32v-16zm0 24v16h32v-16zm0 24v16h32v-16zm0 24v16h32v-16zm0 24v16h32v-16zm0 24v16h32v-16zm0 24v16h32v-16zm0 24v16h32v-16z" style="opacity:1;color:#000000;enable-background:accumulate;fill:url(#linearGradient4368)" transform="translate(-32,-32)"/>
   <path id="path4292" style="opacity:1;color:#000000;enable-background:accumulate;fill:url(#linearGradient4366)" d="m200 40v16h32v-16zm0 24v16h32v-16zm0 24v16h32v-16zm0 24v16h32v-16zm0 24v16h32v-16zm0 24v16h32v-16zm0 24v16h32v-16zm0 24v16h32v-16zm0 24v16h32v-16z"/>
   <path id="path4294" style="opacity:1;color:#000000;enable-background:accumulate;fill:url(#linearGradient4364)" d="m160 40v16h32v-16zm0 24v16h32v-16zm0 24v16h32v-16zm0 24v16h32v-16zm0 24v16h32v-16zm0 24v16h32v-16zm0 24v16h32v-16zm0 24v16h32v-16zm0 24v16h32v-16z"/>
   <path id="path4296" style="opacity:1;color:#000000;enable-background:accumulate;fill:url(#linearGradient4362)" d="m120 40v16h32v-16zm0 24v16h32v-16zm0 24v16h32v-16zm0 24v16h32v-16zm0 24v16h32v-16zm0 24v16h32v-16zm0 24v16h32v-16zm0 24v16h32v-16zm0 24v16h32v-16z"/>
   <path id="path4298" style="opacity:1;color:#000000;enable-background:accumulate;fill:url(#linearGradient4360)" d="m80 40v16h32v-16zm0 24v16h32v-16zm0 24v16h32v-16zm0 24v16h32v-16zm0 24v16h32v-16zm0 24v16h32v-16zm0 24v16h32v-16zm0 24v16h32v-16zm0 24v16h32v-16z"/>
   <path id="path4301" style="opacity:1;color:#000000;enable-background:accumulate;fill:url(#linearGradient4358)" d="m40 40v16h32v-16zm0 24v16h32v-16zm0 24v16h32v-16zm0 24v16h32v-16zm0 24v16h32v-16zm0 24v16h32v-16zm0 24v16h32v-16zm0 24v16h32v-16zm0 24v16h32v-16z"/>
   <path id="path4303" style="opacity:1;color:#000000;enable-background:accumulate;fill:url(#linearGradient4356)" d="m280 40v16h32v-16zm0 24v16h32v-16zm0 24v16h32v-16zm0 24v16h32v-16zm0 24v16h32v-16zm0 24v16h32v-16zm0 24v16h32v-16zm0 24v16h32v-16zm0 24v16h32v-16z"/>
   <path id="path4305" style="opacity:1;color:#000000;enable-background:accumulate;fill:url(#linearGradient4354)" d="m320 40v16h32v-16zm0 24v16h32v-16zm0 24v16h32v-16zm0 24v16h32v-16zm0 24v16h32v-16zm0 24v16h32v-16zm0 24v16h32v-16zm0 24v16h32v-16zm0 24v16h32v-16z"/>
   <path id="path4307" style="opacity:1;color:#000000;enable-background:accumulate;fill:url(#linearGradient4352)" d="m360 40v16h32v-16zm0 24v16h32v-16zm0 24v16h32v-16zm0 24v16h32v-16zm0 24v16h32v-16zm0 24v16h32v-16zm0 24v16h32v-16zm0 24v16h32v-16zm0 24v16h32v-16z"/>
   <path id="path4309" style="opacity:1;color:#000000;enable-background:accumulate;fill:url(#linearGradient4350)" d="m400 40v16h32v-16zm0 24v16h32v-16zm0 24v16h32v-16zm0 24v16h32v-16zm0 24v16h32v-16zm0 24v16h32v-16zm0 24v16h32v-16zm0 24v16h32v-16zm0 24v16h32v-16z"/>
   <path id="path4311" style="opacity:1;color:#000000;enable-background:accumulate;fill:url(#linearGradient4348)" d="m440 40v16h32v-16zm0 24v16h32v-16zm0 24v16h32v-16zm0 24v16h32v-16zm0 24v16h32v-16zm0 24v16h32v-16zm0 24v16h32v-16zm0 24v16h32v-16zm0 24v16h32v-16z"/>
  </g>
  <g id="g4433" style="opacity:.5">
   <path id="path4313" style="opacity:0.467;color:#000000;enable-background:accumulate;fill:url(#linearGradient4390)" d="m240 264v16h32v-16zm0 24v16h32v-16zm0 24v16h32v-16zm0 24v16h32v-16zm0 24v16h32v-16zm0 24v16h32v-16zm0 24v16h32v-16zm0 24v16h32v-16zm0 24v16h32v-16z"/>
   <path id="path4392" style="opacity:0.467;color:#000000;enable-background:accumulate;fill:url(#linearGradient4394)" d="m200 264v16h32v-16zm0 24v16h32v-16zm0 24v16h32v-16zm0 24v16h32v-16zm0 24v16h32v-16zm0 24v16h32v-16zm0 24v16h32v-16zm0 24v16h32v-16zm0 24v16h32v-16z"/>
   <path id="path4396" style="opacity:0.467;color:#000000;enable-background:accumulate;fill:url(#linearGradient4398)" d="m160 264v16h32v-16zm0 24v16h32v-16zm0 24v16h32v-16zm0 24v16h32v-16zm0 24v16h32v-16zm0 24v16h32v-16zm0 24v16h32v-16zm0 24v16h32v-16zm0 24v16h32v-16z"/>
   <path id="path4400" style="opacity:0.467;color:#000000;enable-background:accumulate;fill:url(#linearGradient4402)" d="m120 264v16h32v-16zm0 24v16h32v-16zm0 24v16h32v-16zm0 24v16h32v-16zm0 24v16h32v-16zm0 24v16h32v-16zm0 24v16h32v-16zm0 24v16h32v-16zm0 24v16h32v-16z"/>
   <path id="path4404" style="opacity:0.467;color:#000000;enable-background:accumulate;fill:url(#linearGradient4406)" d="m80 264v16h32v-16zm0 24v16h32v-16zm0 24v16h32v-16zm0 24v16h32v-16zm0 24v16h32v-16zm0 24v16h32v-16zm0 24v16h32v-16zm0 24v16h32v-16zm0 24v16h32v-16z"/>
   <path id="path4408" style="opacity:0.467;color:#000000;enable-background:accumulate;fill:url(#linearGradient4411)" d="m40 264v16h32v-16zm0 24v16h32v-16zm0 24v16h32v-16zm0 24v16h32v-16zm0 24v16h32v-16zm0 24v16h32v-16zm0 24v16h32v-16zm0 24v16h32v-16zm0 24v16h32v-16z"/>
   <path id="path4413" style="opacity:0.467;color:#000000;enable-background:accumulate;fill:url(#linearGradient4415)" d="m280 264v16h32v-16zm0 24v16h32v-16zm0 24v16h32v-16zm0 24v16h32v-16zm0 24v16h32v-16zm0 24v16h32v-16zm0 24v16h32v-16zm0 24v16h32v-16zm0 24v16h32v-16z"/>
   <path id="path4417" style="opacity:0.467;color:#000000;enable-background:accumulate;fill:url(#linearGradient4419)" d="m320 264v16h32v-16zm0 24v16h32v-16zm0 24v16h32v-16zm0 24v16h32v-16zm0 24v16h32v-16zm0 24v16h32v-16zm0 24v16h32v-16zm0 24v16h32v-16zm0 24v16h32v-16z"/>
   <path id="path4421" style="opacity:0.467;color:#000000;enable-background:accumulate;fill:url(#linearGradient4423)" d="m360 264v16h32v-16zm0 24v16h32v-16zm0 24v16h32v-16zm0 24v16h32v-16zm0 24v16h32v-16zm0 24v16h32v-16zm0 24v16h32v-16zm0 24v16h32v-16zm0 24v16h32v-16z"/>
   <path id="path4425" style="opacity:0.467;color:#000000;enable-background:accumulate;fill:url(#linearGradient4427)" d="m400 264v16h32v-16zm0 24v16h32v-16zm0 24v16h32v-16zm0 24v16h32v-16zm0 24v16h32v-16zm0 24v16h32v-16zm0 24v16h32v-16zm0 24v16h32v-16zm0 24v16h32v-16z"/>
   <path id="path4429" style="opacity:0.467;color:#000000;enable-background:accumulate;fill:url(#linearGradient4431)" d="m440 264v16h32v-16zm0 24v16h32v-16zm0 24v16h32v-16zm0 24v16h32v-16zm0 24v16h32v-16zm0 24v16h32v-16zm0 24v16h32v-16zm0 24v16h32v-16zm0 24v16h32v-16z"/>
  </g>
 </g>
 <g id="layer4">
  <path id="path4407" d="m348.38 108.19c-3.7571-0.0418-8.7537 0.54579-15.4 1.5446l-113.35 17.785c-26.701 5.6856-26.7 7.4533-26.7 30.011v184.82c-1.97-1.3792-3.914-2.7674-5.9501-4.1318v0.007c-8.483-5.6847-17.522-9.73-29.666-9.73-15.211 0-24.285 5.8253-29.777 13.497-5.4912 7.6716-7.3122 17.342-7.3122 24.817 0 9.0138 3.0798 18.633 9.7561 25.964s16.941 12.467 31.699 12.467c16.666 0 28.389-4.656 35.016-13.745 5.2178-7.1558 8.1008-16.714 9.1304-28.506v-0.033c0.14415-1.4307 0.24785-2.8981 0.33888-4.4121 0.13981-2.3309 0.11082-6.693 0.11082-6.693v-140.14c0-20.02-0.001-21.216 26.707-25.782l86.677-13.21c26.756-3.5024 26.759-1.0493 26.759 13.966v128.97c-1.97-1.3792-3.914-2.7674-5.9501-4.1318v0.007c-8.483-5.6848-17.522-9.73-29.666-9.73-15.211 0-24.285 5.8253-29.777 13.497-5.4912 7.6716-7.3122 17.342-7.3122 24.817 0 9.0138 3.0798 18.633 9.7561 25.964s16.941 12.467 31.699 12.467c16.666 0 28.389-4.656 35.016-13.745 5.2178-7.1558 8.1008-16.714 9.1304-28.506v-0.0329c0.14414-1.4307 0.24789-2.8981 0.33888-4.4121 0.13981-2.3309 0.11082-6.693 0.11082-6.693v-193.47c0-17.559-0.11392-23.375-11.385-23.501z" style="opacity:.4;filter:url(#filter4409);enable-background:new;fill:url(#linearGradient4420)"/>
  <path id="path4401" style="opacity:.1;filter:url(#filter4403);enable-background:new" d="m348.38 108.19c-3.7571-0.0418-8.7537 0.54579-15.4 1.5446l-113.35 17.785c-26.701 5.6856-26.7 7.4533-26.7 30.011v184.82c-1.97-1.3792-3.914-2.7674-5.9501-4.1318v0.007c-8.483-5.6847-17.522-9.73-29.666-9.73-15.211 0-24.285 5.8253-29.777 13.497-5.4912 7.6716-7.3122 17.342-7.3122 24.817 0 9.0138 3.0798 18.633 9.7561 25.964s16.941 12.467 31.699 12.467c16.666 0 28.389-4.656 35.016-13.745 5.2178-7.1558 8.1008-16.714 9.1304-28.506v-0.033c0.14415-1.4307 0.24785-2.8981 0.33888-4.4121 0.13981-2.3309 0.11082-6.693 0.11082-6.693v-140.14c0-20.02-0.001-21.216 26.707-25.782l86.677-13.21c26.756-3.5024 26.759-1.0493 26.759 13.966v128.97c-1.97-1.3792-3.914-2.7674-5.9501-4.1318v0.007c-8.483-5.6848-17.522-9.73-29.666-9.73-15.211 0-24.285 5.8253-29.777 13.497-5.4912 7.6716-7.3122 17.342-7.3122 24.817 0 9.0138 3.0798 18.633 9.7561 25.964s16.941 12.467 31.699 12.467c16.666 0 28.389-4.656 35.016-13.745 5.2178-7.1558 8.1008-16.714 9.1304-28.506v-0.0329c0.14414-1.4307 0.24789-2.8981 0.33888-4.4121 0.13981-2.3309 0.11082-6.693 0.11082-6.693v-193.47c0-17.559-0.11392-23.375-11.385-23.501z"/>
  <path id="path4393" d="m348.38 106.19c-3.7571-0.0418-8.7537 0.54579-15.4 1.5446l-113.35 17.785c-26.701 5.6856-26.7 7.4533-26.7 30.011v184.82c-1.97-1.3792-3.914-2.7674-5.9501-4.1318v0.007c-8.483-5.6847-17.522-9.73-29.666-9.73-15.211 0-24.285 5.8253-29.777 13.497-5.4912 7.6716-7.3122 17.342-7.3122 24.817 0 9.0138 3.0798 18.633 9.7561 25.964s16.941 12.467 31.699 12.467c16.666 0 28.389-4.656 35.016-13.745 5.2178-7.1558 8.1008-16.714 9.1304-28.506v-0.033c0.14415-1.4307 0.24785-2.8981 0.33888-4.4121 0.13981-2.3309 0.11082-6.693 0.11082-6.693v-140.14c0-20.02-0.001-21.216 26.707-25.782l86.677-13.21c26.756-3.5024 26.759-1.0493 26.759 13.966v128.97c-1.97-1.3792-3.914-2.7674-5.9501-4.1318v0.007c-8.483-5.6848-17.522-9.73-29.666-9.73-15.211 0-24.285 5.8253-29.777 13.497-5.4912 7.6716-7.3122 17.342-7.3122 24.817 0 9.0138 3.0798 18.633 9.7561 25.964s16.941 12.467 31.699 12.467c16.666 0 28.389-4.656 35.016-13.745 5.2178-7.1558 8.1008-16.714 9.1304-28.506v-0.0329c0.14414-1.4307 0.24789-2.8981 0.33888-4.4121 0.13981-2.3309 0.11082-6.693 0.11082-6.693v-193.47c0-17.559-0.11392-23.375-11.385-23.501z" style="enable-background:new;fill:#fef8f8"/>
  <path id="path4395" style="opacity:.1;enable-background:new;fill:url(#linearGradient4399)" d="m196.12 134.39c-3.1827 3.9759-3.1894 10.039-3.1894 21.141v184.82c-1.97-1.3792-3.9132-2.7684-5.9492-4.1328v0.008c-8.483-5.6847-17.522-9.7304-29.666-9.7305-15.211 0-24.286 5.8245-29.777 13.496-5.4912 7.6716-7.3105 17.343-7.3105 24.818 0 9.0138 3.0795 18.632 9.7559 25.963 6.6763 7.331 16.941 12.469 31.699 12.469 16.666 0 28.389-4.6575 35.016-13.746 5.2178-7.1558 8.1012-16.714 9.1309-28.506v-0.0313c0.14415-1.4307 0.24686-2.8982 0.33789-4.4121 0.13981-2.3309 0.11133-6.6934 0.11133-6.6934v-140.13c0-20.02-0.00099-21.216 26.707-25.781l86.678-13.209c26.756-3.5024 26.758-1.0505 26.758 13.965v128.97c-1.97-1.3792-3.9132-2.7664-5.9492-4.1309v0.008c-8.483-5.6848-17.522-9.7304-29.666-9.7305-15.211 0-24.284 5.8245-29.775 13.496-5.4912 7.6716-7.3125 17.341-7.3125 24.816 0 9.0138 3.0795 18.634 9.7559 25.965 6.6763 7.331 16.941 12.467 31.699 12.467 16.666 0 28.389-4.6556 35.016-13.744 5.2178-7.1558 8.1012-16.714 9.1309-28.506v-0.0332c0.14414-1.4307 0.2469-2.8982 0.33789-4.4121 0.13981-2.3309 0.11133-6.6934 0.11133-6.6934v-152.81z"/>
  <path id="path4397" style="enable-background:new;fill:#fff" d="m348.38 106.19c-3.7571-0.0418-8.7543 0.54616-15.4 1.5449l-113.35 17.785c-26.701 5.6856-26.701 7.4539-26.701 30.012v2c0-22.558 0.00058-24.326 26.701-30.012l113.35-17.785c6.6461-0.99876 11.643-1.5867 15.4-1.5449 11.271 0.12557 11.385 5.9427 11.385 23.502v-2c0-17.559-0.11333-23.376-11.385-23.502zm-37.578 193.62c-15.211 0-24.284 5.8245-29.775 13.496-5.4912 7.6716-7.3125 17.341-7.3125 24.816 0 0.39481 0.0135 0.79256 0.0254 1.1894 0.12512-7.3568 1.988-16.603 7.2871-24.006 5.4912-7.6716 14.564-13.496 29.775-13.496 12.144 0.00004 21.183 4.0457 29.666 9.7305v-0.008c2.036 1.3644 3.9793 2.7516 5.9492 4.1309v-2c-1.97-1.3792-3.9132-2.7664-5.9492-4.1309v0.008c-8.483-5.6848-17.522-9.7304-29.666-9.7305zm-153.49 26.693c-15.211 0-24.286 5.8245-29.777 13.496-5.4912 7.6716-7.3105 17.343-7.3105 24.818 0 0.39462 0.0135 0.7908 0.0254 1.1875 0.12533-7.3565 1.9864-16.603 7.2852-24.006 5.4912-7.6716 14.566-13.496 29.777-13.496 12.144 0.00003 21.183 4.0457 29.666 9.7305v-0.008c2.036 1.3644 3.9793 2.7536 5.9492 4.1328v-2c-1.97-1.3792-3.9132-2.7684-5.9492-4.1328v0.008c-8.483-5.6847-17.522-9.7304-29.666-9.7305z"/>
 </g>
</svg>
