<?xml version="1.0" encoding="UTF-8" standalone="no"?>
<!-- Created with Inkscape (http://www.inkscape.org/) -->
<svg id="svg3336" xmlns:rdf="http://www.w3.org/1999/02/22-rdf-syntax-ns#" style="enable-background:new" xmlns="http://www.w3.org/2000/svg" height="512" viewBox="0 0 512 512" width="512" version="1.1" xmlns:cc="http://creativecommons.org/ns#" xmlns:xlink="http://www.w3.org/1999/xlink" xmlns:dc="http://purl.org/dc/elements/1.1/">
 <defs id="defs3338">
  <linearGradient id="linearGradient4227" y2="494" gradientUnits="userSpaceOnUse" x2="512" y1="18">
   <stop id="stop4223" style="stop-color:#ffea73" offset="0"/>
   <stop id="stop4225" style="stop-color:#fef4bd" offset="1"/>
  </linearGradient>
 </defs>
 <metadata id="metadata3341">
  <rdf:RDF>
   <cc:Work rdf:about="">
    <dc:format>image/svg+xml</dc:format>
    <dc:type rdf:resource="http://purl.org/dc/dcmitype/StillImage"/>
    <dc:title/>
   </cc:Work>
  </rdf:RDF>
 </metadata>
 <g id="layer3">
  <path id="rect4158" style="color:#000000;enable-background:accumulate;fill:url(#linearGradient4227)" d="m0 0v183.9 144.2 183.9h512v-183.9-144.2-183.9h-512z"/>
  <path id="path4452" style="opacity:.1;color:#000000;fill-opacity:.99608;enable-background:accumulate;fill:#5c81df" d="m0 231v2h512.4v-2z"/>
  <path id="path4450" style="opacity:.1;color:#000000;fill-opacity:.99608;enable-background:accumulate;fill:#5c81df" d="m0 279v2h512.4v-2z"/>
  <path id="path4448" style="opacity:.1;color:#000000;fill-opacity:.99608;enable-background:accumulate;fill:#5c81df" d="m0 375v2h512.4v-2z"/>
  <rect id="rect4333-4" style="opacity:.3;color:#000000;fill-opacity:.99608;enable-background:accumulate;fill:#ef5145" height="494" width="2" y="18" x="86.75"/>
  <path id="rect4891" style="color:#000000;enable-background:accumulate;fill:#fad81f" d="m0 0.0000012h512v120h-512z"/>
  <path id="path4568" style="opacity:.4;color:#000000;enable-background:accumulate;fill:#fac82e" d="m8 126c-2.2091 0-4 1.7909-4 4s1.7909 4 4 4 4-1.7909 4-4-1.7909-4-4-4zm16 0c-2.2091 0-4 1.7909-4 4s1.7909 4 4 4 4-1.7909 4-4-1.7909-4-4-4zm16 0c-2.2091 0-4 1.7909-4 4s1.7909 4 4 4 4-1.7909 4-4-1.7909-4-4-4zm16 0c-2.2091 0-4 1.7909-4 4s1.7909 4 4 4 4-1.7909 4-4-1.7909-4-4-4zm16 0c-2.2091 0-4 1.7909-4 4s1.7909 4 4 4 4-1.7909 4-4-1.7909-4-4-4zm16 0c-2.2091 0-4 1.7909-4 4s1.7909 4 4 4 4-1.7909 4-4-1.7909-4-4-4zm16 0c-2.2091 0-4 1.7909-4 4s1.7909 4 4 4 4-1.7909 4-4-1.7909-4-4-4zm16 0c-2.2091 0-4 1.7909-4 4s1.7909 4 4 4 4-1.7909 4-4-1.7909-4-4-4zm16 0c-2.2091 0-4 1.7909-4 4s1.7909 4 4 4 4-1.7909 4-4-1.7909-4-4-4zm16 0c-2.2091 0-4 1.7909-4 4s1.7909 4 4 4 4-1.7909 4-4-1.7909-4-4-4zm16 0c-2.2091 0-4 1.7909-4 4s1.7909 4 4 4 4-1.7909 4-4-1.7909-4-4-4zm16 0c-2.2091 0-4 1.7909-4 4s1.7909 4 4 4 4-1.7909 4-4-1.7909-4-4-4zm16 0c-2.2091 0-4 1.7909-4 4s1.7909 4 4 4 4-1.7909 4-4-1.7909-4-4-4zm16 0c-2.2091 0-4 1.7909-4 4s1.7909 4 4 4 4-1.7909 4-4-1.7909-4-4-4zm16 0c-2.2091 0-4 1.7909-4 4s1.7909 4 4 4 4-1.7909 4-4-1.7909-4-4-4zm16 0c-2.2091 0-4 1.7909-4 4s1.7909 4 4 4 4-1.7909 4-4-1.7909-4-4-4zm16 0c-2.2091 0-4 1.7909-4 4s1.7909 4 4 4 4-1.7909 4-4-1.7909-4-4-4zm16 0c-2.2091 0-4 1.7909-4 4s1.7909 4 4 4 4-1.7909 4-4-1.7909-4-4-4zm16 0c-2.2091 0-4 1.7909-4 4s1.7909 4 4 4 4-1.7909 4-4-1.7909-4-4-4zm16 0c-2.2091 0-4 1.7909-4 4s1.7909 4 4 4 4-1.7909 4-4-1.7909-4-4-4zm16 0c-2.2091 0-4 1.7909-4 4s1.7909 4 4 4 4-1.7909 4-4-1.7909-4-4-4zm16 0c-2.2091 0-4 1.7909-4 4s1.7909 4 4 4 4-1.7909 4-4-1.7909-4-4-4zm16 0c-2.2091 0-4 1.7909-4 4s1.7909 4 4 4 4-1.7909 4-4-1.7909-4-4-4zm16 0c-2.2091 0-4 1.7909-4 4s1.7909 4 4 4 4-1.7909 4-4-1.7909-4-4-4zm16 0c-2.2091 0-4 1.7909-4 4s1.7909 4 4 4 4-1.7909 4-4-1.7909-4-4-4zm16 0c-2.2091 0-4 1.7909-4 4s1.7909 4 4 4 4-1.7909 4-4-1.7909-4-4-4zm16 0c-2.2091 0-4 1.7909-4 4s1.7909 4 4 4 4-1.7909 4-4-1.7909-4-4-4zm16 0c-2.2091 0-4 1.7909-4 4s1.7909 4 4 4 4-1.7909 4-4-1.7909-4-4-4zm16 0c-2.2091 0-4 1.7909-4 4s1.7909 4 4 4 4-1.7909 4-4-1.7909-4-4-4zm16 0c-2.2091 0-4 1.7909-4 4s1.7909 4 4 4 4-1.7909 4-4-1.7909-4-4-4zm16 0c-2.2091 0-4 1.7909-4 4s1.7909 4 4 4 4-1.7909 4-4-1.7909-4-4-4zm16 0c-2.2091 0-4 1.7909-4 4s1.7909 4 4 4 4-1.7909 4-4-1.7909-4-4-4z"/>
  <path id="path4460" d="m0 183v2h512.4v-2z" style="opacity:.1;color:#000000;fill-opacity:.99608;enable-background:accumulate;fill:#5c81df"/>
  <path id="path4462" d="m0 423v2h512.4v-2z" style="opacity:.1;color:#000000;fill-opacity:.99608;enable-background:accumulate;fill:#5c81df"/>
  <path id="path4228" d="m0 327v2h512.4v-2z" style="opacity:.1;color:#000000;fill-opacity:.99608;enable-background:accumulate;fill:#5c81df"/>
  <path id="rect4464" style="color:#000000;enable-background:accumulate;fill:#4969ba" d="m120 176v16h272v-16zm0 48v16h272v-16zm0 48v16h272v-16zm0 48v16h136.18v-16z"/>
  <path id="path4299-4" style="opacity:.3;color:#000000;enable-background:accumulate;fill:#fff" d="m512 315-199.82 197h199.82z"/>
 </g>
 <g id="layer4">
  <path id="path4505-6" d="m219.31 124-35.188 71.656v59.25c-4.9399 5.788-10.339 11.62-15.969 17.25-18.503 18.503-39.248 34.687-53.125 39.312l-23.374-23.35-71.656 35.19v170.69h256v-317.56c-15.42-33.45-32.37-45.92-56.69-52.44zm-97.56 229c0.007-0.005 0.0239 0.005 0.0312 0-2.6107 1.6304-5.251 3.2267-7.9062 4.8125 2.6559-1.5856 5.2637-3.1824 7.875-4.8125zm-24.094 14.062c0.008-0.004 0.0234 0.004 0.0312 0-2.7418 1.4991-5.5286 2.9806-8.3125 4.4375 2.7843-1.4568 5.5391-2.9386 8.2813-4.4375z" style="opacity:.05;fill-opacity:0;color:#000000;enable-background:accumulate"/>
 </g>
</svg>
