<?xml version="1.0" encoding="UTF-8" standalone="no"?>
<!-- Created with Inkscape (http://www.inkscape.org/) -->
<svg id="svg3336" xmlns:rdf="http://www.w3.org/1999/02/22-rdf-syntax-ns#" style="enable-background:new" xmlns="http://www.w3.org/2000/svg" height="512" width="512" version="1.1" xmlns:cc="http://creativecommons.org/ns#" xmlns:xlink="http://www.w3.org/1999/xlink" viewBox="0 0 512 512" xmlns:dc="http://purl.org/dc/elements/1.1/">
 <defs id="defs3338">
  <linearGradient id="linearGradient4209" y2="491" gradientUnits="userSpaceOnUse" x2="343.25" y1="17.25" x1="167.5">
   <stop id="stop4205" style="stop-color:#f34f17" offset="0"/>
   <stop id="stop4207" style="stop-color:#fb7c38" offset="1"/>
  </linearGradient>
  <linearGradient id="linearGradient4343">
   <stop id="stop4345" style="stop-color:#f37e40" offset="0"/>
   <stop id="stop4347" style="stop-color:#f37e40;stop-opacity:0" offset="1"/>
  </linearGradient>
  <linearGradient id="linearGradient3318" y2="513.88" xlink:href="#linearGradient4343" gradientUnits="userSpaceOnUse" x2="62.126" gradientTransform="matrix(3.4 0 0 3.4 124.77 -1507.2)" y1="490.35" x1="52.715"/>
  <linearGradient id="linearGradient3416" y2="385.95" xlink:href="#linearGradient4343" gradientUnits="userSpaceOnUse" x2="202.35" y1="352" x1="202.35"/>
  <filter id="filter3437" style="color-interpolation-filters:sRGB" height="1.024" width="1.024" y="-.012001" x="-.011999">
   <feGaussianBlur id="feGaussianBlur3439" stdDeviation="1.3601466"/>
  </filter>
  <filter id="filter3443" style="color-interpolation-filters:sRGB" height="1.192" width="1.192" y="-.096010" x="-.095990">
   <feGaussianBlur id="feGaussianBlur3445" stdDeviation="10.881172"/>
  </filter>
  <linearGradient id="linearGradient3461" y2="392.81" spreadMethod="reflect" gradientUnits="userSpaceOnUse" x2="395.41" y1="332" x1="233.57">
   <stop id="stop3457" style="stop-color:#b83a0e" offset="0"/>
   <stop id="stop3459" style="stop-color:#b83a0e;stop-opacity:0" offset="1"/>
  </linearGradient>
 </defs>
 <metadata id="metadata3341">
  <rdf:RDF>
   <cc:Work rdf:about="">
    <dc:format>image/svg+xml</dc:format>
    <dc:type rdf:resource="http://purl.org/dc/dcmitype/StillImage"/>
    <dc:title/>
   </cc:Work>
  </rdf:RDF>
 </metadata>
 <g id="layer3">
  <path id="rect4158" style="color:#000000;enable-background:accumulate;fill:url(#linearGradient4209)" d="m0 0v183.9 144.2 183.9h512v-183.9-144.2-183.9h-512z"/>
  <path id="path3487" style="opacity:.1;color:#000000;enable-background:accumulate;fill:#fff" d="m308.24 0l-215.5 512h419.26v-183.9-144.2-183.9h-203.76z"/>
 </g>
 <g id="layer1" transform="translate(-32,-32)">
  <path id="path3441" d="m271.09 154c-28.539 60.415-52.737 114.51-72.414 160h-22.895c-19.344 0-22.971-0.00097-23.65 10.727-0.15685 2.4756-0.15624 5.5234-0.15625 9.2734-0.00002 20-0.002 20 23.807 20h5.8027c-12.42 29.44-22.349 53.821-29.609 72h41.967c7.8246-19.678 17.682-44.114 29.176-72h156.96c11.238 28.011 20.71 52.534 28.062 72h15.895c-7.1827-19.109-16.622-43.673-27.939-72h4.0742c23.808 0 23.807 0.00005 23.807-20 0.00002-20 0.002-20-23.807-20h-20.311c-19.692-47.746-43.498-102.78-70.484-159.95 0.007-0.017 0.0147-0.0309 0.0215-0.0469h-38.305zm30.277 17.857c23.56 50.52 44.59 99.14 62.4 142.14h-124.02c17.73-42.233 38.438-90.368 61.613-142.14z" style="color-rendering:auto;text-decoration-color:#000000;color:#000000;shape-rendering:auto;solid-color:#000000;text-decoration-line:none;fill:url(#linearGradient3461);mix-blend-mode:normal;block-progression:tb;opacity:.6;text-indent:0;image-rendering:auto;white-space:normal;text-decoration-style:solid;isolation:auto;filter:url(#filter3443);enable-background:accumulate;text-transform:none"/>
  <path id="path3421" style="color-rendering:auto;text-decoration-color:#000000;color:#000000;shape-rendering:auto;solid-color:#000000;text-decoration-line:none;mix-blend-mode:normal;block-progression:tb;opacity:.1;text-indent:0;image-rendering:auto;white-space:normal;text-decoration-style:solid;isolation:auto;filter:url(#filter3437);enable-background:accumulate;text-transform:none" d="m271.09 154c-28.539 60.415-52.737 114.51-72.414 160h-22.895c-19.344 0-22.971-0.00097-23.65 10.727-0.15685 2.4756-0.15624 5.5234-0.15625 9.2734-0.00002 20-0.002 20 23.807 20h5.8027c-12.42 29.44-22.349 53.821-29.609 72h41.967c7.8246-19.678 17.682-44.114 29.176-72h156.96c11.238 28.011 20.71 52.534 28.062 72h15.895c-7.1827-19.109-16.622-43.673-27.939-72h4.0742c23.808 0 23.807 0.00005 23.807-20 0.00002-20 0.002-20-23.807-20h-20.311c-19.692-47.746-43.498-102.78-70.484-159.95 0.007-0.017 0.0147-0.0309 0.0215-0.0469h-38.305zm30.277 17.857c23.56 50.52 44.59 99.14 62.4 142.14h-124.02c17.73-42.233 38.438-90.368 61.613-142.14z"/>
  <g id="g3299" style="fill:#fff5e9" transform="matrix(3.4 0 0 3.4 124.77 -1507.2)">
   <path id="path4177" d="m43.034 488c-17.217 36.45-29.106 65.16-35.034 80h12.343c6.482-16.301 17.507-43.273 31.596-74.748 14.176 30.387 25.258 58.479 31.403 74.748h4.6752c-6.2597-16.654-18.224-47.148-33.724-79.986 0.002-0.005 0.004-0.009 0.006-0.0137z" style="color-rendering:auto;text-decoration-color:#000000;color:#000000;shape-rendering:auto;solid-color:#000000;text-decoration-line:none;fill:#fff5e9;mix-blend-mode:normal;block-progression:tb;text-indent:0;image-rendering:auto;white-space:normal;text-decoration-style:solid;isolation:auto;enable-background:accumulate;text-transform:none"/>
   <path id="path3297" style="color:#000000;enable-background:accumulate;fill:#fff5e9" d="m15.002 535.06c-7.0024 0-7.0019 0-7.002 5.8824-0.000004 5.8824-0.0004669 5.8824 7.002 5.8824h65.996c7.0024 0 7.0019 0.00001 7.002-5.8824 0.000004-5.8824 0.000457-5.8824-7.002-5.8824z"/>
   <path id="rect4188" style="color:#000000;enable-background:accumulate;fill:#fff5e9" d="m15 538.42h34c3 0 3 0 3 2.521-0.000004 2.521 0.000004 2.521-3 2.521h-34c-3 0-3 0-3-2.521-0.000004-2.521 0.000004-2.521 3-2.521z"/>
  </g>
  <path id="path3306" d="m301.36 169.86c48.2 103.31 85.88 198.83 106.77 254.14h15.896c-21.28-56.62-61.96-160.3-114.66-271.95l0.0204-0.0466z" style="color-rendering:auto;text-decoration-color:#000000;color:#000000;shape-rendering:auto;solid-color:#000000;text-decoration-line:none;fill:url(#linearGradient3318);mix-blend-mode:normal;block-progression:tb;opacity:.2;text-indent:0;image-rendering:auto;white-space:normal;text-decoration-style:solid;isolation:auto;enable-background:accumulate;text-transform:none"/>
  <path id="path3308" style="color:#000000;enable-background:accumulate;fill:#fffbf5" d="m175.78 312c-23.808 0-23.807 0-23.807 20-0.00002 20-0.002 20 23.807 20h224.39c23.808 0 23.807 0.00004 23.807-20-0.01-20-0.01-20-23.82-20z"/>
  <path id="path3323" style="color:#000000;fill-opacity:.38060;enable-background:accumulate;fill:#fec589" d="m284.77 323.43h115.6c10.2 0 10.2 0 10.2 8.5714-0.00001 8.5715 0.00002 8.5714-10.2 8.5714h-115.6c-10.2 0-10.2 0-10.2-8.5714-0.00001-8.5714 0.00001-8.5714 10.2-8.5714z"/>
  <path id="path3310" style="color:#000000;enable-background:accumulate;fill:#f34f17" d="m175.77 323.43h115.6c10.2 0 10.2 0 10.2 8.5714-0.00001 8.5715 0.00002 8.5714-10.2 8.5714h-115.6c-10.2 0-10.2 0-10.2-8.5714-0.00001-8.5714 0.00001-8.5714 10.2-8.5714z"/>
  <path id="path3325" style="color:#000000;enable-background:accumulate;fill:#fff" d="m175.78 312c-23.808 0-23.807 0.00001-23.807 20 0 0.38684 0.008 0.64947 0.008 1.0215 0.01-18.91 0.43-19.02 23.8-19.02h224.39c23.357 0 23.791 0.11473 23.799 19 0.00016-0.3645 0.008-0.6213 0.008-1 0.00002-20 0.002-20-23.807-20h-224.39z"/>
  <path id="path3406" style="color-rendering:auto;text-decoration-color:#000000;color:#000000;shape-rendering:auto;solid-color:#000000;text-decoration-line:none;fill:url(#linearGradient3416);mix-blend-mode:normal;block-progression:tb;opacity:.25;text-indent:0;image-rendering:auto;white-space:normal;text-decoration-style:solid;isolation:auto;enable-background:accumulate;text-transform:none" d="m181.58 352c-12.42 29.44-22.349 53.821-29.609 72h41.967c7.8246-19.678 17.682-44.114 29.176-72h-41.533zm198.49 0c11.238 28.011 20.71 52.534 28.062 72h15.895c-7.1827-19.109-16.622-43.673-27.939-72h-16.018z"/>
 </g>
</svg>
