<?xml version="1.0" encoding="UTF-8" standalone="no"?>
<!-- Created with Inkscape (http://www.inkscape.org/) -->
<svg id="svg3336" xmlns:rdf="http://www.w3.org/1999/02/22-rdf-syntax-ns#" style="enable-background:new" xmlns="http://www.w3.org/2000/svg" height="512" viewBox="0 0 512 512" width="512" version="1.1" xmlns:cc="http://creativecommons.org/ns#" xmlns:xlink="http://www.w3.org/1999/xlink" xmlns:dc="http://purl.org/dc/elements/1.1/">
 <defs id="defs3338">
  <linearGradient id="linearGradient4428" y2="20" gradientUnits="userSpaceOnUse" x2="243.09" gradientTransform="matrix(1.375 0 0 1 -708 .0000052452)" y1="399.04" x1="243.09">
   <stop id="stop4344" style="stop-color:#0b3495" offset="0"/>
   <stop id="stop4347" style="stop-color:#0b3495;stop-opacity:0" offset="1"/>
  </linearGradient>
  <linearGradient id="linearGradient4424" y2="20" gradientUnits="userSpaceOnUse" x2="192" gradientTransform="matrix(1.0714 0 0 1 -530.29 .0000052452)" y1="400" x1="192">
   <stop id="stop4306" style="stop-color:#0b3495" offset="0"/>
   <stop id="stop4308" style="stop-color:#0b3495;stop-opacity:.084577" offset="1"/>
  </linearGradient>
  <linearGradient id="linearGradient4277" y2="258" spreadMethod="reflect" gradientUnits="userSpaceOnUse" x2="256" gradientTransform="translate(5e-6,5.2452087e-6)" y1="258" x1="112">
   <stop id="stop4348" style="stop-color:#1d3095;stop-opacity:0" offset="0"/>
   <stop id="stop4346" style="stop-color:#1d3095" offset="1"/>
  </linearGradient>
  <filter id="filter4279" style="color-interpolation-filters:sRGB" height="1.192" width="1.192" y="-0.096" x="-0.096">
   <feGaussianBlur id="feGaussianBlur4281" stdDeviation="11.52"/>
  </filter>
  <filter id="filter4265" style="color-interpolation-filters:sRGB" height="1.024" width="1.024" y="-.012" x="-.012">
   <feGaussianBlur id="feGaussianBlur4267" stdDeviation="1.44"/>
  </filter>
  <filter id="filter3317" style="color-interpolation-filters:sRGB" height="1.136" width="1.3264" y="-0.068" x="-.16320">
   <feGaussianBlur id="feGaussianBlur3319" stdDeviation="8.1599999"/>
  </filter>
  <clipPath id="clipPath3324" clipPathUnits="userSpaceOnUse">
   <path id="path3326" style="color:#000000;enable-background:accumulate;fill:#6b8fea" d="m-376 400a144 144 0 0 1 -124.71 -72 144 144 0 0 1 0 -144 144 144 0 0 1 124.71 -72" transform="scale(-1,1)"/>
  </clipPath>
  <filter id="filter3375" style="color-interpolation-filters:sRGB" height="1.1253" width="1.4102" y="-.062667" x="-.20509">
   <feGaussianBlur id="feGaussianBlur3377" stdDeviation="7.52"/>
  </filter>
  <clipPath id="clipPath3382" clipPathUnits="userSpaceOnUse">
   <path id="path3384" style="color:#000000;enable-background:accumulate;fill:#6b8fea" transform="scale(-1,1)" d="m-356 400a144 144 0 0 1 -124.71 -72 144 144 0 0 1 0 -144 144 144 0 0 1 124.71 -72"/>
  </clipPath>
  <linearGradient id="linearGradient4201-3" y2="496" gradientUnits="userSpaceOnUse" x2="302.75" y1="15.872" x1="217.83">
   <stop id="stop4197-7" style="stop-color:#193fbe" offset="0"/>
   <stop id="stop3316" style="stop-color:#1b6de8" offset=".49550"/>
   <stop id="stop4199-5" style="stop-color:#4195ff" offset="1"/>
  </linearGradient>
  <linearGradient id="linearGradient3327" y2="381.13" gradientUnits="userSpaceOnUse" x2="-101.95" gradientTransform="matrix(1.0498 0 0 1.0498 -46.943 -45.743)" y1="382.2" x1="444.33">
   <stop id="stop3328" style="stop-color:#67d3f7" offset="0"/>
   <stop id="stop3330" style="stop-color:#67d3f7;stop-opacity:0" offset="1"/>
  </linearGradient>
 </defs>
 <metadata id="metadata3341">
  <rdf:RDF>
   <cc:Work rdf:about="">
    <dc:format>image/svg+xml</dc:format>
    <dc:type rdf:resource="http://purl.org/dc/dcmitype/StillImage"/>
    <dc:title/>
   </cc:Work>
  </rdf:RDF>
 </metadata>
 <g id="layer3">
  <path id="rect4158-3" style="color:#000000;enable-background:accumulate;fill:url(#linearGradient4201-3)" d="m0 0v183.9 144.2 183.9h512v-183.9-144.2-183.9h-512z"/>
  <path id="path4252-3" style="color:#000000;enable-background:accumulate;fill:url(#linearGradient3327)" d="m258.55 105.44c-48.07-0.51-92.85 22.77-123.34 60.55l-135.21 167.48v178.53h241.45l134.14-164.79c50.65-66.83 37.89-161.57-28.5-211.62-24.22-18.26-53.45-28.72-83.88-30.02-1.55-0.07-3.11-0.11-4.66-0.13z"/>
  <path id="rect4345" style="opacity:0.08;color:#000000;enable-background:accumulate;fill:#fff" d="m256 0v512h256v-183.9-144.2-183.9h-256z"/>
 </g>
 <g id="layer4">
  <circle id="circle4258" style="opacity:.1;color:#000000;filter:url(#filter4265);enable-background:accumulate" transform="matrix(1.0498 0 0 1.0498 -12.749 -12.749)" cy="258" cx="256" r="144"/>
  <path id="path4353" style="color-rendering:auto;text-decoration-color:#000000;color:#000000;shape-rendering:auto;solid-color:#000000;text-decoration-line:none;fill:#70c6f7;mix-blend-mode:normal;opacity:.15;text-indent:0;image-rendering:auto;white-space:normal;text-decoration-style:solid;isolation:auto;enable-background:accumulate;text-transform:none" d="m175.84 127.92a151.17 151.17 0 0 0 -6.1717 4.1992h172.86a151.17 151.17 0 0 0 -6.5694 -4.1992zm-44.053 41.992a151.17 151.17 0 0 0 -2.6819 4.1992h253.96a151.17 151.17 0 0 0 -3.0038 -4.1992zm-20.354 41.992a151.17 151.17 0 0 0 -1.0703 4.1992h291.42a151.17 151.17 0 0 0 -1.3369 -4.1992zm-6.4977 41.992a151.17 151.17 0 0 0 -0.10455 2.0996 151.17 151.17 0 0 0 0.0738 2.0996h302.16a151.17 151.17 0 0 0 0.10456 -2.0996 151.17 151.17 0 0 0 -0.0738 -2.0996zm5.2818 41.992a151.17 151.17 0 0 0 1.3369 4.1992h289.02a151.17 151.17 0 0 0 1.0703 -4.1992zm18.726 41.992a151.17 151.17 0 0 0 3.0038 4.1992h248.27a151.17 151.17 0 0 0 2.6819 -4.1992zm40.53 41.992a151.17 151.17 0 0 0 6.5694 4.1992h160.12a151.17 151.17 0 0 0 6.1717 -4.1992z"/>
  <circle id="circle4269" style="opacity:.6;color:#000000;filter:url(#filter4279);enable-background:accumulate;fill:url(#linearGradient4277)" transform="matrix(-1.0498 0 0 -1.0498 524.75 528.95)" cy="258" cx="256" r="144"/>
  <circle id="path4252" cx="256" style="color:#000000;enable-background:accumulate;fill:#3fc1ff" r="151.17" cy="256"/>
  <path id="circle4373" style="color:#000000;enable-background:accumulate;fill:#f2fafe" d="m256 104.83a151.17 151.17 0 0 0 -151.17 151.17 151.17 151.17 0 0 0 151.17 151.17v-302.34z"/>
  <g id="g3321" clip-path="url(#clipPath3324)" transform="matrix(1.0498 0 0 1.0498 -138.73 -12.749)">
   <path id="path4410" style="opacity:.4;color:#000000;filter:url(#filter3317);enable-background:accumulate;fill:url(#linearGradient4424)" transform="matrix(-1,0,0,1,120,0)" d="m-256 402a120 144 0 0 1 -103.92 -72 120 144 0 0 1 0 -144 120 144 0 0 1 103.92 -72"/>
  </g>
  <path id="path4412" style="color:#000000;enable-background:accumulate;fill:#88e0ff" d="m-256 407.17a125.98 151.17 0 0 1 -109.1 -75.586 125.98 151.17 0 0 1 -0.00001 -151.17 125.98 151.17 0 0 1 109.1 -75.58" transform="scale(-1,1)"/>
  <path id="path3397" style="opacity:.3;color:#000000;enable-background:accumulate;fill:#fff" d="m256 104.83v2.0996a125.98 151.17 0 0 1 109.1 75.58 125.98 151.17 0 0 1 16.81 77.61 125.98 151.17 0 0 0 -16.81 -79.71 125.98 151.17 0 0 0 -109.1 -75.58z"/>
  <g id="g3379" clip-path="url(#clipPath3382)" transform="matrix(1.0498 0 0 1.0498 -117.73 -12.749)">
   <path id="path4416" style="opacity:.4;color:#000000;filter:url(#filter3375);enable-background:accumulate;fill:url(#linearGradient4428)" transform="scale(-1,1)" d="m-356 402a88 144 0 0 1 -76.21 -72 88 144 0 0 1 0 -144 88 144 0 0 1 76.21 -72"/>
  </g>
  <path id="path4418" style="color:#000000;enable-background:accumulate;fill:#fff" transform="scale(-1,1)" d="m-256 407.17a92.383 151.17 0 0 1 -80.006 -75.586 92.383 151.17 0 0 1 0 -151.17 92.383 151.17 0 0 1 80.01 -75.58"/>
  <path id="path4427" style="opacity:.35;color:#000000;enable-background:accumulate;fill:#4bcbf6" d="m256 104.83a151.17 151.17 0 0 0 -22.302 1.8453l-23.044 16.212 39.829-6.8545 5.5176 2.6983v-13.902zm-46.977 23.282-33.192 1.7552 1.1995 15.546-40.153 33.296-16.323 48.316 11.427 46.681 34.602 43.743-13.709-44.071-11.427-14.689 20.891-4.8964 5.2224 19.913 8.1626-19.587 38.521-18.281 0.97803-10.121 15.019-2.6102-10.775-29.38-16.647 8.8146-8.8146-9.7947 13.385-12.077 23.83 7.1805-2.6122-36.235-21.872-7.8346 2.2862-15.669zm46.98 27.72l-19.231 3.297 15.343 48.968 3.8875-4.4863v-47.778zm-82.885 155.42-17.629 23.83 10.447 23.506 18.933 13.709 2.6409 18.47a151.17 151.17 0 0 0 30.783 11.515l35.784-11.378 1.9274-3.4877v-29.384l-25.431-17.4-20.239-2.2841-9.7947-15.343-27.42-11.753z"/>
  <path id="path4427-6" style="opacity:.25;color:#000000;enable-background:accumulate;fill:#4bcbf6" d="m256 104.68v0.14763 13.902l14.476 11.665 17.627 6.2045 4.7533 22.524-10.101 2.9382 3.3675 25.136 9.9035 9.1406-4.1599 28.726 4.9524 9.4667-6.1404 3.2663 4.3577 16.647 8.3174-7.5065 2.3773-22.526 12.278 3.2642 4.5568-6.5284-1.7826-10.119-6.3369-9.1427 11.289-11.425-2.7741 20.568 7.724 9.4646-7.1294 19.913-7.3284 2.9382-2.5751-4.2443-16.24 20.894-5.3479 22.852-0.99023 30.684 11.289 16.323 13.469-7.1825 10.497-5.5484 1.7826 19.259-2.855 19.067c14.561-27.534 22.593-62.816 22.616-99.342-0.0355-3.2454-0.13416-6.488-0.29608-9.723l-15.108-23.278 14.138 9.0874c-7.13-73.39-45.51-127.42-90.61-127.51zm9.1285 48.566-9.1285 2.5794v47.778l10.516-19.997zm16.242 40.807 1.3858 24.156 7.923 1.6321 1.5836-11.101-0.19779-1.3041zm-25.37 163.97v29.384l7.1493-21.322z"/>
  <path id="circle4283" style="opacity:.3;color:#000000;enable-background:accumulate;fill:#fff" d="m256 104.83a151.17 151.17 0 0 0 -151.17 151.17 151.17 151.17 0 0 0 0.043 1.2282 151.17 151.17 0 0 1 151.13 -150.3 151.17 151.17 0 0 1 151.13 149.94 151.17 151.17 0 0 0 0.043 -0.87142 151.17 151.17 0 0 0 -151.17 -151.17z"/>
  <path id="path3392" style="opacity:.6;color:#000000;enable-background:accumulate;fill:#fff" d="m256 104.83v2.0996a92.383 151.17 0 0 1 80.006 75.586 92.383 151.17 0 0 1 12.325 77.605 92.383 151.17 0 0 0 -12.32 -79.71 92.383 151.17 0 0 0 -80.01 -75.58z"/>
 </g>
</svg>
