<?xml version="1.0" encoding="UTF-8" standalone="no"?>
<svg xmlns="http://www.w3.org/2000/svg" height="512" width="512" version="1.1" viewBox="0 0 512 512">
 <path style="fill:#dd4814" d="m433.1 256c0 97.8-79.3 177.1-177.1 177.1s-177.1-79.3-177.1-177.1c-0.03-97.8 79.3-177.1 177.1-177.1 97.8-0.03 177.1 79.3 177.1 177.1z"/>
 <path style="stroke-linejoin:round;stroke:#f5f5f5;stroke-width:7.2;fill:none" d="m171.6 228.7h130.1s6.946 0.8756 6.946 12.03-5.135 11.88-5.135 11.88h-47.8s-8.332 0.3619-8.332 11.96c0 11.59 8.695 18.48 17.03 17.03 8.332-1.449 68.11-19.2 68.11-19.2s11.29-4.234 14.85 3.985c5.072 11.23 0.7254 17.39 0.7254 17.39l-83.32 37.31s-6.883 2.536-15.58 2.174c-8.695-0.3619-72.6-32.02-78.76-36.37-6.159-4.347-7.313-19.72-7.718-28.11-0.2803-5.812-3.006-24.63 8.949-30.07z"/>
</svg>
