<?xml version="1.0" encoding="UTF-8" standalone="no"?>
<svg xmlns="http://www.w3.org/2000/svg" height="512" width="512" version="1.1" viewBox="0 0 512 512">
 <path style="fill:#dd4814" d="m433.1 256c0 97.8-79.3 177.1-177.1 177.1s-177.1-79.3-177.1-177.1c-0.03-97.8 79.3-177.1 177.1-177.1 97.8-0.03 177.1 79.3 177.1 177.1z"/>
<g style="fill:#f5f5f5">
 <path d="m197.2 204.1c-3.457 0-6.752 0.6576-9.775 1.986-2.998 1.261-5.65 3.116-7.852 5.5l-0.0153 0.0188-0.0154 0.0188c-2.152 2.402-3.808 5.281-4.972 8.549l-0.003 0.007c-1.179 3.26-1.747 6.823-1.747 10.64 0 3.876 0.5665 7.471 1.753 10.74 1.165 3.213 2.823 6.06 4.968 8.451l0.0154 0.0188 0.0154 0.0156c1.062 1.15 2.231 2.176 3.488 3.085-0.9889 0.2956-1.959 0.617-2.895 0.9856-4.84 1.906-8.933 4.552-12.15 7.95l-0.0153 0.0156-0.0154 0.0156c-3.169 3.438-5.553 7.503-7.118 12.09l-0.009 0.0281-0.0123 0.0281c-1.452 4.539-2.167 9.407-2.167 14.57v9.521l1.182 0.9456s3.407 2.686 9.636 5.177c6.229 2.492 15.48 4.94 27.69 4.94 3.069 0 5.951-0.1554 8.647-0.4268v-6.332c-2.669 0.2913-5.538 0.4727-8.647 0.4727-11.37 0-19.79-2.265-25.35-4.489-3.867-1.547-5.775-2.726-6.864-3.466v-6.375c0-4.574 0.6276-8.769 1.857-12.63 1.301-3.801 3.213-7.036 5.766-9.807 2.515-2.65 5.763-4.793 9.881-6.416 4.029-1.587 8.925-2.428 14.71-2.428h0.0184c3.447 0 6.726-0.6207 9.742-1.885l0.0275-0.009 0.0275-0.0125c2.992-1.32 5.612-3.21 7.762-5.61 2.202-2.391 3.895-5.244 5.062-8.459 1.187-3.269 1.756-6.864 1.756-10.74 0-3.82-0.5716-7.387-1.753-10.65-1.165-3.272-2.855-6.157-5.066-8.557-2.153-2.4-4.787-4.265-7.787-5.528-3.021-1.329-6.317-1.986-9.775-1.986zm0 6.285c2.682 0 5.066 0.4936 7.262 1.461l0.0275 0.0125 0.0248 0.009c2.203 0.9227 4.023 2.219 5.575 3.952l0.0185 0.0188 0.0153 0.0188c1.606 1.738 2.865 3.845 3.786 6.432l0.003 0.009 0.003 0.009c0.9047 2.494 1.379 5.316 1.379 8.516 0 3.263-0.4758 6.113-1.379 8.598-0.917 2.527-2.176 4.618-3.792 6.367l-0.0154 0.0188-0.0184 0.0156c-1.554 1.734-3.388 3.06-5.6 4.039-2.199 0.917-4.596 1.39-7.286 1.39h-0.0153c-2.686-0.002-5.078-0.4746-7.271-1.391-2.21-0.9791-4.08-2.312-5.694-4.055-1.564-1.75-2.809-3.845-3.729-6.385-0.9023-2.487-1.379-5.338-1.379-8.598 0-3.2 0.4737-6.023 1.379-8.516l0.003-0.009 0.003-0.009c0.9227-2.593 2.168-4.708 3.719-6.448 1.614-1.742 3.469-3.05 5.672-3.974l0.0275-0.009 0.0248-0.0125c2.194-0.9677 4.577-1.461 7.262-1.461z"/>
 <path d="m255.8 199.4c-3.738 0-7.286 0.7033-10.54 2.118-3.241 1.345-6.107 3.32-8.492 5.869l-0.0154 0.0188-0.0153 0.0188c-2.324 2.562-4.117 5.641-5.378 9.137-1.283 3.495-1.906 7.321-1.906 11.43 0 4.164 0.6197 8.025 1.906 11.52 1.265 3.445 3.059 6.488 5.378 9.047l0.0153 0.0156 0.0154 0.0188c1.319 1.41 2.798 2.635 4.39 3.701-1.077 0.3232-2.133 0.6755-3.151 1.08-5.14 2.049-9.48 4.89-12.89 8.532l-0.0153 0.0157-0.0154 0.0156c-3.36 3.685-5.882 8.04-7.539 12.95l-0.009 0.0281-0.0123 0.0281c-1.539 4.868-2.296 10.1-2.296 15.64v10.3l1.164 0.9423s3.604 2.878 10.22 5.559c6.623 2.682 16.48 5.319 29.47 5.319 13 0 22.84-2.638 29.47-5.319 6.623-2.681 10.22-5.559 10.22-5.559l1.166-0.9423h0.002v-10.15c0-5.556-0.8125-10.8-2.453-15.67-1.568-4.946-4.108-9.325-7.58-13.02-1.941-2.072-4.195-3.876-6.717-5.431-1.627 1.568-3.41 2.978-5.312 4.193 2.956 1.531 5.419 3.375 7.44 5.535v0.002h0.002c2.834 3.016 4.874 6.52 6.175 10.64l0.009 0.0313 0.009 0.0281c1.412 4.189 2.131 8.737 2.131 13.7v6.993c-1.114 0.7774-3.182 2.1-7.465 3.836-5.951 2.408-14.96 4.855-27.11 4.855-12.14 0-21.17-2.449-27.11-4.855-4.286-1.735-6.351-3.057-7.465-3.836v-6.993c0-4.965 0.6733-9.521 1.995-13.72 1.399-4.139 3.457-7.668 6.204-10.69 2.708-2.887 6.204-5.215 10.62-6.974 4.258-1.697 9.407-2.603 15.47-2.631 3.729 0 7.267-0.6632 10.53-2.011l0.0275-0.0125 0.0275-0.0125c3.232-1.408 6.06-3.423 8.385-5.982 2.382-2.554 4.217-5.6 5.484-9.047 1.286-3.501 1.903-7.365 1.903-11.52 0-4.099-0.6182-7.919-1.897-11.41v-0.002c-1.265-3.51-3.1-6.598-5.49-9.162-2.331-2.566-5.177-4.552-8.418-5.901-3.26-1.413-6.808-2.115-10.54-2.115zm0 6.288c2.974 0 5.625 0.5369 8.066 1.599l0.0275 0.0125 0.0275 0.0125c2.449 1.013 4.477 2.436 6.197 4.333l0.0153 0.0156 0.0185 0.0188c1.782 1.904 3.173 4.211 4.186 7.027l0.007 0.0125 0.002 0.009c0.9987 2.719 1.519 5.785 1.519 9.26 0 3.541-0.5231 6.648-1.519 9.358-1.012 2.753-2.404 5.037-4.195 6.952l-0.0184 0.0156-0.0153 0.0188c-1.726 1.903-3.773 3.36-6.235 4.436-2.441 1.004-5.102 1.523-8.085 1.523-2.979 0-5.644-0.5181-8.085-1.523-2.462-1.076-4.549-2.538-6.345-4.455-1.733-1.914-3.105-4.205-4.12-6.967-0.9963-2.713-1.519-5.816-1.519-9.358 0-3.476 0.5206-6.542 1.519-9.26l0.007-0.009 0.003-0.0125c1.017-2.824 2.388-5.137 4.111-7.043 1.791-1.91 3.858-3.338 6.307-4.352l0.0275-0.0125 0.0275-0.0125c2.44-1.062 5.093-1.599 8.068-1.599z"/>
 <path d="m314.8 204.1c3.457 0 6.752 0.6576 9.775 1.986 2.998 1.261 5.65 3.116 7.852 5.5l0.0156 0.0188 0.0156 0.0188c2.152 2.402 3.808 5.281 4.972 8.549l0.002 0.007c1.179 3.26 1.747 6.823 1.747 10.64 0 3.876-0.5665 7.471-1.753 10.74-1.165 3.213-2.823 6.06-4.968 8.451l-0.0156 0.0188-0.0156 0.0156c-1.062 1.15-2.231 2.176-3.488 3.085 0.9889 0.2956 1.959 0.617 2.895 0.9856 4.84 1.906 8.933 4.552 12.15 7.95l0.0157 0.0156 0.0156 0.0156c3.169 3.438 5.553 7.503 7.118 12.09l0.009 0.0281 0.0125 0.0281c1.452 4.539 2.167 9.407 2.167 14.57v9.521l-1.182 0.9456s-3.407 2.686-9.636 5.177c-6.229 2.492-15.48 4.94-27.69 4.94-3.069 0-5.951-0.1554-8.647-0.4268v-6.332c2.669 0.2913 5.538 0.4727 8.647 0.4727 11.37 0 19.79-2.265 25.35-4.489 3.867-1.547 5.775-2.726 6.864-3.466v-6.375c0-4.574-0.6276-8.769-1.857-12.63-1.301-3.801-3.213-7.036-5.766-9.807-2.515-2.65-5.763-4.793-9.881-6.416-4.029-1.587-8.925-2.428-14.71-2.428h-0.0184c-3.447 0-6.726-0.6207-9.742-1.885l-0.0275-0.009-0.0275-0.0125c-2.992-1.32-5.612-3.21-7.762-5.61-2.202-2.391-3.895-5.244-5.062-8.459-1.187-3.269-1.756-6.864-1.756-10.74 0-3.82 0.5716-7.387 1.753-10.65 1.165-3.272 2.855-6.157 5.066-8.557 2.153-2.4 4.787-4.265 7.787-5.528 3.021-1.328 6.317-1.986 9.775-1.986zm0 6.285c-2.682 0-5.066 0.4936-7.262 1.461l-0.0275 0.0125-0.0248 0.009c-2.203 0.9227-4.023 2.219-5.575 3.952l-0.0185 0.0188-0.0153 0.0188c-1.606 1.738-2.865 3.845-3.786 6.432l-0.002 0.009-0.002 0.009c-0.9047 2.494-1.379 5.316-1.379 8.516 0 3.263 0.4758 6.113 1.379 8.598 0.917 2.527 2.176 4.618 3.792 6.367l0.0153 0.0188 0.0185 0.0156c1.554 1.734 3.388 3.06 5.6 4.039 2.199 0.917 4.596 1.39 7.286 1.39h0.0153c2.686-0.002 5.078-0.4746 7.271-1.391 2.21-0.9791 4.08-2.312 5.694-4.055 1.564-1.75 2.809-3.845 3.729-6.385 0.9023-2.487 1.379-5.338 1.379-8.598 0-3.2-0.4737-6.023-1.379-8.516l-0.002-0.009-0.002-0.009c-0.9227-2.593-2.168-4.708-3.719-6.448-1.614-1.742-3.469-3.05-5.672-3.974l-0.0275-0.009-0.0248-0.0125c-2.194-0.9677-4.577-1.461-7.262-1.461z"/></g>
</svg>
