<?xml version="1.0" encoding="UTF-8" standalone="no"?>
<svg xmlns="http://www.w3.org/2000/svg" height="512" width="512" version="1.1" viewBox="0 0 512 512">
 <path style="fill:#dd4814" d="m433.1 256c0 97.8-79.3 177.1-177.1 177.1s-177.1-79.3-177.1-177.1c-0.03-97.8 79.3-177.1 177.1-177.1 97.8-0.03 177.1 79.3 177.1 177.1z"/>
<g style="fill:#f5f5f5">
 <path d="m256 173.6c-45.44 0-82.36 36.92-82.36 82.36s36.92 82.36 82.36 82.36 82.36-36.92 82.36-82.36-36.92-82.36-82.36-82.36zm0 7.844c41.2 0 74.51 33.31 74.51 74.51s-33.31 74.52-74.51 74.52-74.52-33.32-74.52-74.52 33.32-74.51 74.52-74.51z"/>
 <path d="m250.1 214.8v21.41c0 6.293 0.183 12.12 0.5477 17.49 0.3648 5.295 0.8551 10.63 1.463 16h7.84c0.5472-5.372 1.003-10.71 1.367-16 0.3648-5.295 0.5477-11.12 0.5477-17.49v-21.41zm5.883 66.67c-2.157 0-4.019 0.7582-5.588 2.271-1.504 1.447-2.256 3.316-2.256 5.619 0 2.302 0.7523 4.179 2.256 5.626 1.569 1.447 3.431 2.172 5.588 2.172 2.223 0 4.084-0.7244 5.588-2.172 1.504-1.447 2.256-3.324 2.256-5.626s-0.7523-4.171-2.256-5.619c-1.503-1.513-3.365-2.271-5.588-2.271z"/></g>
</svg>
