<?xml version="1.0" encoding="UTF-8" standalone="no"?>
<svg xmlns="http://www.w3.org/2000/svg" height="512" width="512" version="1.1" viewBox="0 0 512 512">
 <path style="fill:#dd4814" d="m433.1 256c0 97.8-79.3 177.1-177.1 177.1s-177.1-79.3-177.1-177.1c-0.03-97.8 79.3-177.1 177.1-177.1 97.8-0.03 177.1 79.3 177.1 177.1z"/>
<g style="fill:#f5f5f5">
 <path d="m256 178.3c-7.151 0.00014-12.95 5.798-12.95 12.95 0.004 2.689 0.844 5.308 2.405 7.498-3.539 0.6063-6.807 1.52-9.789 2.781-5.744 2.429-10.46 5.725-14.13 9.889-3.676 4.28-6.429 9.315-8.267 15.1-1.723 5.784-2.588 12.03-2.588 18.74v34.46c0 3.813-0.3572 7.301-1.077 10.47-0.7193 3.165-1.98 5.861-3.778 8.091-1.726 2.302-4.065 4.067-7.015 5.29-2.875 1.262-6.483 1.889-10.79 1.918v0.02h136.1v-0.02c-4.328-0.0267-7.947-0.6544-10.83-1.922-2.962-1.228-5.312-2.998-7.046-5.31-1.806-2.24-3.07-4.957-3.792-8.136-0.7225-3.177-1.083-6.678-1.083-10.51v-34.35c0-6.709-0.9188-12.96-2.757-18.74-1.723-5.784-4.476-10.82-8.267-15.1-3.676-4.164-8.392-7.46-14.14-9.889-2.911-1.256-6.125-2.168-9.62-2.774 1.564-2.19 2.408-4.814 2.412-7.505-0.00014-7.151-5.798-12.95-12.95-12.95zm-2.919 26.71h2.954c3.225 0.00046 6.432 0.2197 9.275 0.6694l0.0141 0.004h0.0141c3.034 0.5268 5.706 1.301 8.026 2.302l0.0468 0.02 0.007 0.004c4.896 2.071 8.672 4.753 11.59 8.05l0.02 0.0267c3.09 3.489 5.336 7.558 6.79 12.44 0.02 0.0747 0.0401 0.1343 0.0334 0.1035l0.004 0.0141 0.004 0.007c1.6 5.034 2.426 10.54 2.426 16.61v34.35c0 4.275 0.4026 8.294 1.259 12.06v0.007l0.004 0.02c0.3238 1.419 0.8851 2.841 1.487 4.348l0.9696 2.422h-83.96l0.9626-2.419c0.5963-1.497 1.155-2.903 1.473-4.303 0.8557-3.764 1.253-7.771 1.253-12.02v-34.46c0-6.075 0.7812-11.6 2.277-16.65l0.004-0.02 0.0141-0.02c1.57-4.908 3.838-9.021 6.828-12.51l0.0141-0.0141 0.0141-0.0141c2.907-3.278 6.673-5.954 11.56-8.019 2.404-1.017 5.14-1.799 8.233-2.329h0.0141l0.0141-0.004c2.015-0.3112 4.287-0.3692 6.514-0.4627z"/>
 <path d="m234.5 312.5c0.1328 11.75 9.696 21.21 21.45 21.21s21.32-9.456 21.45-21.21z"/>
</g>
</svg>
