<?xml version="1.0" encoding="UTF-8" standalone="no"?>
<svg
   xmlns:dc="http://purl.org/dc/elements/1.1/"
   xmlns:cc="http://creativecommons.org/ns#"
   xmlns:rdf="http://www.w3.org/1999/02/22-rdf-syntax-ns#"
   xmlns:svg="http://www.w3.org/2000/svg"
   xmlns="http://www.w3.org/2000/svg"
   xmlns:xlink="http://www.w3.org/1999/xlink"
   xmlns:sodipodi="http://sodipodi.sourceforge.net/DTD/sodipodi-0.dtd"
   xmlns:inkscape="http://www.inkscape.org/namespaces/inkscape"
   style="enable-background:new"
   height="1024"
   viewBox="0 0 1024 1024"
   width="1024"
   version="1.1"
   id="svg81"
   sodipodi:docname="calendar-app-splash.svg"
   inkscape:version="0.92.3 (2405546, 2018-03-11)">
  <metadata
     id="metadata85">
    <rdf:RDF>
      <cc:Work
         rdf:about="">
        <dc:format>image/svg+xml</dc:format>
        <dc:type
           rdf:resource="http://purl.org/dc/dcmitype/StillImage" />
      </cc:Work>
    </rdf:RDF>
  </metadata>
  <sodipodi:namedview
     pagecolor="#ffffff"
     bordercolor="#666666"
     borderopacity="1"
     objecttolerance="10"
     gridtolerance="10"
     guidetolerance="10"
     inkscape:pageopacity="0"
     inkscape:pageshadow="2"
     inkscape:window-width="1853"
     inkscape:window-height="1025"
     id="namedview83"
     showgrid="false"
     inkscape:zoom="0.65186406"
     inkscape:cx="916.18066"
     inkscape:cy="545.94926"
     inkscape:window-x="67"
     inkscape:window-y="27"
     inkscape:window-maximized="1"
     inkscape:current-layer="svg81" />
  <defs
     id="defs39">
    <linearGradient
       id="b">
      <stop
         style="stop-color:#e7b108"
         offset="0"
         id="stop2" />
      <stop
         style="stop-opacity:.043"
         offset="1"
         id="stop4" />
    </linearGradient>
    <linearGradient
       id="e"
       y2="573.3"
       gradientUnits="userSpaceOnUse"
       y1="305.9"
       gradientTransform="matrix(0.7487,0,0,0.7487,329.7,-182.8)"
       x2="317"
       x1="317">
      <stop
         style="stop-color:#fff"
         offset="0"
         id="stop7" />
      <stop
         style="stop-color:#fff;stop-opacity:0"
         offset="1"
         id="stop9" />
    </linearGradient>
    <linearGradient
       id="g"
       y2="459.8"
       gradientUnits="userSpaceOnUse"
       x2="460.6"
       gradientTransform="matrix(1.033,0,0,1.033,247.6,-266.5)"
       y1="58.24"
       x1="58.3">
      <stop
         style="stop-opacity:0"
         offset="0"
         id="stop12" />
      <stop
         style="stop-opacity:.3841"
         offset=".5048"
         id="stop14" />
      <stop
         style="stop-opacity:0"
         offset="1"
         id="stop16" />
    </linearGradient>
    <clipPath
       id="i"
       clipPathUnits="userSpaceOnUse">
      <path
         style="color:#000000;enable-background:accumulate;fill:#fac82e"
         d="m545.4 104.4-23.5 40.6h-46.9v46.9l-40.6 23.5 23.5 40.6-23.45 40.62 70.35 40.62 40.62 70.35 40.6-23.5 40.6 23.5 40.6-70.4 70.4-40.6-23.5-40.6 23.5-40.6-70.4-40.6-40.6-70.4-40.6 23.5z"
         id="path19" />
    </clipPath>
    <clipPath
       id="h"
       clipPathUnits="userSpaceOnUse">
      <path
         style="color:#000000;enable-background:accumulate;fill:#fac82e"
         d="m215.4 104.4-23.5 40.6h-46.9v46.9l-40.6 23.5 23.5 40.6-23.45 40.62 70.35 40.62 40.62 70.35 40.6-23.5 40.6 23.5 40.6-70.4 70.4-40.6-23.5-40.6 23.5-40.6-70.4-40.6-40.6-70.4-40.6 23.5z"
         id="path22" />
    </clipPath>
    <linearGradient
       id="f"
       y2="409.6"
       gradientUnits="userSpaceOnUse"
       x2="407.6"
       gradientTransform="translate(256,-258)"
       y1="106.4"
       x1="104.4">
      <stop
         style="stop-opacity:0"
         offset="0"
         id="stop25" />
      <stop
         offset=".5048"
         id="stop27" />
      <stop
         style="stop-opacity:0"
         offset="1"
         id="stop29" />
    </linearGradient>
    <radialGradient
       id="a"
       xlink:href="#b"
       gradientUnits="userSpaceOnUse"
       cy="316.5"
       cx="311"
       gradientTransform="matrix(0.438,0.008265,-0.01352,0.7165,179.1,87.14)"
       r="86.01" />
    <radialGradient
       id="d"
       gradientUnits="userSpaceOnUse"
       cy="256"
       cx="586"
       gradientTransform="matrix(1.775,-0.02177,0.02358,1.922,-460.1,-223.4)"
       r="111">
      <stop
         style="stop-color:#e7b108"
         offset="0"
         id="stop33" />
      <stop
         style="stop-opacity:.8870"
         offset="1"
         id="stop35" />
    </radialGradient>
    <radialGradient
       id="c"
       xlink:href="#b"
       gradientUnits="userSpaceOnUse"
       cy="256"
       cx="586"
       gradientTransform="translate(0,1.153e-5)"
       r="111" />
  </defs>
  <g
     id="g936"
     transform="translate(-1.5340624,7.6703103)">
    <rect
       x="342.71628"
       y="-695.87872"
       width="340.15747"
       height="340.15747"
       transform="rotate(90)"
       style="color:#000000;fill:none;stroke-width:3.54330707"
       id="rect4782" />
    <path
       d="m 426.50593,385.23591 c -17.83346,0.20551 -30.87637,-0.42519 -41.54527,5.46024 -5.33445,2.94449 -9.55594,7.92284 -11.88956,14.1378 -2.33398,6.2185 -3.17658,13.60275 -3.17658,22.92164 v 42.51969 h 14.17323 v -42.51969 c 0,-8.39763 0.89398,-14.25472 2.27693,-17.93621 1.38259,-3.68504 2.86086,-5.27244 5.46165,-6.70749 5.18741,-2.86299 16.92992,-3.4937 34.78111,-3.70275 h 198.42519 c 17.85224,0.20834 29.59334,0.83934 34.78252,3.7024 2.59937,1.43426 4.08437,3.02227 5.46732,6.70607 1.38543,3.68149 2.27126,9.53857 2.27126,17.93621 v 42.51969 h 14.17323 v -42.51969 c 0,-9.31889 -0.84331,-16.70314 -3.1748,-22.92165 -2.33504,-6.21496 -6.55513,-11.19331 -11.89134,-14.13779 -10.6689,-5.88543 -23.71182,-5.25472 -41.54528,-5.46024 h -0.0425 -198.50669 z m -56.61141,170.07875 v 56.6929 c 0,9.32032 0.8426,16.69642 3.17622,22.91386 2.33398,6.21709 6.55512,11.19543 11.88956,14.1385 10.6689,5.88544 23.71182,5.26182 41.54528,5.46733 h 0.0425 198.5067 0.0425 c 17.83275,-0.20622 30.87496,0.41924 41.54528,-5.46733 5.33444,-2.9432 9.55559,-7.92141 11.88957,-14.1385 2.33149,-6.21851 3.1748,-13.59567 3.1748,-22.91457 V 555.31394 H 667.5337 v 56.69291 c 0,8.39623 -0.88724,14.25437 -2.26984,17.938 -1.38296,3.68362 -2.86796,5.27173 -5.46732,6.70606 -5.1874,2.86299 -16.92993,3.4937 -34.7811,3.70276 h -198.3437 -0.0815 c -17.85118,-0.20906 -29.5937,-0.83977 -34.7811,-3.70276 -2.60079,-1.43504 -4.07906,-3.02244 -5.46166,-6.70748 -1.38295,-3.6815 -2.27693,-9.53858 -2.27693,-17.93622 V 555.3143 Z"
       style="color:#000000;text-indent:0;text-decoration:none;text-decoration-line:none;text-decoration-style:solid;text-decoration-color:#000000;text-transform:none;white-space:normal;shape-padding:0;isolation:auto;mix-blend-mode:normal;solid-color:#000000;fill:#808080;stroke-width:3.54330707;color-rendering:auto;image-rendering:auto;shape-rendering:auto"
       id="path4179"
       inkscape:connector-curvature="0" />
    <path
       d="m 465.41853,439.96938 c -4.82952,0 -9.32243,0.59881 -13.48228,1.80708 -4.1563,1.20827 -7.9122,2.68583 -11.26417,4.42913 -3.35551,1.74331 -6.23622,3.62126 -8.65276,5.63386 -2.41299,1.87796 -4.22361,3.48307 -5.43188,4.82244 l 9.25157,13.28032 c 0.93897,-0.80433 2.28543,-1.94173 4.02874,-3.4193 1.74331,-1.60866 3.88701,-3.08621 6.43465,-4.42913 2.55117,-1.47401 5.43188,-2.74606 8.65275,-3.81968 3.21732,-1.07362 6.7748,-1.61221 10.66535,-1.61221 3.21733,0 6.23268,0.47481 9.04961,1.41379 2.95158,0.80433 5.49567,2.14015 7.64292,4.0181 2.1437,1.87796 3.82322,4.23071 5.02794,7.04764 1.34292,2.81693 2.01615,6.23268 2.01615,10.25433 0,3.75591 -0.74055,7.31339 -2.21457,10.66536 -1.34292,3.35197 -3.22086,6.6437 -5.63385,9.86102 -2.27835,3.08622 -4.96418,6.23622 -8.04686,9.45355 -2.95158,3.08621 -6.10158,6.23621 -9.45354,9.45353 -4.0252,4.02521 -8.11417,8.17796 -12.27047,12.47245 -4.15985,4.29094 -7.91575,8.85118 -11.26772,13.68071 -3.35197,4.82952 -6.10512,9.99567 -8.24882,15.49488 -2.01259,5.36457 -3.01889,11.19685 -3.01889,17.50039 v 2.21103 c 0,0.80433 0.0673,1.60866 0.20197,2.41299 h 84.4937 v -15.88819 h -64.17638 c 0,-2.28189 0.87519,-4.96418 2.6185,-8.05039 1.87795,-3.08268 4.15275,-6.3 6.83504,-9.65197 2.68228,-3.35552 5.49921,-6.57638 8.45079,-9.6626 l 8.05039,-8.04685 c 4.02166,-4.0252 8.04331,-8.11418 12.0685,-12.27048 4.02166,-4.29094 7.64646,-8.58188 10.86378,-12.87283 3.22087,-4.42559 5.76851,-8.85472 7.64646,-13.28031 2.0126,-4.56024 3.0189,-9.25513 3.0189,-14.08465 0,-12.3378 -3.68858,-21.86221 -11.06575,-28.56614 -7.24252,-6.84213 -18.17008,-10.25787 -32.78977,-10.25787 z m 113.92441,0 c -6.43818,0 -12.27047,1.07362 -17.50039,3.21732 -5.22992,2.0126 -9.72638,4.7622 -13.48229,8.25236 -3.62126,3.48662 -6.43818,7.5756 -8.45078,12.26693 -2.00905,4.56023 -3.01535,9.38976 -3.01535,14.48504 0,14.61969 6.57283,25.68898 19.71496,33.20079 -3.08268,1.8744 -6.03426,4.08543 -8.85119,6.63661 -2.68228,2.41299 -5.09173,5.1626 -7.23897,8.24882 -2.00906,3.08267 -3.68859,6.43464 -5.03149,10.0559 -1.20473,3.48662 -1.81064,7.1752 -1.81064,11.06575 0,4.02165 0.73701,8.31615 2.21457,12.87638 1.47402,4.42559 3.95787,8.51457 7.44449,12.27047 3.48661,3.75591 8.11063,6.90591 13.87559,9.45354 5.90315,2.41654 13.21299,3.62126 21.93307,3.62126 7.50827,0 14.14842,-1.0063 19.91693,-3.01889 5.76496,-1.87795 10.52716,-4.55315 14.28307,-8.03977 3.89055,-3.62126 6.7748,-7.78464 8.64922,-12.47952 2.01259,-4.82953 3.01889,-10.05591 3.01889,-15.68977 -0.2693,-16.22835 -8.3126,-28.10196 -24.13701,-35.61023 2.68228,-1.74331 5.22284,-3.75591 7.63937,-6.03425 2.54764,-2.2819 4.76575,-4.9004 6.6437,-7.84843 2.0126,-2.95157 3.5504,-6.10157 4.62048,-9.45354 1.20827,-3.48662 1.81416,-7.17874 1.81416,-11.06575 0,-4.0252 -0.80433,-8.1815 -2.41299,-12.47244 -1.47755,-4.29094 -3.96141,-8.1815 -7.44803,-11.66811 -3.35197,-3.62127 -7.70669,-6.5693 -13.0748,-8.85118 -5.36457,-2.27835 -11.80275,-3.41929 -19.31457,-3.41929 z m 0,15.48779 c 4.2945,0 7.91575,0.74055 10.86732,2.21457 2.94804,1.34292 5.36103,3.08622 7.23898,5.23346 1.87796,2.0126 3.22087,4.22362 4.0252,6.63662 0.93898,2.41299 1.4067,4.62401 1.4067,6.63661 0,7.24252 -1.67245,13.14212 -5.02441,17.70236 -3.35197,4.4256 -7.84843,8.31614 -13.48229,11.66811 -5.09527,-1.20826 -9.52441,-2.80984 -13.28031,-4.82244 -3.62126,-2.0126 -6.5693,-4.29803 -8.85119,-6.84567 -2.27834,-2.54764 -3.95787,-5.29015 -5.03149,-8.24173 -1.07362,-2.95158 -1.60512,-5.90669 -1.60512,-8.85827 0,-2.41299 0.4004,-4.82598 1.20473,-7.23897 0.93897,-2.54764 2.3492,-4.82599 4.22716,-6.83859 1.87795,-2.1437 4.29095,-3.89054 7.23898,-5.22991 3.08622,-1.34292 6.7748,-2.01615 11.06574,-2.01615 z m -7.84842,61.9689 c 5.36811,1.20472 10.12677,2.67874 14.28662,4.42205 4.29094,1.60866 7.91219,3.61771 10.86377,6.03425 3.08623,2.41299 5.43543,5.22992 7.04409,8.45078 1.61221,3.21733 2.40946,6.97324 2.40946,11.26418 0,2.81692 -0.5315,5.56653 -1.60513,8.24882 -1.07361,2.68228 -2.68582,5.10236 -4.82952,7.24606 -2.14724,2.0126 -4.96418,3.68504 -8.45079,5.0244 -3.35196,1.34292 -7.30984,2.01615 -11.87008,2.01615 -5.09528,0 -9.31889,-0.74055 -12.67086,-2.21457 -3.35197,-1.47756 -6.10158,-3.28818 -8.24882,-5.43543 -2.14725,-2.27834 -3.69212,-4.6878 -4.6311,-7.23898 -0.80433,-2.68228 -1.20119,-5.22992 -1.20119,-7.64645 0,-6.83858 1.60158,-12.73819 4.82245,-17.70236 3.35197,-4.96063 8.04684,-9.11693 14.0811,-12.4689 z"
       style="fill:#808080;stroke-width:3.54330707"
       id="path4225"
       inkscape:connector-curvature="0" />
    <path
       d="m 369.89452,484.46622 v 56.69292 h 28.34645 v -56.69292 z"
       style="color:#000000;text-indent:0;text-decoration:none;text-decoration-line:none;text-decoration-style:solid;text-decoration-color:#000000;text-transform:none;white-space:normal;isolation:auto;mix-blend-mode:normal;solid-color:#000000;fill:#808080;stroke-width:3.54330707;color-rendering:auto;image-rendering:auto;shape-rendering:auto"
       id="path4171"
       inkscape:connector-curvature="0" />
    <path
       style="color:#000000;text-indent:0;text-decoration:none;text-decoration-line:none;text-decoration-style:solid;text-decoration-color:#000000;text-transform:none;white-space:normal;isolation:auto;mix-blend-mode:normal;solid-color:#000000;fill:#808080;stroke-width:3.54330707;color-rendering:auto;image-rendering:auto;shape-rendering:auto"
       d="m 653.35909,484.46622 v 56.69292 h 28.34645 v -56.69292 z"
       id="path4180"
       inkscape:connector-curvature="0" />
  </g>
</svg>
