<?xml version="1.0" encoding="UTF-8" standalone="no"?>
<!-- Created with Inkscape (http://www.inkscape.org/) -->
<svg id="svg3336" xmlns:rdf="http://www.w3.org/1999/02/22-rdf-syntax-ns#" style="enable-background:new" xmlns="http://www.w3.org/2000/svg" height="512" viewBox="0 0 512 512" width="512" version="1.1" xmlns:cc="http://creativecommons.org/ns#" xmlns:xlink="http://www.w3.org/1999/xlink" xmlns:dc="http://purl.org/dc/elements/1.1/">
 <defs id="defs3338">
  <linearGradient id="linearGradient4226" y2="478" gradientUnits="userSpaceOnUse" y1="86" gradientTransform="matrix(.90625 0 0 .90625 -8 50.438)" x2="224" x1="224">
   <stop id="stop4340-3" style="stop-color:#f67122" offset="0"/>
   <stop id="stop4342-3" style="stop-color:#ff984b" offset="1"/>
  </linearGradient>
  <clipPath id="clipPath4255" clipPathUnits="userSpaceOnUse">
   <path id="path4257" d="m88.555 36c-78.055 0-86.055 0-86.055 77.9v212.2c0 77.9 8 85.9 86.055 85.9h339.89c78.06 0 86.06-8 86.06-85.9v-180.2c0-77.9-8-86.248-86.05-85.9h-228.45l-24-24z" style="color:#000000;enable-background:accumulate;fill:#d04616"/>
  </clipPath>
  <filter id="filter4242" style="color-interpolation-filters:sRGB" height="1.1107" width="1.0848" y="-.055346" x="-.042376">
   <feGaussianBlur id="feGaussianBlur4244" stdDeviation="9.0401191"/>
  </filter>
  <filter id="filter4278" style="color-interpolation-filters:sRGB" height="1.0259" width="1.0223" y="-.01296" x="-.011172">
   <feGaussianBlur id="feGaussianBlur4280" stdDeviation="2.16"/>
  </filter>
  <linearGradient id="linearGradient4302" y2="112" gradientUnits="userSpaceOnUse" x2="86" y1="514" x1="488">
   <stop id="stop4374" offset="0"/>
   <stop id="stop4380" style="stop-opacity:0" offset=".15026"/>
   <stop id="stop4376" style="stop-opacity:.58824" offset="1"/>
  </linearGradient>
  <filter id="filter4308" style="color-interpolation-filters:sRGB" height="1.1037" width="1.0894" y="-.05184" x="-.044690">
   <feGaussianBlur id="feGaussianBlur4310" stdDeviation="8.64"/>
  </filter>
 </defs>
 <metadata id="metadata3341">
  <rdf:RDF>
   <cc:Work rdf:about="">
    <dc:format>image/svg+xml</dc:format>
    <dc:type rdf:resource="http://purl.org/dc/dcmitype/StillImage"/>
    <dc:title/>
   </cc:Work>
  </rdf:RDF>
 </metadata>
 <g id="layer2" transform="translate(0,-64)">
  <path id="path4236-1" style="opacity:.3;color:#000000;filter:url(#filter4308);enable-background:accumulate;fill:url(#linearGradient4302)" d="m101.99 114c-70.741 0-77.99 0-77.99 70.6v251.56c0 70.59 7.249 77.84 77.99 77.84h308.02c70.74 0 77.99-7.25 77.99-77.85v-222.31c0-70.59-7.25-78.16-77.99-77.84h-192.01l-22-22z"/>
  <path id="path4236-5" style="opacity:.1;color:#000000;filter:url(#filter4278);enable-background:accumulate" d="m101.99 114c-70.741 0-77.99 0-77.99 70.6v251.56c0 70.59 7.249 77.84 77.99 77.84h308.02c70.74 0 77.99-7.25 77.99-77.85v-222.31c0-70.59-7.25-78.16-77.99-77.84h-192.01l-22-22z"/>
 </g>
 <g id="layer3" transform="translate(32,-32)">
  <path id="path4236" style="color:#000000;enable-background:accumulate;fill:#f6531e" d="m69.987 80c-70.737 0-77.987 0-77.987 70.6v192.56c0 70.59 7.25 77.84 77.987 77.84h308.03c70.73 0 77.98-7.25 77.98-77.85v-163.31c0-70.59-7.25-78.16-77.99-77.84h-192.01l-22-22z"/>
  <g id="g4252" style="filter:url(#filter4242);stroke-width:1.1034;fill:#c54215" transform="matrix(.90625 0 0 .90625 -10.266 47.625)" clip-path="url(#clipPath4255)">
   <path id="path4246" d="m88.555 106c-78.055 0-86.055 8-86.055 85.9v196.2c0 77.9 8 85.9 86.055 85.9h339.89c78.06 0 86.06-8 86.06-85.9v-220.2c0-77.9-8-86.282-86.05-85.9h-188.45l-24 24z" style="color:#000000;enable-background:accumulate;fill:#d04616"/>
  </g>
  <path id="rect4158" d="m69.987 146c-70.737 0-77.987 7.25-77.987 77.85v178.31c0 70.59 7.25 77.84 77.987 77.84h308.03c70.73 0 77.98-7.25 77.98-77.85v-200.31c0-70.59-7.25-77.84-77.99-77.84h-170.51l-22.02 22z" style="color:#000000;enable-background:accumulate;fill:url(#linearGradient4226)"/>
  <path id="path4226" style="opacity:.1;color:#000000;enable-background:accumulate;fill:#fff" d="m488 328-120 120h42.014c70.74 0 77.99-7.25 77.99-77.85v-42.15z" transform="translate(-32,32)"/>
  <path id="path4216" style="opacity:.3;color:#000000;enable-background:accumulate" d="m-8 400.15v2c0 70.6 7.2493 77.85 77.986 77.85h308.03c70.73 0 77.98-7.25 77.98-77.85v-2c0 70.6-7.25 77.85-77.99 77.85h-308.02c-70.741 0-77.99-7.25-77.99-77.85z"/>
  <path id="path4231" style="opacity:.15;color:#000000;enable-background:accumulate;fill:#fff" d="m239.5 92-22.016 22h-115.5c-70.731 0-77.98 7.25-77.98 77.85v2c0-70.6 7.249-77.85 77.99-77.85h115.49l22.02-22h170.51c70.74 0 77.99 7.25 77.99 77.85v-2c0-70.6-7.25-77.85-77.99-77.85h-170.51z" transform="translate(-32,32)"/>
  <path id="path4215" style="opacity:.15;color:#000000;enable-background:accumulate;fill:#fff" d="m101.99 48c-70.741 0-77.99 0-77.99 70.6v2c0-70.6 7.249-70.6 77.99-70.6h94.01l22 22h192.01c70.74-0.315 77.99 7.25 77.99 77.85v-2c0-70.6-7.25-78.165-77.99-77.85h-192.01l-22-22h-94.01z" transform="translate(-32,32)"/>
 </g>
 <g id="layer4" transform="translate(32,-32)">
  <path id="path4505-6" style="opacity:.05;fill-opacity:0;color:#000000;enable-background:accumulate" d="m221.81 124-35.188 71.656v59.25c-4.9399 5.788-10.339 11.62-15.969 17.25-18.503 18.503-39.248 34.687-53.125 39.312l-23.374-23.35-71.656 35.19v170.69h256v-317.56c-15.42-33.45-32.37-45.92-56.69-52.44zm-97.56 229c0.007-0.005 0.0239 0.005 0.0312 0-2.6107 1.6304-5.251 3.2267-7.9062 4.8125 2.6559-1.5856 5.2637-3.1824 7.875-4.8125zm-24.094 14.062c0.008-0.004 0.0234 0.004 0.0312 0-2.7418 1.4991-5.5286 2.9806-8.3125 4.4375 2.7843-1.4568 5.5391-2.9386 8.2813-4.4375z"/>
  <g id="layer1" style="opacity:.6" transform="matrix(2.25 0 0 2.25 268.68 23.364)">
   <g id="g4845" transform="matrix(0 -1 -1 0 373.51 516.51)">
    <g id="g4778" style="" transform="matrix(-.99960 0 0 1 575.94 -611)">
     <g id="g4780" transform="matrix(-1 0 0 1 576 611)">
      <rect id="rect4782" style="color:#000000;enable-background:accumulate;fill:none" transform="scale(-1,1)" height="96" width="96.038" y="345.36" x="-438"/>
      <path id="path4667" style="color:#000000;enable-background:accumulate;fill:#fff" d="m150.4 532.94-43.432 44.465 2.8613 2.793 8.5586-8.7617v45.367h52.012v-4-20.619c0-1.6825-0.15894-3.2223-0.47656-4.6191-0.31748-1.3968-0.87235-2.5881-1.666-3.5723-0.7619-1.0159-1.7941-1.7943-3.0957-2.334-1.3016-0.57154-2.9361-0.85547-4.9043-0.85547-2.1905 0-4.128 0.14213-5.8105 0.42774-1.6825 0.28583-3.031 0.55489-4.0469 0.80859v30.764h-28v-45.475l27.998-28.664 28.002 28.666v49.473h4.0117l-0.01-45.377 8.5664 8.7715 2.8613-2.793-43.43-44.465zm20 15.863 12.01 12v-12h-12.01z" transform="matrix(0 -1 -1.0004 0 967.01 543.76)"/>
     </g>
    </g>
   </g>
  </g>
 </g>
</svg>
