<?xml version="1.0" encoding="UTF-8" standalone="no"?>
<!-- Created with Inkscape (http://www.inkscape.org/) -->
<svg id="svg3336" xmlns:rdf="http://www.w3.org/1999/02/22-rdf-syntax-ns#" style="enable-background:new" xmlns="http://www.w3.org/2000/svg" height="512" viewBox="0 0 512 512" width="512" version="1.1" xmlns:cc="http://creativecommons.org/ns#" xmlns:xlink="http://www.w3.org/1999/xlink" xmlns:dc="http://purl.org/dc/elements/1.1/">
 <defs id="defs3338">
  <linearGradient id="linearGradient4226" y2="401.58" gradientUnits="userSpaceOnUse" y1="154.4" gradientTransform="matrix(0 -.90625 .90622 0 4.0752 488)" x2="-.0000011034" x1="512">
   <stop id="stop4248" style="stop-color:#e20e0e" offset="0"/>
   <stop id="stop4250" style="stop-color:#f72424" offset="1"/>
  </linearGradient>
  <filter id="filter4346" style="color-interpolation-filters:sRGB" height="1.0219" width="1.0265" y="-.010966" x="-.013250">
   <feGaussianBlur id="feGaussianBlur4348" stdDeviation="2.120027"/>
  </filter>
  <linearGradient id="linearGradient4358" y2="488" gradientUnits="userSpaceOnUse" x2="488" y1="88" x1="88">
   <stop id="stop4362" style="stop-opacity:.58824" offset="0"/>
   <stop id="stop4364" style="stop-opacity:0" offset=".88"/>
   <stop id="stop4366" offset="1"/>
  </linearGradient>
  <filter id="filter4380" style="color-interpolation-filters:sRGB" height="1.0877" width="1.106" y="-.043863" x="-.052999">
   <feGaussianBlur id="feGaussianBlur4382" stdDeviation="8.4801079"/>
  </filter>
 </defs>
 <metadata id="metadata3341">
  <rdf:RDF>
   <cc:Work rdf:about="">
    <dc:format>image/svg+xml</dc:format>
    <dc:type rdf:resource="http://purl.org/dc/dcmitype/StillImage"/>
    <dc:title/>
   </cc:Work>
  </rdf:RDF>
 </metadata>
 <g id="layer2" transform="translate(-32,-32)">
  <path id="rect4158-9" style="opacity:.1;color:#000000;filter:url(#filter4346);enable-background:accumulate" d="m173.84 58c-70.59 0-78.186 7.251-77.84 77.99v154.01 154.01c-0.346 70.74 7.25 77.99 77.84 77.99h228.31c70.6 0 77.85-7.25 77.85-77.99v-154.01-154.01c0-70.74-7.25-77.99-77.84-77.99z"/>
  <path id="path4350" d="m173.84 58c-70.59 0-78.186 7.251-77.84 77.99v154.01 154.01c-0.346 70.74 7.25 77.99 77.84 77.99h228.31c70.6 0 77.85-7.25 77.85-77.99v-154.01-154.01c0-70.74-7.25-77.99-77.84-77.99z" style="opacity:.3;color:#000000;filter:url(#filter4380);enable-background:accumulate;fill:url(#linearGradient4358)"/>
 </g>
 <g id="layer3">
  <path id="rect4158" style="color:#000000;enable-background:accumulate;fill:url(#linearGradient4226)" d="m141.84 24c-70.59 0-78.186 7.251-77.84 77.99v154.01 154.01c-0.346 70.74 7.25 77.99 77.84 77.99h228.31c70.6 0 77.85-7.25 77.85-77.99v-154.01-154.01c0-70.737-7.2498-77.987-77.843-77.987z"/>
 </g>
 <g id="layer4">
  <path id="path4505-6" style="opacity:.05;fill-opacity:0;color:#000000;enable-background:accumulate" d="m221.81 124-35.188 71.656v59.25c-4.9399 5.788-10.339 11.62-15.969 17.25-18.503 18.503-39.248 34.687-53.125 39.312l-23.374-23.35-71.656 35.19v170.69h256v-317.56c-15.42-33.45-32.37-45.92-56.69-52.44zm-97.56 229c0.007-0.005 0.0239 0.005 0.0312 0-2.6107 1.6304-5.251 3.2267-7.9062 4.8125 2.6559-1.5856 5.2637-3.1824 7.875-4.8125zm-24.094 14.062c0.008-0.004 0.0234 0.004 0.0312 0-2.7418 1.4991-5.5286 2.9806-8.3125 4.4375 2.7843-1.4568 5.5391-2.9386 8.2813-4.4375z"/>
  <g id="g32" style="stroke-width:.54986;fill:#fff;enable-background:new" transform="matrix(.71258 0 0 .71258 127.29 90.154)">
   <path id="path4463" d="m115.93 262.79c11.188-21.929 23.903-46.636 34.08-71.441l4.024-9.792c-13.29-50.59-21.26-91.195-14.14-117.45 1.917-6.845 9.845-10.998 18.321-10.998l5.165 0.076h0.948c11.604-0.178 17.068 14.583 17.688 20.322 1.024 9.558-3.398 25.734-3.398 25.734 0-6.532 0.256-17.087-3.867-26.195-4.79-10.539-9.38-16.835-13.49-17.833-2.075 1.386-4.092 4.256-4.783 9.777-1.431 7.741-1.86 17.512-1.86 22.549 0 17.796 3.504 41.285 10.39 65.499 1.299-3.749 2.442-7.351 3.351-10.726 1.412-5.319 10.389-40.578 10.389-40.578s-2.262 46.935-5.422 61.136c-0.677 3.001-1.424 5.969-2.202 9.007 11.355 31.727 29.652 60.044 51.479 80.424 8.606 8.043 19.475 14.528 29.762 20.439 22.465-3.21 43.149-4.726 60.405-4.535 22.894 0.302 39.699 3.688 46.504 10.391 3.332 3.258 4.684 7.193 5.104 11.604 0.1 1.716-0.736 5.748-0.981 6.76 0.245-1.225 0.245-7.249-18.133-13.115-14.474-4.627-41.563-4.483-74.068-1.023 37.597 18.394 74.225 27.533 85.833 22.054 2.838-1.383 6.28-6.099 6.28-6.099s-2.046 9.296-3.515 11.62c-1.875 2.525-5.553 5.26-9.04 6.182-18.332 4.891-66.051-6.427-107.65-30.197-46.478 6.845-97.521 19.49-138.44 32.91-40.197 70.48-70.425 102.84-95.016 90.53l-9.041-4.546c-3.675-2.102-4.236-7.219-3.386-11.386 2.867-14.02 20.456-35.15 55.787-56.24 3.803-2.301 20.743-11.258 20.743-11.258s-12.541 12.138-15.479 14.52c-28.2 23.11-49.013 52.18-48.494 63.45l0.102 0.983c23.955-3.41 59.879-52.17 106.06-142.53m14.636 7.494c-7.714 14.528-15.254 27.998-22.215 40.366 38.506-16.133 79.95-26.457 119.4-33.791-5.302-3.661-10.449-7.538-15.292-11.636-21.725-18.393-38.288-41.34-50.294-65.487-7.614 20.513-16.668 42.311-31.6 70.548" style="stroke-width:.54986;fill:#fff"/>
  </g>
 </g>
 <g id="layer5" transform="translate(-32,-32)">
  <path id="path4231" style="opacity:.05;color:#000000;enable-background:accumulate;fill:#fff" d="m288 56v464h114.16c70.59 0 77.84-7.25 77.84-77.99v-308.02c0-70.741-7.25-77.99-77.84-77.99z"/>
  <path id="path4255" style="opacity:.05;color:#000000;enable-background:accumulate;fill:#fff" d="m96 288v154.01c-0.346 70.74 7.25 77.99 77.84 77.99h228.31c70.6 0 77.85-7.25 77.85-77.99v-154.01z"/>
 </g>
 <g id="layer1" transform="translate(-32,-32)">
  <path id="path4254" style="opacity:.12;color:#000000;enable-background:accumulate;fill:#fff" d="m360 520 120-120v44.968c-0.1 67.99-7.61 75.03-76.35 75.03z"/>
  <path id="path4286" style="opacity:.3;color:#000000;enable-background:accumulate;fill:#fff" d="m173.84 56c-68.98 0-77.802 6.959-77.846 73.28 0.223-64.487 9.556-71.28 77.846-71.28h228.31c70.6 0 77.85 7.249 77.85 77.99v-2c0-70.741-7.25-77.99-77.84-77.99z"/>
  <path id="path4295" style="opacity:.1;color:#000000;enable-background:accumulate" d="m480 440.01c0 70.74-7.25 77.99-77.84 77.99h-228.32c-68.29 0-77.623-6.79-77.846-71.28 0.044 66.32 8.866 73.28 77.846 73.28h228.31c70.6 0 77.85-7.25 77.85-77.99z"/>
 </g>
</svg>
