<?xml version="1.0" encoding="UTF-8" standalone="no"?>
<!-- Created with Inkscape (http://www.inkscape.org/) -->
<svg id="svg3336" xmlns:rdf="http://www.w3.org/1999/02/22-rdf-syntax-ns#" style="enable-background:new" xmlns="http://www.w3.org/2000/svg" height="512" viewBox="0 0 512 512" width="512" version="1.1" xmlns:cc="http://creativecommons.org/ns#" xmlns:xlink="http://www.w3.org/1999/xlink" xmlns:dc="http://purl.org/dc/elements/1.1/">
 <defs id="defs3338">
  <linearGradient id="linearGradient4226" y2="403.96" gradientUnits="userSpaceOnUse" y1="150.32" gradientTransform="matrix(0 -.90625 .90622 0 4.0752 488)" x2="-2.2069" x1="512">
   <stop id="stop4340-0" style="stop-color:#1a53a9" offset="0"/>
   <stop id="stop4342-7" style="stop-color:#2060c3" offset="1"/>
  </linearGradient>
  <filter id="filter4346" style="color-interpolation-filters:sRGB" height="1.0219" width="1.0265" y="-.010966" x="-.013250">
   <feGaussianBlur id="feGaussianBlur4348" stdDeviation="2.120027"/>
  </filter>
  <linearGradient id="linearGradient4358" y2="488" gradientUnits="userSpaceOnUse" x2="488" y1="88" x1="88">
   <stop id="stop4362" style="stop-opacity:.58824" offset="0"/>
   <stop id="stop4364" style="stop-opacity:0" offset=".88"/>
   <stop id="stop4366" offset="1"/>
  </linearGradient>
  <filter id="filter4380" style="color-interpolation-filters:sRGB" height="1.0877" width="1.106" y="-.043863" x="-.052999">
   <feGaussianBlur id="feGaussianBlur4382" stdDeviation="8.4801079"/>
  </filter>
 </defs>
 <metadata id="metadata3341">
  <rdf:RDF>
   <cc:Work rdf:about="">
    <dc:format>image/svg+xml</dc:format>
    <dc:type rdf:resource="http://purl.org/dc/dcmitype/StillImage"/>
    <dc:title/>
   </cc:Work>
  </rdf:RDF>
 </metadata>
 <g id="layer2" transform="translate(-32,-32)">
  <path id="rect4158-9" style="opacity:.1;color:#000000;filter:url(#filter4346);enable-background:accumulate" d="m173.84 58c-70.59 0-78.186 7.251-77.84 77.99v154.01 154.01c-0.346 70.74 7.25 77.99 77.84 77.99h228.31c70.6 0 77.85-7.25 77.85-77.99v-154.01-154.01c0-70.74-7.25-77.99-77.84-77.99z"/>
  <path id="path4350" d="m173.84 58c-70.59 0-78.186 7.251-77.84 77.99v154.01 154.01c-0.346 70.74 7.25 77.99 77.84 77.99h228.31c70.6 0 77.85-7.25 77.85-77.99v-154.01-154.01c0-70.74-7.25-77.99-77.84-77.99z" style="opacity:.3;color:#000000;filter:url(#filter4380);enable-background:accumulate;fill:url(#linearGradient4358)"/>
 </g>
 <g id="layer3">
  <path id="rect4158" style="color:#000000;enable-background:accumulate;fill:url(#linearGradient4226)" d="m141.84 24c-70.59 0-78.186 7.251-77.84 77.99v154.01 154.01c-0.346 70.74 7.25 77.99 77.84 77.99h228.31c70.6 0 77.85-7.25 77.85-77.99v-154.01-154.01c0-70.737-7.2498-77.987-77.843-77.987z"/>
 </g>
 <g id="layer4">
  <path id="path4505-6" style="opacity:.05;fill-opacity:0;color:#000000;enable-background:accumulate" d="m221.81 124-35.188 71.656v59.25c-4.9399 5.788-10.339 11.62-15.969 17.25-18.503 18.503-39.248 34.687-53.125 39.312l-23.374-23.35-71.656 35.19v170.69h256v-317.56c-15.42-33.45-32.37-45.92-56.69-52.44zm-97.56 229c0.007-0.005 0.0239 0.005 0.0312 0-2.6107 1.6304-5.251 3.2267-7.9062 4.8125 2.6559-1.5856 5.2637-3.1824 7.875-4.8125zm-24.094 14.062c0.008-0.004 0.0234 0.004 0.0312 0-2.7418 1.4991-5.5286 2.9806-8.3125 4.4375 2.7843-1.4568 5.5391-2.9386 8.2813-4.4375z"/>
  <path id="path6" style="stroke-width:1.3333;fill:#fff" d="m261.07 146.58c-39.011 6.9472-78.045 13.589-117.06 20.409 0 59.344-0.0254 118.71 0 178.08 38.808 6.7945 77.639 13.282 116.37 20.357h15.906v-20.357c25.473 0 50.918-0.0527 76.391 0.0746 4.3261-0.20358 9.1377 0.12654 12.853-2.5199 2.9774-4.5551 2.2132-10.255 2.4677-15.395-0.35621-50.132 0.17921-100.29-0.25349-150.42 0.5344-5.802-4.0204-10.307-9.8224-9.7218-27.203-0.43261-54.407-0.00015-81.636-0.15288v-20.357h-15.22zm15.22 27.991h83.977v162.87h-83.977v-20.361h66.163v-10.177h-66.163v-12.726h66.163v-10.177h-66.163v-12.726h66.163v-10.177h-66.163v-12.726h66.163v-10.177h-66.163v-12.726h66.163v-10.177h-66.163v-12.726h66.163v-10.177h-66.163v-17.815zm-30.31 41.989c-5.7511 24.659-10.791 49.522-17.076 74.028-4.2497 2.2139-10.61-0.10263-15.649 0.25347-3.3845-16.846-7.3272-33.591-10.355-50.514-2.9774 16.439-6.8486 32.726-10.259 49.064-4.8859-0.25448-9.7943-0.56011-14.706-0.89093-4.2243-22.394-9.1882-44.635-13.133-67.08 4.3515-0.20357 8.7289-0.38038 13.08-0.53307 2.6211 16.21 5.5975 32.344 7.8878 48.579 3.5881-16.643 7.255-33.286 10.818-49.928 4.835-0.27993 9.6693-0.48361 14.504-0.73808 3.3845 17.177 6.8439 34.326 10.508 51.427 2.8756-17.661 6.0574-35.268 9.1365-52.903 5.0895-0.17807 10.178-0.4588 15.242-0.76417z"/>
 </g>
 <g id="layer5" transform="translate(-32,-32)">
  <path id="path4231" style="opacity:0.04;color:#000000;enable-background:accumulate;fill:#fff" d="m288 56v464h114.16c70.59 0 77.84-7.25 77.84-77.99v-308.02c0-70.741-7.25-77.99-77.84-77.99z"/>
  <path id="path4255" style="opacity:0.04;color:#000000;enable-background:accumulate;fill:#fff" d="m96 288v154.01c-0.346 70.74 7.25 77.99 77.84 77.99h228.31c70.6 0 77.85-7.25 77.85-77.99v-154.01z"/>
 </g>
 <g id="layer1" transform="translate(-32,-32)">
  <path id="path4254" style="opacity:.1;color:#000000;enable-background:accumulate;fill:#fff" d="m360 520 120-120v44.968c-0.1 67.99-7.61 75.03-76.35 75.03z"/>
  <path id="path4286" style="opacity:.3;color:#000000;enable-background:accumulate;fill:#fff" d="m173.84 56c-68.98 0-77.802 6.959-77.846 73.28 0.223-64.487 9.556-71.28 77.846-71.28h228.31c70.6 0 77.85 7.249 77.85 77.99v-2c0-70.741-7.25-77.99-77.84-77.99z"/>
  <path id="path4295" style="opacity:.1;color:#000000;enable-background:accumulate" d="m480 440.01c0 70.74-7.25 77.99-77.84 77.99h-228.32c-68.29 0-77.623-6.79-77.846-71.28 0.044 66.32 8.866 73.28 77.846 73.28h228.31c70.6 0 77.85-7.25 77.85-77.99z"/>
 </g>
</svg>
