<?xml version="1.0" encoding="UTF-8" standalone="no"?>
<!-- Created with Inkscape (http://www.inkscape.org/) -->
<svg id="svg3336" xmlns:rdf="http://www.w3.org/1999/02/22-rdf-syntax-ns#" style="enable-background:new" xmlns="http://www.w3.org/2000/svg" height="512" viewBox="0 0 512 512" width="512" version="1.1" xmlns:cc="http://creativecommons.org/ns#" xmlns:xlink="http://www.w3.org/1999/xlink" xmlns:dc="http://purl.org/dc/elements/1.1/">
 <defs id="defs3338">
  <linearGradient id="linearGradient4226" y2="125.99" gradientUnits="userSpaceOnUse" y1="397.99" gradientTransform="matrix(0 -.90625 .90622 0 4.0752 488)" x2="-0.000001" x1="512">
   <stop id="stop4340" style="stop-color:#ebebeb" offset="0"/>
   <stop id="stop4342" style="stop-color:#f5f5f5" offset="1"/>
  </linearGradient>
  <filter id="filter4346" style="color-interpolation-filters:sRGB" height="1.0219" width="1.0265" y="-.010966" x="-.013250">
   <feGaussianBlur id="feGaussianBlur4348" stdDeviation="2.120027"/>
  </filter>
  <linearGradient id="linearGradient4358" y2="488" gradientUnits="userSpaceOnUse" x2="488" y1="88" x1="88">
   <stop id="stop4362" style="stop-opacity:.58824" offset="0"/>
   <stop id="stop4364" style="stop-opacity:0" offset=".88"/>
   <stop id="stop4366" offset="1"/>
  </linearGradient>
  <filter id="filter4380" style="color-interpolation-filters:sRGB" height="1.0877" width="1.106" y="-.043863" x="-.052999">
   <feGaussianBlur id="feGaussianBlur4382" stdDeviation="8.4801079"/>
  </filter>
 </defs>
 <metadata id="metadata3341">
  <rdf:RDF>
   <cc:Work rdf:about="">
    <dc:format>image/svg+xml</dc:format>
    <dc:type rdf:resource="http://purl.org/dc/dcmitype/StillImage"/>
    <dc:title/>
   </cc:Work>
  </rdf:RDF>
 </metadata>
 <g id="layer2" transform="translate(-32,-32)">
  <path id="rect4158-9" style="opacity:.1;color:#000000;filter:url(#filter4346);enable-background:accumulate" d="m173.84 58c-70.59 0-78.186 7.251-77.84 77.99v154.01 154.01c-0.346 70.74 7.25 77.99 77.84 77.99h228.31c70.6 0 77.85-7.25 77.85-77.99v-154.01-154.01c0-70.74-7.25-77.99-77.84-77.99z"/>
  <path id="path4350" d="m173.84 58c-70.59 0-78.186 7.251-77.84 77.99v154.01 154.01c-0.346 70.74 7.25 77.99 77.84 77.99h228.31c70.6 0 77.85-7.25 77.85-77.99v-154.01-154.01c0-70.74-7.25-77.99-77.84-77.99z" style="opacity:.3;color:#000000;filter:url(#filter4380);enable-background:accumulate;fill:url(#linearGradient4358)"/>
 </g>
 <g id="layer3">
  <path id="rect4158" style="color:#000000;enable-background:accumulate;fill:url(#linearGradient4226)" d="m141.84 24c-70.59 0-78.186 7.251-77.84 77.99v154.01 154.01c-0.346 70.74 7.25 77.99 77.84 77.99h228.31c70.6 0 77.85-7.25 77.85-77.99v-154.01-154.01c0-70.737-7.2498-77.987-77.843-77.987z"/>
 </g>
 <g id="layer4">
  <path id="path4505-6" style="opacity:.05;fill-opacity:0;color:#000000;enable-background:accumulate" d="m221.81 124-35.188 71.656v59.25c-4.9399 5.788-10.339 11.62-15.969 17.25-18.503 18.503-39.248 34.687-53.125 39.312l-23.374-23.35-71.656 35.19v170.69h256v-317.56c-15.42-33.45-32.37-45.92-56.69-52.44zm-97.56 229c0.007-0.005 0.0239 0.005 0.0312 0-2.6107 1.6304-5.251 3.2267-7.9062 4.8125 2.6559-1.5856 5.2637-3.1824 7.875-4.8125zm-24.094 14.062c0.008-0.004 0.0234 0.004 0.0312 0-2.7418 1.4991-5.5286 2.9806-8.3125 4.4375 2.7843-1.4568 5.5391-2.9386 8.2813-4.4375z"/>
  <g id="g4260" style="stroke-width:.52986" transform="matrix(1.8873 0 0 1.8873 135.21 135.21)">
   <g id="g4724" style="stroke-width:.75514" transform="matrix(.70168 0 0 .70168 -73.733 26.166)">
    <path id="path4664" d="m611.77 252.1c-4.4622 0.009-9.2018 0.79113-14.062 2.5-3.904 1.386-5.9473 4.5879-5.9473 4.5879s2.4549-0.99267 7.9609-2.1387c22.464-4.683 54.649 30.077-14.959 66.248-0.32201 0.861-1.4004 1.8233-1.4004 1.8223 82.797-21.766 64.744-73.09 28.408-73.02zm-149.16 3.5371c-5.4525-0.12518-29.023 0.22566-57.203 13.848-38.082 18.421 94.199 26.8 162.67 8.791 7.119-4.861 16.959-9.0762 16.959-9.0762s-28.022 5.0054-55.928 7.3594c-34.146 2.861-70.802 3.419-89.191 0.95703-43.552-5.816 23.879-21.832 23.879-21.832s-0.41053-0.029-1.1894-0.0469zm-14.504 42.133c-62.844 20.858 34.965 44.512 122.78 18.834-9.334-3.291-15.271-9.3086-15.271-9.3086-42.917 8.264-67.719 7.9978-99.125 4.7578-24.286-2.512-8.3828-14.283-8.3828-14.283zm8.875 40.621c-57.047 15.94 34.698 48.87 107.33 17.742-11.896-4.626-20.414-9.9668-20.414-9.9668-32.399 6.132-47.424 6.6138-76.824 3.2598-24.268-2.79-10.09-11.035-10.09-11.035zm-39.621 26.928c-25.619 0.78941-75.724 23.829-29.908 31.256 148.08 24.015 269.94-10.813 231.53-28.139 0 0 10.492 8.644-11.555 15.332-41.923 12.7-174.49 16.535-211.31 0.50586-13.238-5.759 11.587-13.751 19.396-15.428 8.144-1.766 12.799-1.4375 12.799-1.4375-2.3003-1.6205-6.2049-2.236-10.949-2.0898zm225.12 22.006s-4.6708 11.984-55.219 21.502c-57.028 10.732-127.36 9.4796-169.08 2.6016 0.001-0.001 8.5401 7.0688 52.453 9.8848 66.815 4.277 169.42-2.3733 171.85-33.988z" style="stroke-width:.75514;fill:#1e84c7" transform="matrix(.52986 0 0 .52986 -71.645 -71.645)"/>
    <path id="path4668" d="m542.79 51.467c15.554 61.255-54.833 79.751-80.24 117.9-17.31 25.99 8.4914 53.917 43.65 85.639-13.71-30.988-60.208-58.112 0.0254-105.68 75.113-59.299 36.564-97.861 36.564-97.861zm46.479 75.777s-127.01 31.723-66.35 101.62c17.896 20.604-4.7012 39.145-4.7012 39.145s45.441-23.457 24.572-52.832c-19.491-27.394-34.438-41.007 46.479-87.936z" style="stroke-width:.75514;fill:#fc981c" transform="matrix(.52986 0 0 .52986 -71.645 -71.645)"/>
   </g>
  </g>
 </g>
 <g id="layer5" transform="translate(-32,-32)">
  <path id="path4231" style="opacity:.1;color:#000000;enable-background:accumulate;fill:#fff" d="m288 56v464h114.16c70.59 0 77.84-7.25 77.84-77.99v-308.02c0-70.741-7.25-77.99-77.84-77.99z"/>
  <path id="path4255" style="opacity:.1;color:#000000;enable-background:accumulate;fill:#fff" d="m96 288v154.01c-0.346 70.74 7.25 77.99 77.84 77.99h228.31c70.6 0 77.85-7.25 77.85-77.99v-154.01z"/>
 </g>
 <g id="layer1" transform="translate(-32,-32)">
  <path id="path4254" style="opacity:.5;color:#000000;enable-background:accumulate;fill:#fff" d="m360 520 120-120v44.968c-0.1 67.99-7.61 75.03-76.35 75.03z"/>
  <path id="path4286" style="opacity:.6;color:#000000;enable-background:accumulate;fill:#fff" d="m173.84 56c-68.98 0-77.802 6.959-77.846 73.28 0.223-64.487 9.556-71.28 77.846-71.28h228.31c70.6 0 77.85 7.249 77.85 77.99v-2c0-70.741-7.25-77.99-77.84-77.99z"/>
  <path id="path4295" style="opacity:.1;color:#000000;enable-background:accumulate" d="m480 440.01c0 70.74-7.25 77.99-77.84 77.99h-228.32c-68.29 0-77.623-6.79-77.846-71.28 0.044 66.32 8.866 73.28 77.846 73.28h228.31c70.6 0 77.85-7.25 77.85-77.99z"/>
 </g>
</svg>
