<?xml version="1.0" encoding="UTF-8" standalone="no"?>
<!-- Created with Inkscape (http://www.inkscape.org/) -->
<svg id="svg3336" xmlns:rdf="http://www.w3.org/1999/02/22-rdf-syntax-ns#" style="enable-background:new" xmlns="http://www.w3.org/2000/svg" height="512" viewBox="0 0 512 512" width="512" version="1.1" xmlns:cc="http://creativecommons.org/ns#" xmlns:xlink="http://www.w3.org/1999/xlink" xmlns:dc="http://purl.org/dc/elements/1.1/">
 <defs id="defs3338">
  <linearGradient id="linearGradient4226" y2="125.99" gradientUnits="userSpaceOnUse" y1="397.99" gradientTransform="matrix(0 -.90625 -.90622 0 507.91 488)" x2="-0.000001" x1="512">
   <stop id="stop4340-0" style="stop-color:#147e44" offset="0"/>
   <stop id="stop4342-7" style="stop-color:#179c54" offset="1"/>
  </linearGradient>
  <filter id="filter4346" style="color-interpolation-filters:sRGB" height="1.0219" width="1.0265" y="-.010966" x="-.013250">
   <feGaussianBlur id="feGaussianBlur4348" stdDeviation="2.120027"/>
  </filter>
  <linearGradient id="linearGradient4358" y2="488" gradientUnits="userSpaceOnUse" x2="488" y1="88" x1="88">
   <stop id="stop4362" style="stop-opacity:.58824" offset="0"/>
   <stop id="stop4364" style="stop-opacity:0" offset=".88"/>
   <stop id="stop4366" offset="1"/>
  </linearGradient>
  <filter id="filter4380" style="color-interpolation-filters:sRGB" height="1.0877" width="1.106" y="-.043863" x="-.052999">
   <feGaussianBlur id="feGaussianBlur4382" stdDeviation="8.4801079"/>
  </filter>
 </defs>
 <metadata id="metadata3341">
  <rdf:RDF>
   <cc:Work rdf:about="">
    <dc:format>image/svg+xml</dc:format>
    <dc:type rdf:resource="http://purl.org/dc/dcmitype/StillImage"/>
    <dc:title/>
   </cc:Work>
  </rdf:RDF>
 </metadata>
 <g id="layer2" transform="translate(-32,-32)">
  <path id="rect4158-9" style="opacity:.1;color:#000000;filter:url(#filter4346);enable-background:accumulate" d="m173.84 58c-70.59 0-78.186 7.251-77.84 77.99v154.01 154.01c-0.346 70.74 7.25 77.99 77.84 77.99h228.31c70.6 0 77.85-7.25 77.85-77.99v-154.01-154.01c0-70.74-7.25-77.99-77.84-77.99z"/>
  <path id="path4350" d="m173.84 58c-70.59 0-78.186 7.251-77.84 77.99v154.01 154.01c-0.346 70.74 7.25 77.99 77.84 77.99h228.31c70.6 0 77.85-7.25 77.85-77.99v-154.01-154.01c0-70.74-7.25-77.99-77.84-77.99z" style="opacity:.3;color:#000000;filter:url(#filter4380);enable-background:accumulate;fill:url(#linearGradient4358)"/>
 </g>
 <g id="layer3">
  <path id="rect4158" style="color:#000000;enable-background:accumulate;fill:url(#linearGradient4226)" d="m370.15 24c70.593 0 78.189 7.2508 77.843 77.987v308.02c0.35 70.74-7.25 77.99-77.84 77.99h-228.32c-70.591 0-77.841-7.25-77.841-77.99v-308.02c0-70.737 7.2498-77.987 77.843-77.987z"/>
 </g>
 <g id="layer4">
  <path id="path4505-6" style="opacity:.05;fill-opacity:0;color:#000000;enable-background:accumulate" d="m221.81 124-35.188 71.656v59.25c-4.9399 5.788-10.339 11.62-15.969 17.25-18.503 18.503-39.248 34.687-53.125 39.312l-23.374-23.35-71.656 35.19v170.69h256v-317.56c-15.42-33.45-32.37-45.92-56.69-52.44zm-97.56 229c0.007-0.005 0.0239 0.005 0.0312 0-2.6107 1.6304-5.251 3.2267-7.9062 4.8125 2.6559-1.5856 5.2637-3.1824 7.875-4.8125zm-24.094 14.062c0.008-0.004 0.0234 0.004 0.0312 0-2.7418 1.4991-5.5286 2.9806-8.3125 4.4375 2.7843-1.4568 5.5391-2.9386 8.2813-4.4375z"/>
  <path id="path10" style="stroke-width:1.3333;fill:#fff" d="m261.15 146.58c-39.034 6.8958-78.093 13.587-117.15 20.381v178.1c38.83 6.794 77.687 13.307 116.47 20.355h15.8v-22.901c26.387-0.051 52.775 0.0763 79.137 0 4.2494-0.17806 10.612-0.30585 11.63-5.5986 1.5522-7.3029 0.73747-14.859 0.86476-22.264-0.0254-44.148-0.0752-88.298 0.0521-132.47-0.17805-4.3258 0.1273-9.1085-2.4936-12.874-3.7405-2.5701-8.4735-2.2634-12.774-2.4414-25.471 0.1273-50.944 0.0746-76.415 0.0746v-20.355h-15.115zm15.115 27.989h83.971v160.31h-83.971v-15.267h20.359v-17.813h-20.359v-10.176h20.359v-17.813h-20.359v-10.18h20.359v-17.81h-20.359v-10.18h20.359v-17.813h-20.359v-10.176h20.359v-17.813h-20.359v-15.267zm30.535 15.267v17.813h35.627v-17.813h-35.627zm-70.127 22.801c-6.794 13.919-13.613 27.838-20.534 41.706 6.9976 14.25 14.149 28.396 21.172 42.645-6.1324-0.35625-12.24-0.73784-18.372-1.1704-4.3258-10.611-9.5949-20.864-12.699-31.959-3.4606 10.331-8.3943 20.076-12.364 30.203-5.5726-0.0763-11.149-0.30401-16.721-0.53302 6.5396-12.799 12.852-25.703 19.595-38.426-5.7253-13.105-12.01-25.953-17.914-38.981 5.5981-0.33079 11.198-0.66005 16.796-0.9654 3.7914 9.9493 7.9368 19.768 11.067 29.972 3.3588-10.814 8.3729-20.99 12.673-31.448 5.7508-0.40713 11.526-0.76376 17.303-1.0437zm70.127 5.1886v17.813h35.627v-17.813h-35.627zm0 27.993v17.81h35.627v-17.81h-35.627zm0 27.989v17.813h35.627v-17.813h-35.627zm0 27.989v17.813h35.627v-17.813h-35.627z"/>
 </g>
 <g id="layer5" transform="translate(-32,-32)">
  <path id="path4231" style="opacity:0.04;color:#000000;enable-background:accumulate;fill:#fff" d="m288 56v464h114.16c70.59 0 77.84-7.25 77.84-77.99v-308.02c0-70.741-7.25-77.99-77.84-77.99z"/>
  <path id="path4255" style="opacity:0.04;color:#000000;enable-background:accumulate;fill:#fff" d="m96 288v154.01c-0.346 70.74 7.25 77.99 77.84 77.99h228.31c70.6 0 77.85-7.25 77.85-77.99v-154.01z"/>
 </g>
 <g id="layer1" transform="translate(-32,-32)">
  <path id="path4254" style="opacity:.1;color:#000000;enable-background:accumulate;fill:#fff" d="m360 520 120-120v44.968c-0.1 67.99-7.61 75.03-76.35 75.03z"/>
  <path id="path4286" style="opacity:.3;color:#000000;enable-background:accumulate;fill:#fff" d="m173.84 56c-68.98 0-77.802 6.959-77.846 73.28 0.223-64.487 9.556-71.28 77.846-71.28h228.31c70.6 0 77.85 7.249 77.85 77.99v-2c0-70.741-7.25-77.99-77.84-77.99z"/>
  <path id="path4295" style="opacity:.1;color:#000000;enable-background:accumulate" d="m480 440.01c0 70.74-7.25 77.99-77.84 77.99h-228.32c-68.29 0-77.623-6.79-77.846-71.28 0.044 66.32 8.866 73.28 77.846 73.28h228.31c70.6 0 77.85-7.25 77.85-77.99z"/>
 </g>
</svg>
