<?xml version="1.0" encoding="UTF-8" standalone="no"?>
<!-- Created with Inkscape (http://www.inkscape.org/) -->
<svg id="svg3336" xmlns:rdf="http://www.w3.org/1999/02/22-rdf-syntax-ns#" style="enable-background:new" xmlns="http://www.w3.org/2000/svg" height="512" viewBox="0 0 512 512" width="512" version="1.1" xmlns:cc="http://creativecommons.org/ns#" xmlns:xlink="http://www.w3.org/1999/xlink" xmlns:dc="http://purl.org/dc/elements/1.1/">
 <defs id="defs3338">
  <linearGradient id="linearGradient4226" y2="125.99" gradientUnits="userSpaceOnUse" y1="397.99" gradientTransform="matrix(0 -.90625 -.90622 0 507.91 488)" x2="-0.000001" x1="512">
   <stop id="stop4340-0" style="stop-color:#b52428" offset="0"/>
   <stop id="stop4342-7" style="stop-color:#d32429" offset="1"/>
  </linearGradient>
  <filter id="filter4346" style="color-interpolation-filters:sRGB" height="1.0219" width="1.0265" y="-.010966" x="-.013250">
   <feGaussianBlur id="feGaussianBlur4348" stdDeviation="2.120027"/>
  </filter>
  <linearGradient id="linearGradient4358" y2="488" gradientUnits="userSpaceOnUse" x2="488" y1="88" x1="88">
   <stop id="stop4362" style="stop-opacity:.58824" offset="0"/>
   <stop id="stop4364" style="stop-opacity:0" offset=".88"/>
   <stop id="stop4366" offset="1"/>
  </linearGradient>
  <filter id="filter4380" style="color-interpolation-filters:sRGB" height="1.0877" width="1.106" y="-.043863" x="-.052999">
   <feGaussianBlur id="feGaussianBlur4382" stdDeviation="8.4801079"/>
  </filter>
 </defs>
 <metadata id="metadata3341">
  <rdf:RDF>
   <cc:Work rdf:about="">
    <dc:format>image/svg+xml</dc:format>
    <dc:type rdf:resource="http://purl.org/dc/dcmitype/StillImage"/>
    <dc:title/>
   </cc:Work>
  </rdf:RDF>
 </metadata>
 <g id="layer2" transform="translate(-32,-32)">
  <path id="rect4158-9" style="opacity:.1;color:#000000;filter:url(#filter4346);enable-background:accumulate" d="m173.84 58c-70.59 0-78.186 7.251-77.84 77.99v154.01 154.01c-0.346 70.74 7.25 77.99 77.84 77.99h228.31c70.6 0 77.85-7.25 77.85-77.99v-154.01-154.01c0-70.74-7.25-77.99-77.84-77.99z"/>
  <path id="path4350" d="m173.84 58c-70.59 0-78.186 7.251-77.84 77.99v154.01 154.01c-0.346 70.74 7.25 77.99 77.84 77.99h228.31c70.6 0 77.85-7.25 77.85-77.99v-154.01-154.01c0-70.74-7.25-77.99-77.84-77.99z" style="opacity:.3;color:#000000;filter:url(#filter4380);enable-background:accumulate;fill:url(#linearGradient4358)"/>
 </g>
 <g id="layer3">
  <path id="rect4158" style="color:#000000;enable-background:accumulate;fill:url(#linearGradient4226)" d="m370.15 24c70.593 0 78.189 7.2508 77.843 77.987v308.02c0.35 70.74-7.25 77.99-77.84 77.99h-228.32c-70.591 0-77.841-7.25-77.841-77.99v-308.02c0-70.737 7.2498-77.987 77.843-77.987z"/>
 </g>
 <g id="layer4">
  <path id="path4505-6" style="opacity:.05;fill-opacity:0;color:#000000;enable-background:accumulate" d="m221.81 124-35.188 71.656v59.25c-4.9399 5.788-10.339 11.62-15.969 17.25-18.503 18.503-39.248 34.687-53.125 39.312l-23.374-23.35-71.656 35.19v170.69h256v-317.56c-15.42-33.45-32.37-45.92-56.69-52.44zm-97.56 229c0.007-0.005 0.0239 0.005 0.0312 0-2.6107 1.6304-5.251 3.2267-7.9062 4.8125 2.6559-1.5856 5.2637-3.1824 7.875-4.8125zm-24.094 14.062c0.008-0.004 0.0234 0.004 0.0312 0-2.7418 1.4991-5.5286 2.9806-8.3125 4.4375 2.7843-1.4568 5.5391-2.9386 8.2813-4.4375z"/>
  <path id="path22" style="stroke-width:1.3333;fill:#fff" d="m261.1 146.53c-39 6.9498-78.078 13.594-117.1 20.417v178.15c38.822 6.8225 77.695 13.287 116.47 20.365h15.86v-27.416c24.515 3.4877 49.947 2.5455 73.571-5.2953 8.9864-3.0039 18.917-9.8782 18.026-20.596 0.10177-39.153 0.10177-78.305 0-117.43 0.86554-10.59-8.8099-17.518-17.694-20.547-23.599-8.35-49.311-8.5757-73.903-5.4444v-22.199h-15.222zm41.061 27.957c14.428-0.14167 28.858 1.4817 42.668 5.698 6.0843 2.2657 14.232 4.9873 15.606 12.243-1.0183 5.9315-7.2056 8.6051-12.093 10.743-23.09 7.7899-48.064 8.5298-72.02 4.9149v-31.619c8.525-1.1742 17.182-1.8951 25.839-1.9802zm58.248 30.235c-0.56005 10.947 0.86481 22.023-0.76446 32.868-4.5568 5.4224-11.785 7.3562-18.302 9.2146-21.257 5.015-43.433 5.1428-65.02 2.368v-32.995c17.285 2.1893 34.851 2.165 52.136-0.10062 11.201-1.6547 22.888-4.0743 31.951-11.355zm-146.66 7.4358c8.5282 28.512 16.626 57.175 25.052 85.713-5.8806-0.38185-11.76-0.81532-17.59-1.3499-1.5529-6.3643-3.2086-12.728-4.8888-19.067-7.8154-0.0254-15.632-0.27818-23.422-0.66004-1.502 6.0334-3.0264 12.041-4.5793 18.049-4.9896-0.38186-9.9559-0.7393-14.92-1.0702 7.4335-26.806 15.175-53.51 22.557-80.317 5.9315-0.43276 11.834-0.8395 17.791-1.2977zm-9.5688 15.248c-1.7056 12.092-5.5246 23.725-8.0958 35.639 5.6006 0.0508 11.2 0.079 16.826 0.10444-2.9021-11.914-6.4386-23.677-8.7298-35.743zm156.23 18.049c-0.50913 10.921 0.78972 21.945-0.71226 32.79-4.455 5.4478-11.688 7.3823-18.179 9.2407-21.308 5.066-43.557 5.1919-65.195 2.4425v-33.017c17.336 2.2148 34.953 2.1644 52.289-0.12678 11.176-1.6547 22.786-4.0737 31.798-11.329zm0 40.733c-0.5346 10.921 0.83934 21.994-0.76446 32.838-7.2044 7.8408-18.636 9.2917-28.539 11.303-18.151 2.7748-36.708 2.8272-54.885 0.2051 0.17813-10.972 0.10062-21.918 0.10062-32.89 17.311 2.2148 34.878 2.1644 52.188-0.12678 11.201-1.6293 22.836-4.0736 31.899-11.329z"/>
 </g>
 <g id="layer5" transform="translate(-32,-32)">
  <path id="path4231" style="opacity:0.04;color:#000000;enable-background:accumulate;fill:#fff" d="m288 56v464h114.16c70.59 0 77.84-7.25 77.84-77.99v-308.02c0-70.741-7.25-77.99-77.84-77.99z"/>
  <path id="path4255" style="opacity:0.04;color:#000000;enable-background:accumulate;fill:#fff" d="m96 288v154.01c-0.346 70.74 7.25 77.99 77.84 77.99h228.31c70.6 0 77.85-7.25 77.85-77.99v-154.01z"/>
 </g>
 <g id="layer1" transform="translate(-32,-32)">
  <path id="path4254" style="opacity:.1;color:#000000;enable-background:accumulate;fill:#fff" d="m360 520 120-120v44.968c-0.1 67.99-7.61 75.03-76.35 75.03z"/>
  <path id="path4286" style="opacity:.3;color:#000000;enable-background:accumulate;fill:#fff" d="m173.84 56c-68.98 0-77.802 6.959-77.846 73.28 0.223-64.487 9.556-71.28 77.846-71.28h228.31c70.6 0 77.85 7.249 77.85 77.99v-2c0-70.741-7.25-77.99-77.84-77.99z"/>
  <path id="path4295" style="opacity:.1;color:#000000;enable-background:accumulate" d="m480 440.01c0 70.74-7.25 77.99-77.84 77.99h-228.32c-68.29 0-77.623-6.79-77.846-71.28 0.044 66.32 8.866 73.28 77.846 73.28h228.31c70.6 0 77.85-7.25 77.85-77.99z"/>
 </g>
</svg>
