<?xml version="1.0" encoding="UTF-8" standalone="no"?>
<!-- Created with Inkscape (http://www.inkscape.org/) -->
<svg id="svg3336" xmlns:rdf="http://www.w3.org/1999/02/22-rdf-syntax-ns#" style="enable-background:new" xmlns="http://www.w3.org/2000/svg" height="512" viewBox="0 0 512 512" width="512" version="1.1" xmlns:cc="http://creativecommons.org/ns#" xmlns:xlink="http://www.w3.org/1999/xlink" xmlns:dc="http://purl.org/dc/elements/1.1/">
 <defs id="defs3338">
  <linearGradient id="linearGradient4226" y2="125.99" gradientUnits="userSpaceOnUse" y1="397.99" gradientTransform="matrix(0 -.90625 .90622 0 4.0752 488)" x2="-0.000001" x1="512">
   <stop id="stop4340" style="stop-color:#ebebeb" offset="0"/>
   <stop id="stop4342" style="stop-color:#f5f5f5" offset="1"/>
  </linearGradient>
  <filter id="filter4346" style="color-interpolation-filters:sRGB" height="1.0219" width="1.0265" y="-.010966" x="-.013250">
   <feGaussianBlur id="feGaussianBlur4348" stdDeviation="2.120027"/>
  </filter>
  <linearGradient id="linearGradient4358" y2="488" gradientUnits="userSpaceOnUse" x2="488" y1="88" x1="88">
   <stop id="stop4362" style="stop-opacity:.58824" offset="0"/>
   <stop id="stop4364" style="stop-opacity:0" offset=".88"/>
   <stop id="stop4366" offset="1"/>
  </linearGradient>
  <filter id="filter4380" style="color-interpolation-filters:sRGB" height="1.0877" width="1.106" y="-.043863" x="-.052999">
   <feGaussianBlur id="feGaussianBlur4382" stdDeviation="8.4801079"/>
  </filter>
 </defs>
 <metadata id="metadata3341">
  <rdf:RDF>
   <cc:Work rdf:about="">
    <dc:format>image/svg+xml</dc:format>
    <dc:type rdf:resource="http://purl.org/dc/dcmitype/StillImage"/>
    <dc:title/>
   </cc:Work>
  </rdf:RDF>
 </metadata>
 <g id="layer2" transform="translate(-32,-32)">
  <path id="rect4158-9" style="opacity:.1;color:#000000;filter:url(#filter4346);enable-background:accumulate" d="m173.84 58c-70.59 0-78.186 7.251-77.84 77.99v154.01 154.01c-0.346 70.74 7.25 77.99 77.84 77.99h228.31c70.6 0 77.85-7.25 77.85-77.99v-154.01-154.01c0-70.74-7.25-77.99-77.84-77.99z"/>
  <path id="path4350" d="m173.84 58c-70.59 0-78.186 7.251-77.84 77.99v154.01 154.01c-0.346 70.74 7.25 77.99 77.84 77.99h228.31c70.6 0 77.85-7.25 77.85-77.99v-154.01-154.01c0-70.74-7.25-77.99-77.84-77.99z" style="opacity:.3;color:#000000;filter:url(#filter4380);enable-background:accumulate;fill:url(#linearGradient4358)"/>
 </g>
 <g id="layer3">
  <path id="rect4158" style="color:#000000;enable-background:accumulate;fill:url(#linearGradient4226)" d="m141.84 24c-70.59 0-78.186 7.251-77.84 77.99v154.01 154.01c-0.346 70.74 7.25 77.99 77.84 77.99h228.31c70.6 0 77.85-7.25 77.85-77.99v-154.01-154.01c0-70.737-7.2498-77.987-77.843-77.987z"/>
 </g>
 <g id="layer4">
  <path id="path4505-6" style="opacity:.05;fill-opacity:0;color:#000000;enable-background:accumulate" d="m221.81 124-35.188 71.656v59.25c-4.9399 5.788-10.339 11.62-15.969 17.25-18.503 18.503-39.248 34.687-53.125 39.312l-23.374-23.35-71.656 35.19v170.69h256v-317.56c-15.42-33.45-32.37-45.92-56.69-52.44zm-97.56 229c0.007-0.005 0.0239 0.005 0.0312 0-2.6107 1.6304-5.251 3.2267-7.9062 4.8125 2.6559-1.5856 5.2637-3.1824 7.875-4.8125zm-24.094 14.062c0.008-0.004 0.0234 0.004 0.0312 0-2.7418 1.4991-5.5286 2.9806-8.3125 4.4375 2.7843-1.4568 5.5391-2.9386 8.2813-4.4375z"/>
  <path id="rect4266" style="color:#000000;enable-background:accumulate;fill:#48be23" d="m255.13 125c-4.9331 0-9.3009 0.67156-13.1 2.0158-3.8557 1.396-7.0874 3.2561-9.6957 5.5828s-4.5937 5.0424-5.9546 8.1446-2.039 6.4122-2.039 9.9281c0 2.2232 0.17073 4.214 0.5112 5.972 0.34035 1.8096 0.73731 3.3607 1.1909 4.6532 0.45339 1.3443 0.90575 2.4318 1.3594 3.259 0.45335 0.82729 0.7956 1.5894 1.0224 1.8996l2.2192 3.6192c1.0253 1.6707 1.494 3.1234 1.4 4.3512-0.0467 1.2391-0.77155 2.291-2.1785 3.1544-0.32245 0.1978-0.69255 0.38251-1.1096 0.5577-0.41706 0.17518-0.80322 0.30882-1.1502 0.40085h-73.604v49.809c0.0919 0.34701 0.22576 0.73318 0.40086 1.1502 0.17519 0.41704 0.3599 0.78713 0.55769 1.1096 0.86343 1.4069 1.9153 2.1318 3.1544 2.1785 1.2278 0.0939 2.6804-0.37474 4.3512-1.4l3.6192-2.2192c0.31025-0.22694 1.0724-0.56908 1.8996-1.0224 0.82723-0.45362 1.9148-0.90599 3.259-1.3594 1.2926-0.45359 2.8437-0.85055 4.6533-1.1909 1.7579-0.34053 3.7487-0.51119 5.972-0.51119 3.5158 0 6.8258 0.67817 9.9281 2.039 3.1022 1.3608 5.818 3.3462 8.1446 5.9546 2.3267 2.6083 4.1809 5.84 5.5769 9.6957 1.3443 3.799 2.0216 8.1668 2.0216 13.1 0 4.9331-0.59428 9.3256-1.7835 13.181-1.2409 3.7991-2.9702 7.006-5.1935 9.6144-2.2232 2.6083-4.8856 4.5937-7.9878 5.9546-3.1022 1.3608-6.5429 2.039-10.317 2.039-2.1716 0-4.192-0.14069-6.0533-0.42409-1.8613-0.28345-3.4838-0.6256-4.8798-1.0224-1.396-0.39693-2.5665-0.79404-3.4972-1.1909-0.93066-0.45373-1.3809-0.82029-1.7428-1.1038l-3.6192-2.225c-1.6707-1.0253-3.1234-1.494-4.3512-1.4-1.2391 0.0467-2.291 0.77735-3.1544 2.1843-0.19779 0.32245-0.3825 0.69255-0.55769 1.1096-0.1752 0.41707-0.30895 0.79743-0.40086 1.1444v73.267h73.604c0.34702-0.0919 0.73318-0.22575 1.1502-0.40086 0.41704-0.17518 0.78714-0.35989 1.1096-0.55769 1.4069-0.86342 2.1318-1.9153 2.1785-3.1544 0.0939-1.2278-0.37474-2.6804-1.4-4.3512l-2.2192-3.6192c-0.22694-0.31026-0.56908-1.0724-1.0224-1.8996-0.45363-0.82722-0.90599-1.9147-1.3594-3.259-0.45359-1.2926-0.85055-2.8436-1.1909-4.6532-0.34054-1.7579-0.5112-3.7487-0.5112-5.972 0-3.5158 0.67818-6.8259 2.039-9.9281 1.3609-3.1022 3.3462-5.818 5.9546-8.1446 2.6083-2.3267 5.84-4.1868 9.6957-5.5828 3.7991-1.3443 8.1668-2.0158 13.1-2.0158 4.9331 0 9.3256 0.59428 13.181 1.7835 3.799 1.2409 7.006 2.9702 9.6144 5.1935 2.6083 2.2232 4.5937 4.8856 5.9546 7.9878 1.3608 3.1022 2.039 6.5429 2.039 10.317 0 2.1716-0.14068 4.192-0.42408 6.0533-0.28346 1.8613-0.6256 3.4838-1.0224 4.8798-0.39693 1.396-0.79403 2.5665-1.1909 3.4972-0.45373 0.93065-0.82029 1.3809-1.1038 1.7428l-2.225 3.6192c-1.0253 1.6707-1.494 3.1234-1.4 4.3512 0.0467 1.2391 0.77735 2.291 2.1843 3.1544 0.32245 0.1978 0.69256 0.38251 1.1096 0.55769 0.41706 0.17519 0.79742 0.30895 1.1444 0.40086h49.472v-73.267c0.0919-0.34702 0.22576-0.72738 0.40086-1.1444 0.17519-0.41703 0.35983-0.78713 0.55769-1.1096 0.86343-1.4069 1.9153-2.1377 3.1544-2.1843 1.2278-0.094 2.6804 0.37473 4.3512 1.4l3.6192 2.225c0.36189 0.28346 0.81214 0.65002 1.7428 1.1038 0.93067 0.39687 2.1012 0.79398 3.4972 1.1909 1.396 0.39683 3.0185 0.73892 4.8798 1.0224 1.8613 0.28346 3.8817 0.42409 6.0533 0.42409 3.7744 0 7.2151-0.67819 10.317-2.039 3.1022-1.3609 5.7646-3.3463 7.9878-5.9546 2.2233-2.6083 3.9526-5.8153 5.1935-9.6144 1.1892-3.8557 1.7834-8.2482 1.7834-13.181 0-4.9331-0.67738-9.3009-2.0216-13.1-1.396-3.8557-3.2503-7.0874-5.5769-9.6957s-5.0424-4.5937-8.1446-5.9546-6.4122-2.039-9.9281-2.039c-2.2232 0-4.214 0.17072-5.972 0.51119-1.8096 0.34036-3.3607 0.73732-4.6532 1.1909-1.3443 0.45338-2.4318 0.90575-3.259 1.3594-0.82729 0.45336-1.5894 0.79561-1.8996 1.0224l-3.6192 2.2192c-1.6707 1.0253-3.1234 1.494-4.3512 1.4-1.2391-0.0467-2.291-0.77155-3.1544-2.1785-0.19779-0.32246-0.3825-0.69255-0.55769-1.1096-0.17519-0.41706-0.30883-0.80323-0.40086-1.1502v-49.809h-49.472c-0.34702-0.0919-0.72738-0.22575-1.1444-0.40085-0.41703-0.17519-0.78714-0.35984-1.1096-0.5577-1.4069-0.86342-2.1377-1.9153-2.1843-3.1544-0.0939-1.2278 0.37475-2.6804 1.4-4.3512l2.225-3.6192c0.28346-0.36189 0.65002-0.81215 1.1038-1.7428 0.39688-0.93067 0.79398-2.1012 1.1909-3.4972 0.39684-1.396 0.73892-3.0185 1.0224-4.8798 0.28345-1.8613 0.42408-3.8817 0.42408-6.0533 0-3.7744-0.67819-7.2151-2.039-10.317-1.3609-3.1022-3.3463-5.7646-5.9546-7.9878-2.6083-2.2233-5.8153-3.9526-9.6144-5.1935-3.84-1.19-8.23-1.78-13.16-1.78z"/>
 </g>
 <g id="layer5" transform="translate(-32,-32)">
  <path id="path4231" style="opacity:.1;color:#000000;enable-background:accumulate;fill:#fff" d="m288 56v464h114.16c70.59 0 77.84-7.25 77.84-77.99v-308.02c0-70.741-7.25-77.99-77.84-77.99z"/>
  <path id="path4255" style="opacity:.1;color:#000000;enable-background:accumulate;fill:#fff" d="m96 288v154.01c-0.346 70.74 7.25 77.99 77.84 77.99h228.31c70.6 0 77.85-7.25 77.85-77.99v-154.01z"/>
 </g>
 <g id="layer1" transform="translate(-32,-32)">
  <path id="path4254" style="opacity:.5;color:#000000;enable-background:accumulate;fill:#fff" d="m360 520 120-120v44.968c-0.1 67.99-7.61 75.03-76.35 75.03z"/>
  <path id="path4286" style="opacity:.6;color:#000000;enable-background:accumulate;fill:#fff" d="m173.84 56c-68.98 0-77.802 6.959-77.846 73.28 0.223-64.487 9.556-71.28 77.846-71.28h228.31c70.6 0 77.85 7.249 77.85 77.99v-2c0-70.741-7.25-77.99-77.84-77.99z"/>
  <path id="path4295" style="opacity:.1;color:#000000;enable-background:accumulate" d="m480 440.01c0 70.74-7.25 77.99-77.84 77.99h-228.32c-68.29 0-77.623-6.79-77.846-71.28 0.044 66.32 8.866 73.28 77.846 73.28h228.31c70.6 0 77.85-7.25 77.85-77.99z"/>
 </g>
</svg>
