<?xml version="1.0" encoding="UTF-8" standalone="no"?>
<!-- Created with Inkscape (http://www.inkscape.org/) -->
<svg id="svg3336" xmlns:rdf="http://www.w3.org/1999/02/22-rdf-syntax-ns#" style="enable-background:new" xmlns="http://www.w3.org/2000/svg" height="512" viewBox="0 0 512 512" width="512" version="1.1" xmlns:cc="http://creativecommons.org/ns#" xmlns:xlink="http://www.w3.org/1999/xlink" xmlns:dc="http://purl.org/dc/elements/1.1/">
 <defs id="defs3338">
  <linearGradient id="linearGradient4226" y2="125.99" gradientUnits="userSpaceOnUse" y1="397.99" gradientTransform="matrix(0 -.90625 .90622 0 4.0752 488)" x2="-0.000001" x1="512">
   <stop id="stop4340" style="stop-color:#ebebeb" offset="0"/>
   <stop id="stop4342" style="stop-color:#f5f5f5" offset="1"/>
  </linearGradient>
  <filter id="filter4346" style="color-interpolation-filters:sRGB" height="1.0219" width="1.0265" y="-.010966" x="-.013250">
   <feGaussianBlur id="feGaussianBlur4348" stdDeviation="2.120027"/>
  </filter>
  <linearGradient id="linearGradient4358" y2="488" gradientUnits="userSpaceOnUse" x2="488" y1="88" x1="88">
   <stop id="stop4362" style="stop-opacity:.58824" offset="0"/>
   <stop id="stop4364" style="stop-opacity:0" offset=".88"/>
   <stop id="stop4366" offset="1"/>
  </linearGradient>
  <filter id="filter4380" style="color-interpolation-filters:sRGB" height="1.0877" width="1.106" y="-.043863" x="-.052999">
   <feGaussianBlur id="feGaussianBlur4382" stdDeviation="8.4801079"/>
  </filter>
  <linearGradient id="linearGradient4483" y2="154.4" gradientUnits="userSpaceOnUse" x2="-3.5527e-15" gradientTransform="matrix(0 .90625 .90622 0 4.0752 24)" y1="397.99" x1="512">
   <stop id="stop7709" style="stop-color:#f0692c" offset="0"/>
   <stop id="stop7711" style="stop-color:#993a03" offset="1"/>
  </linearGradient>
  <radialGradient id="radialGradient21562" gradientUnits="userSpaceOnUse" cy="-754.64" cx="152.33" gradientTransform="matrix(.0000038407 .27074 -4.0434 0 -2202 -1535.9)" r="15">
   <stop id="stop10464-0" style="stop-color:#808080;stop-opacity:0.502" offset="0"/>
   <stop id="stop10466-1" style="stop-opacity:0" offset="1"/>
  </radialGradient>
  <linearGradient id="linearGradient4407" y2="-1510.6" xlink:href="#linearGradient10423" gradientUnits="userSpaceOnUse" x2="850.25" y1="-1506.6" x1="850.25"/>
  <linearGradient id="linearGradient10423">
   <stop id="stop10425" style="stop-color:#808080" offset="0"/>
   <stop id="stop10427" style="stop-color:#333" offset="1"/>
  </linearGradient>
  <linearGradient id="linearGradient21568" y2="-1116.8" gradientUnits="userSpaceOnUse" x2="809.62" gradientTransform="matrix(2.0333 0 0 2.0476 -752.27 686.81)" y1="-1074.8" x1="809.62">
   <stop id="stop13793" style="stop-color:#d36118" offset="0"/>
   <stop id="stop13795" style="stop-color:#f09e6f" offset="1"/>
  </linearGradient>
  <linearGradient id="linearGradient21570" y2="-1115.6" gradientUnits="userSpaceOnUse" x2="812" gradientTransform="matrix(2.0333 0 0 2.15 -752.27 798.98)" y1="-1075.6" x1="812">
   <stop id="stop9931" style="stop-color:#edbfa1" offset="0"/>
   <stop id="stop9933" style="stop-color:#fdf1ea" offset="1"/>
  </linearGradient>
  <radialGradient id="radialGradient21574" gradientUnits="userSpaceOnUse" cy="-853" cx="-1535.5" gradientTransform="matrix(-3.3157 0 0 -3.2 -6604 -3579.6)" r="10">
   <stop id="stop10140" style="stop-color:#fff" offset="0"/>
   <stop id="stop10142" style="stop-color:#ffd5d5;stop-opacity:0" offset="1"/>
  </radialGradient>
  <linearGradient id="linearGradient21576" y2="-1525.6" xlink:href="#linearGradient10658" gradientUnits="userSpaceOnUse" x2="825.25" y1="-1559.6" x1="825.25"/>
  <linearGradient id="linearGradient10658">
   <stop id="stop10660" style="stop-color:#b84603" offset="0"/>
   <stop id="stop10662" style="stop-color:#622502" offset="1"/>
  </linearGradient>
  <linearGradient id="linearGradient21578" y2="735.75" xlink:href="#linearGradient10391" gradientUnits="userSpaceOnUse" x2="895.5" y1="647.81" x1="895.5"/>
  <linearGradient id="linearGradient10391">
   <stop id="stop10393" style="stop-color:#e67325" offset="0"/>
   <stop id="stop10395" style="stop-color:#c8400c" offset="1"/>
  </linearGradient>
  <linearGradient id="linearGradient21580" y2="-1589.1" gradientUnits="userSpaceOnUse" x2="902" y1="-1589.1" x1="798.25">
   <stop id="stop10228" style="stop-color:#8e2103" offset="0"/>
   <stop id="stop10236" style="stop-color:#e46f1f" offset=".16905"/>
   <stop id="stop10234" style="stop-color:#e66d20" offset=".83809"/>
   <stop id="stop10230" style="stop-color:#922504" offset="1"/>
  </linearGradient>
  <linearGradient id="linearGradient21582" y2="-1524.4" gradientUnits="userSpaceOnUse" x2="902.25" y1="-1534.4" x1="902.25">
   <stop id="stop10684" style="stop-color:#808080" offset="0"/>
   <stop id="stop10686" style="stop-color:#606060" offset="1"/>
  </linearGradient>
  <linearGradient id="linearGradient21584" y2="-1079.2" gradientUnits="userSpaceOnUse" x2="714" gradientTransform="matrix(1.1795 0 0 1.5 10.846 67.819)" y1="-1063.6" x1="714">
   <stop id="stop8986" style="stop-color:#fff" offset="0"/>
   <stop id="stop8988" style="stop-color:#fff;stop-opacity:0" offset="1"/>
  </linearGradient>
  <linearGradient id="linearGradient21586" y2="-1042.6" gradientUnits="userSpaceOnUse" x2="879" gradientTransform="matrix(2 0 0 2 -898 556.64)" y1="-1054.6" x1="889">
   <stop id="stop13216" style="stop-color:#18a303" offset="0"/>
   <stop id="stop13218" style="stop-color:#106802" offset="1"/>
  </linearGradient>
  <linearGradient id="linearGradient21588" y2="-1575.7" gradientUnits="userSpaceOnUse" x2="882.24" y1="-1575.7" x1="818.03">
   <stop id="stop10369" style="stop-color:#8e2103" offset="0"/>
   <stop id="stop10371" style="stop-color:#e45c1f" offset=".16905"/>
   <stop id="stop10373" style="stop-color:#e45c1f" offset=".83809"/>
   <stop id="stop10375" style="stop-color:#922504" offset="1"/>
  </linearGradient>
  <linearGradient id="linearGradient21590" y2="-1194.6" xlink:href="#linearGradient9014" gradientUnits="userSpaceOnUse" x2="144" gradientTransform="matrix(.72671 0 0 1 802.35 -405)" y1="-1194.6" x1="-17"/>
  <linearGradient id="linearGradient9014">
   <stop id="stop9016" style="stop-color:#fff;stop-opacity:0" offset="0"/>
   <stop id="stop9018" style="stop-color:#fff" offset=".49306"/>
   <stop id="stop9020" style="stop-color:#fff;stop-opacity:0" offset="1"/>
  </linearGradient>
  <linearGradient id="linearGradient21594" y2="709.5" xlink:href="#linearGradient10391" gradientUnits="userSpaceOnUse" x2="895.5" y1="621.56" x1="895.5"/>
  <linearGradient id="linearGradient21598" y2="683.25" xlink:href="#linearGradient10391" gradientUnits="userSpaceOnUse" x2="895.5" y1="595.31" x1="895.5"/>
  <linearGradient id="linearGradient21602" y2="657" xlink:href="#linearGradient10391" gradientUnits="userSpaceOnUse" x2="895.5" y1="569.06" x1="895.5"/>
  <linearGradient id="linearGradient21604" y2="-1194.6" xlink:href="#linearGradient8074-2" gradientUnits="userSpaceOnUse" x2="144" gradientTransform="matrix(.64596 0 0 1 808.98 -396)" y1="-1194.6" x1="-17"/>
  <linearGradient id="linearGradient8074-2">
   <stop id="stop8076-1" style="stop-opacity:0" offset="0"/>
   <stop id="stop8078-94" offset=".49306"/>
   <stop id="stop8080-0" style="stop-opacity:0" offset="1"/>
  </linearGradient>
  <linearGradient id="linearGradient21606" y2="-1194.6" xlink:href="#linearGradient8074-2" gradientUnits="userSpaceOnUse" x2="144" gradientTransform="matrix(.39752 0 0 1 824.76 -386)" y1="-1194.6" x1="-17"/>
  <linearGradient id="linearGradient21608" y2="-1194.6" xlink:href="#linearGradient8074-2" gradientUnits="userSpaceOnUse" x2="144" gradientTransform="matrix(.72050 0 0 1 804.25 -319)" y1="-1194.6" x1="-17"/>
  <linearGradient id="linearGradient21612" y2="-1194.6" xlink:href="#linearGradient9014" gradientUnits="userSpaceOnUse" x2="144" gradientTransform="matrix(.28611 0 0 1 858.01 -333.94)" y1="-1194.6" x1="-17"/>
  <linearGradient id="linearGradient21618" y2="-1048.6" gradientUnits="userSpaceOnUse" x2="887" gradientTransform="matrix(2 0 0 2 -898 556.64)" y1="-1042.6" x1="881">
   <stop id="stop10619" style="stop-color:#78db67" offset="0"/>
   <stop id="stop10621" style="stop-color:#ccf4c6" offset="1"/>
  </linearGradient>
  <radialGradient id="radialGradient5744" gradientUnits="userSpaceOnUse" cy="-754.64" cx="152.33" gradientTransform="matrix(7.9353e-7 .16921 -.83542 0 197.03 -1518)" r="15">
   <stop id="stop16136-6-3-7" style="stop-opacity:.50196" offset="0"/>
   <stop id="stop16138-4-6-2" style="stop-opacity:0" offset="1"/>
  </radialGradient>
  <linearGradient id="linearGradient5748" y2="-1574.6" gradientUnits="userSpaceOnUse" x2="535" gradientTransform="matrix(1.6667 0 0 7 -91.667 9465.8)" y1="-1568.6" x1="529.25">
   <stop id="stop10146" style="stop-color:#f00" offset="0"/>
   <stop id="stop10148" style="stop-color:#ffc600;stop-opacity:0" offset="1"/>
  </linearGradient>
  <linearGradient id="linearGradient5750" y2="-1194.6" xlink:href="#linearGradient8074-2" gradientUnits="userSpaceOnUse" x2="144" gradientTransform="matrix(.28611 0 0 1 857.86 -364)" y1="-1194.6" x1="-17"/>
  <linearGradient id="linearGradient5752" y2="-1194.6" xlink:href="#linearGradient8074-2" gradientUnits="userSpaceOnUse" x2="144" gradientTransform="matrix(.18634 0 0 1 813.17 -365)" y1="-1194.6" x1="-17"/>
  <linearGradient id="linearGradient5754" y2="-1194.6" gradientUnits="userSpaceOnUse" x2="144" gradientTransform="matrix(.50932 0 0 1 -1589 403.64)" y1="-1194.6" x1="-17">
   <stop id="stop11602" style="stop-color:#d40000;stop-opacity:0" offset="0"/>
   <stop id="stop11604" style="stop-color:#d40000" offset=".49306"/>
   <stop id="stop11606" style="stop-color:#d40000;stop-opacity:0" offset="1"/>
  </linearGradient>
 </defs>
 <metadata id="metadata3341">
  <rdf:RDF>
   <cc:Work rdf:about="">
    <dc:format>image/svg+xml</dc:format>
    <dc:type rdf:resource="http://purl.org/dc/dcmitype/StillImage"/>
    <dc:title/>
   </cc:Work>
  </rdf:RDF>
 </metadata>
 <g id="layer2" transform="translate(-32,-32)">
  <path id="rect4158-9" style="opacity:.1;color:#000000;filter:url(#filter4346);enable-background:accumulate" d="m173.84 58c-70.59 0-78.186 7.251-77.84 77.99v154.01 154.01c-0.346 70.74 7.25 77.99 77.84 77.99h228.31c70.6 0 77.85-7.25 77.85-77.99v-154.01-154.01c0-70.74-7.25-77.99-77.84-77.99z"/>
  <path id="path4350" d="m173.84 58c-70.59 0-78.186 7.251-77.84 77.99v154.01 154.01c-0.346 70.74 7.25 77.99 77.84 77.99h228.31c70.6 0 77.85-7.25 77.85-77.99v-154.01-154.01c0-70.74-7.25-77.99-77.84-77.99z" style="opacity:.3;color:#000000;filter:url(#filter4380);enable-background:accumulate;fill:url(#linearGradient4358)"/>
 </g>
 <g id="layer3">
  <path id="rect4158" style="color:#000000;enable-background:accumulate;fill:url(#linearGradient4226)" d="m141.84 24c-70.59 0-78.186 7.251-77.84 77.99v154.01 154.01c-0.346 70.74 7.25 77.99 77.84 77.99h228.31c70.6 0 77.85-7.25 77.85-77.99v-154.01-154.01c0-70.737-7.2498-77.987-77.843-77.987z"/>
  <path id="path4481" style="color:#000000;enable-background:accumulate;fill:url(#linearGradient4483)" d="m141.84 24c-70.59 0-78.186 7.25-77.84 77.99v308.02c-0.346 70.74 7.25 77.99 77.84 77.99h228.31c70.6 0 77.85-7.25 77.85-77.99v-273.26l-15.97-15.97v289.23c0 17.411-0.53086 30.534-2.0156 39.385-1.4848 8.8508-3.5669 12.647-5.7637 14.848-2.1968 2.2005-5.9717 4.2786-14.797 5.7637-8.8252 1.4851-21.918 2.0156-39.293 2.0156h-228.31c-17.375 0-30.491-0.53065-39.35-2.0176-8.8585-1.4869-12.682-3.5776-14.893-5.7832-2.2109-2.2056-4.2864-5.9748-5.7539-14.803-1.4675-8.828-1.9581-21.933-1.873-39.33 0.000064-0.026 0.000064-0.0521 0-0.0781v-308.02c0.000064-0.026 0.000064-0.0521 0-0.0781-0.08509-17.397 0.40558-30.502 1.873-39.33 1.4675-8.8279 3.5431-12.597 5.7539-14.803 2.2109-2.2056 6.0341-4.2963 14.893-5.7832 8.8585-1.4869 21.975-2.0176 39.35-2.0176h209.37l-15.97-15.978zm186.16 0 15.97 15.975 88.06 88.055 15.97 15.97v-44.967c-0.1-67.991-7.6-75.033-76.35-75.033z"/>
 </g>
 <g id="layer4">
  <path id="path4505-6" style="opacity:.05;fill-opacity:0;color:#000000;enable-background:accumulate" d="m221.81 124-35.188 71.656v59.25c-4.9399 5.788-10.339 11.62-15.969 17.25-18.503 18.503-39.248 34.687-53.125 39.312l-23.374-23.35-71.656 35.19v170.69h256v-317.56c-15.42-33.45-32.37-45.92-56.69-52.44zm-97.56 229c0.007-0.005 0.0239 0.005 0.0312 0-2.6107 1.6304-5.251 3.2267-7.9062 4.8125 2.6559-1.5856 5.2637-3.1824 7.875-4.8125zm-24.094 14.062c0.008-0.004 0.0234 0.004 0.0312 0-2.7418 1.4991-5.5286 2.9806-8.3125 4.4375 2.7843-1.4568 5.5391-2.9386 8.2813-4.4375z"/>
  <g id="g21475" transform="matrix(1.75 0 0 1.75 -1231.5 2961.7)">
   <rect id="rect10490" style="opacity:.5;color:#000000;fill:url(#radialGradient5744)" height="5" width="25" y="-1494.6" x="815"/>
   <rect id="rect10563" style="opacity:.4;color:#000000;fill:url(#radialGradient21562)" height="8" width="121" y="-1498.6" x="789"/>
   <path id="path10476" d="m846.24-1508.6-24.242 16h9.7688l3.3981-1.114 18.833-14.886z" style="fill:#4d4d4d"/>
   <use id="use14177" xlink:href="#path10476" transform="matrix(-1,0,0,1,1699,0)" height="1085" width="5033" y="0" x="0"/>
   <path id="path10478" d="m854-1508.6 24 16h-10.011l-3.0862-0.878-18.903-15.122z" style="fill:#4d4d4d"/>
   <path id="path9896" d="m844.24-1508.6-24.242 16h11.758l20.242-16h-7.7576z" style="fill:url(#linearGradient4407)"/>
   <rect id="rect9898" style="color:#000000;fill:url(#linearGradient4407)" height="6.0001" width="12" y="-1512.6" x="844"/>
   <rect id="rect9902" style="color:#000000;fill:#a33e03" rx="1" ry="1" height="92" width="128" y="-1602.6" x="786"/>
   <rect id="rect9904" style="color:#000000;fill:url(#linearGradient21568)" rx="2" ry="2" height="86" width="122" y="-1599.6" x="789"/>
   <rect id="rect9906" style="color:#000000;fill:url(#linearGradient21570)" rx="2" ry="2" height="86" width="122" y="-1599.6" x="789"/>
   <rect id="rect10082" style="opacity:.35;color:#000000;fill:url(#linearGradient5748)" rx="2" ry="2" height="84" width="20" y="-1598.6" x="790"/>
   <rect id="rect10603" style="opacity:.5;color:#000000;fill:#fff" height="36" width="52" y="-1559.6" x="850"/>
   <rect id="rect10090" style="color:#000000;fill:url(#radialGradient21574)" transform="rotate(90)" height="64" width="32" y="-882" x="-1545.6"/>
   <g id="g10220" style="opacity:.5">
    <rect id="rect10204" style="color:#000000;fill:#fff" height="4" width="30" y="-1558.6" x="810"/>
    <rect id="rect10206" style="color:#000000;fill:#fff" height="4" width="30" y="-1548.6" x="810"/>
    <rect id="rect10208" style="color:#000000;fill:#fff" height="4" width="30" y="-1538.6" x="810"/>
    <rect id="rect10210" style="color:#000000;fill:#fff" height="4" width="30" y="-1528.6" x="810"/>
   </g>
   <rect id="rect9910" style="color:#000000;fill:url(#linearGradient21576)" height="4" width="30" y="-1559.6" x="810"/>
   <g id="g10182">
    <path id="path10176" d="m901 651.75a5.5 5.25 0 1 1 -11 0 5.5 5.25 0 1 1 11 0z" style="color:#000000;fill:#fff" transform="matrix(.36364 0 0 .38095 476.36 -1794.9)"/>
    <path id="path10178" d="m901 651.75a5.5 5.25 0 1 1 -11 0 5.5 5.25 0 1 1 11 0z" style="color:#000000;fill:#fff" transform="matrix(.36364 0 0 .38095 476.36 -1784.9)"/>
    <path id="path10174" d="m901 651.75a5.5 5.25 0 1 1 -11 0 5.5 5.25 0 1 1 11 0z" style="color:#000000;fill:#fff" transform="matrix(.36364 0 0 .38095 476.36 -1804.9)"/>
    <path id="path10180" d="m901 651.75a5.5 5.25 0 1 1 -11 0 5.5 5.25 0 1 1 11 0z" style="color:#000000;fill:#fff" transform="matrix(.36364 0 0 .38095 476.36 -1774.9)"/>
   </g>
   <path id="path9916" d="m901 651.75a5.5 5.25 0 1 1 -11 0 5.5 5.25 0 1 1 11 0z" style="color:#000000;fill:url(#linearGradient21578)" transform="matrix(.36364 0 0 .38095 476.36 -1805.9)"/>
   <rect id="rect10287" style="color:#000000;fill:#fff" height="5" width="104" y="-1589.6" x="798"/>
   <rect id="rect9922" style="color:#000000;fill:url(#linearGradient21580)" height="5" width="104" y="-1590.6" x="798"/>
   <rect id="rect9926" style="color:#000000;fill:url(#linearGradient21582)" height="36" width="52" y="-1560.6" x="850"/>
   <rect id="rect9928" style="color:#000000;fill:#dfdfdf" height="30" width="46" y="-1557.6" x="853"/>
   <rect id="rect9930" style="color:#000000;fill:url(#linearGradient21584)" height="30" width="46" y="-1557.6" x="853"/>
   <rect id="rect9936" style="opacity:.05;color:#000000" height="2" width="40" y="-1552.6" x="856"/>
   <path id="path9942" d="m859-1533.6 11-11 8 8 15-15" style="stroke-linejoin:round;stroke:url(#linearGradient21586);stroke-linecap:round;stroke-width:3;fill:none"/>
   <rect id="rect10289" style="color:#000000;fill:#fff" height="5" width="64" y="-1579.6" x="818"/>
   <rect id="rect9948" style="color:#000000;fill:url(#linearGradient21588)" height="5" width="64" y="-1580.6" x="818"/>
   <rect id="rect10100" style="color:#000000;fill:url(#linearGradient21590)" height="1" width="117" y="-1599.6" x="790"/>
   <rect id="rect10156" style="color:#000000;fill:url(#linearGradient21576)" height="4" width="30" y="-1549.6" x="810"/>
   <path id="path10158" d="m901 651.75a5.5 5.25 0 1 1 -11 0 5.5 5.25 0 1 1 11 0z" style="color:#000000;fill:url(#linearGradient21594)" transform="matrix(.36364 0 0 .38095 476.36 -1795.9)"/>
   <rect id="rect10162" style="color:#000000;fill:url(#linearGradient21576)" height="4" width="30" y="-1539.6" x="810"/>
   <path id="path10164" d="m901 651.75a5.5 5.25 0 1 1 -11 0 5.5 5.25 0 1 1 11 0z" style="color:#000000;fill:url(#linearGradient21598)" transform="matrix(.36364 0 0 .38095 476.36 -1785.9)"/>
   <rect id="rect10168" style="color:#000000;fill:url(#linearGradient21576)" height="4" width="30" y="-1529.6" x="810"/>
   <path id="path10170" d="m901 651.75a5.5 5.25 0 1 1 -11 0 5.5 5.25 0 1 1 11 0z" style="color:#000000;fill:url(#linearGradient21602)" transform="matrix(.36364 0 0 .38095 476.36 -1775.9)"/>
   <rect id="rect10320" style="opacity:.25;color:#000000;fill:url(#linearGradient21604)" height="1" width="104" y="-1590.6" x="798"/>
   <rect id="rect10324" style="opacity:.5;color:#000000;fill:url(#linearGradient21606)" height="1" width="64" y="-1580.6" x="818"/>
   <rect id="rect10448" style="opacity:.5;color:#000000;fill:url(#linearGradient21608)" height="1" width="116" y="-1513.6" x="792"/>
   <rect id="rect10629" style="opacity:.25;color:#000000;fill:url(#linearGradient5750)" height="1" width="46.063" y="-1558.6" x="853"/>
   <rect id="rect10638" style="color:#000000;fill:url(#linearGradient21612)" height="1" width="46.063" y="-1528.6" x="853.15"/>
   <rect id="rect10652" style="opacity:.25;color:#000000;fill:url(#linearGradient5752)" height="1" width="30" y="-1559.6" x="810"/>
   <rect id="rect11596" style="opacity:.15;color:#000000;fill:url(#linearGradient5754)" transform="rotate(90)" height="1" width="82" y="-791" x="-1597.6"/>
   <use id="use14087" xlink:href="#rect11596" transform="translate(119)" height="1085" width="5033" y="0" x="0"/>
   <use id="use14089" xlink:href="#rect10082" transform="matrix(-1,0,0,1,1700,0)" height="1085" width="5033" y="0" x="0"/>
   <use id="use14091" xlink:href="#rect10652" transform="translate(0,10)" height="1085" width="5033" y="0" x="0"/>
   <use id="use14093" xlink:href="#rect10652" transform="translate(0,20)" height="1085" width="5033" y="0" x="0"/>
   <use id="use14095" xlink:href="#rect10652" transform="translate(0,30)" height="1085" width="5033" y="0" x="0"/>
   <use id="use14097" xlink:href="#rect10629" transform="translate(0,31)" height="1085" width="5033" y="0" x="0"/>
   <use id="use14103" xlink:href="#rect9936" transform="translate(0,6)" height="1085" width="5033" y="0" x="0"/>
   <use id="use14105" xlink:href="#rect9936" transform="translate(0,12)" height="1085" width="5033" y="0" x="0"/>
   <use id="use14107" xlink:href="#rect9936" transform="translate(0,17)" height="1085" width="5033" y="0" x="0"/>
   <path id="path9945" d="m859-1533.6 11-11 8 8 15-15" style="stroke-linejoin:round;stroke:url(#linearGradient21618);stroke-linecap:round;stroke-width:1.5;fill:none"/>
   <use id="use14175" xlink:href="#rect10490" transform="matrix(-1,0,0,1,1699,0)" height="1085" width="5033" y="0" x="0"/>
   <use id="use14179" xlink:href="#path9896" transform="matrix(-1,0,0,1,1699,0)" height="1085" width="5033" y="0" x="0"/>
  </g>
 </g>
 <g id="layer5" transform="translate(-32,-32)">
  <path id="path4231" style="opacity:.07;color:#000000;enable-background:accumulate;fill:#fff" d="m288 56v464h114.16c70.59 0 77.84-7.25 77.84-77.99v-308.02c0-70.741-7.25-77.99-77.84-77.99z"/>
  <path id="path4255" style="opacity:.07;color:#000000;enable-background:accumulate;fill:#fff" d="m96 288v154.01c-0.346 70.74 7.25 77.99 77.84 77.99h228.31c70.6 0 77.85-7.25 77.85-77.99v-154.01z"/>
 </g>
 <g id="layer1" transform="translate(-32,-32)">
  <path id="path4254" style="opacity:.15;color:#000000;enable-background:accumulate;fill:#fff" d="m360 520 120-120v44.968c-0.1 67.99-7.61 75.03-76.35 75.03z"/>
  <path id="path4286" style="opacity:.3;color:#000000;enable-background:accumulate;fill:#fff" d="m173.84 56c-68.98 0-77.802 6.959-77.846 73.28 0.223-64.487 9.556-71.28 77.846-71.28h228.31c70.6 0 77.85 7.249 77.85 77.99v-2c0-70.741-7.25-77.99-77.84-77.99z"/>
  <path id="path4295" style="opacity:.1;color:#000000;enable-background:accumulate" d="m480 440.01c0 70.74-7.25 77.99-77.84 77.99h-228.31c-68.3 0-77.633-6.79-77.856-71.28 0.044 66.32 8.866 73.28 77.846 73.28h228.31c70.6 0 77.85-7.25 77.85-77.99z"/>
 </g>
</svg>
