<?xml version="1.0" encoding="UTF-8" standalone="no"?>
<!-- Created with Inkscape (http://www.inkscape.org/) -->
<svg id="svg3336" xmlns:rdf="http://www.w3.org/1999/02/22-rdf-syntax-ns#" style="enable-background:new" xmlns="http://www.w3.org/2000/svg" height="512" viewBox="0 0 512 512" width="512" version="1.1" xmlns:cc="http://creativecommons.org/ns#" xmlns:xlink="http://www.w3.org/1999/xlink" xmlns:dc="http://purl.org/dc/elements/1.1/">
 <defs id="defs3338">
  <linearGradient id="linearGradient4226" y2="125.99" gradientUnits="userSpaceOnUse" y1="397.99" gradientTransform="matrix(0 -.90625 .90622 0 4.0752 488)" x2="-0.000001" x1="512">
   <stop id="stop4340" style="stop-color:#ebebeb" offset="0"/>
   <stop id="stop4342" style="stop-color:#f5f5f5" offset="1"/>
  </linearGradient>
  <filter id="filter4346" style="color-interpolation-filters:sRGB" height="1.0219" width="1.0265" y="-.010966" x="-.013250">
   <feGaussianBlur id="feGaussianBlur4348" stdDeviation="2.120027"/>
  </filter>
  <linearGradient id="linearGradient4358" y2="488" gradientUnits="userSpaceOnUse" x2="488" y1="88" x1="88">
   <stop id="stop4362" style="stop-opacity:.58824" offset="0"/>
   <stop id="stop4364" style="stop-opacity:0" offset=".88"/>
   <stop id="stop4366" offset="1"/>
  </linearGradient>
  <filter id="filter4380" style="color-interpolation-filters:sRGB" height="1.0877" width="1.106" y="-.043863" x="-.052999">
   <feGaussianBlur id="feGaussianBlur4382" stdDeviation="8.4801079"/>
  </filter>
 </defs>
 <metadata id="metadata3341">
  <rdf:RDF>
   <cc:Work rdf:about="">
    <dc:format>image/svg+xml</dc:format>
    <dc:type rdf:resource="http://purl.org/dc/dcmitype/StillImage"/>
    <dc:title/>
   </cc:Work>
  </rdf:RDF>
 </metadata>
 <g id="layer2" transform="translate(-32,-32)">
  <path id="rect4158-9" style="opacity:.1;color:#000000;filter:url(#filter4346);enable-background:accumulate" d="m173.84 58c-70.59 0-78.186 7.251-77.84 77.99v154.01 154.01c-0.346 70.74 7.25 77.99 77.84 77.99h228.31c70.6 0 77.85-7.25 77.85-77.99v-154.01-154.01c0-70.74-7.25-77.99-77.84-77.99z"/>
  <path id="path4350" d="m173.84 58c-70.59 0-78.186 7.251-77.84 77.99v154.01 154.01c-0.346 70.74 7.25 77.99 77.84 77.99h228.31c70.6 0 77.85-7.25 77.85-77.99v-154.01-154.01c0-70.74-7.25-77.99-77.84-77.99z" style="opacity:.3;color:#000000;filter:url(#filter4380);enable-background:accumulate;fill:url(#linearGradient4358)"/>
 </g>
 <g id="layer3">
  <path id="rect4158" style="color:#000000;enable-background:accumulate;fill:url(#linearGradient4226)" d="m141.84 24c-70.59 0-78.186 7.251-77.84 77.99v154.01 154.01c-0.346 70.74 7.25 77.99 77.84 77.99h228.31c70.6 0 77.85-7.25 77.85-77.99v-154.01-154.01c0-70.737-7.2498-77.987-77.843-77.987z"/>
 </g>
 <g id="layer4">
  <path id="path4505-6" style="opacity:.05;fill-opacity:0;color:#000000;enable-background:accumulate" d="m221.81 124-35.188 71.656v59.25c-4.9399 5.788-10.339 11.62-15.969 17.25-18.503 18.503-39.248 34.687-53.125 39.312l-23.374-23.35-71.656 35.19v170.69h256v-317.56c-15.42-33.45-32.37-45.92-56.69-52.44zm-97.56 229c0.007-0.005 0.0239 0.005 0.0312 0-2.6107 1.6304-5.251 3.2267-7.9062 4.8125 2.6559-1.5856 5.2637-3.1824 7.875-4.8125zm-24.094 14.062c0.008-0.004 0.0234 0.004 0.0312 0-2.7418 1.4991-5.5286 2.9806-8.3125 4.4375 2.7843-1.4568 5.5391-2.9386 8.2813-4.4375z"/>
  <g id="g4260" style="stroke-width:.52986" transform="matrix(1.8873 0 0 1.8873 135.21 135.21)">
   <path id="path4262" style="stroke-width:.56574;fill:#1978c9" d="m63.243-0.28464c-5.244 0.02436-10.251 0.47156-14.658 1.2512-12.979 2.2931-15.336 7.0928-15.336 15.944v11.69h30.673v3.8967h-30.673-11.511c-8.9145 0-16.72 5.3581-19.162 15.551-2.8163 11.683-2.9412 18.974 0 31.174 2.1804 9.0808 7.3873 15.551 16.302 15.551h10.546v-14.014c0-10.124 8.7597-19.055 19.162-19.055h30.637c8.5284 0 15.337-7.022 15.337-15.587v-29.207c-0.001-8.3127-7.013-14.557-15.337-15.944-5.269-0.87754-10.737-1.276-15.98-1.2516zm-16.588 9.4021c3.1683 0 5.7557 2.6296 5.7557 5.8629-0.000002 3.2218-2.5874 5.8272-5.7557 5.8272-3.1797-0.000012-5.7557-2.6053-5.7557-5.8272-0.000001-3.2333 2.576-5.8629 5.7557-5.8629z"/>
   <path id="path4264" style="stroke-width:.56574;fill:#fbc111" d="m98.385 32.498v13.621c0 10.56-8.9527 19.448-19.162 19.448h-30.637c-8.3921 0-15.337 7.1825-15.337 15.587v29.207c0 8.3126 7.2284 13.202 15.337 15.587 9.7094 2.8549 19.02 3.3709 30.637 0 7.7221-2.2358 15.337-6.7353 15.337-15.587v-11.69h-30.637v-3.8967h30.637 15.337c8.9145 0 12.236-6.218 15.337-15.551 3.2024-9.6082 3.0661-18.848 0-31.174-2.2031-8.8744-6.4108-15.551-15.337-15.551h-11.511zm-17.231 73.966c3.1797 0 5.7557 2.6053 5.7557 5.8272-0.000002 3.2333-2.576 5.8629-5.7557 5.8629-3.1683 0-5.7557-2.6296-5.7557-5.8629 0.000002-3.2218 2.5874-5.8272 5.7557-5.8272z"/>
  </g>
 </g>
 <g id="layer5" transform="translate(-32,-32)">
  <path id="path4231" style="opacity:.1;color:#000000;enable-background:accumulate;fill:#fff" d="m288 56v464h114.16c70.59 0 77.84-7.25 77.84-77.99v-308.02c0-70.741-7.25-77.99-77.84-77.99z"/>
  <path id="path4255" style="opacity:.1;color:#000000;enable-background:accumulate;fill:#fff" d="m96 288v154.01c-0.346 70.74 7.25 77.99 77.84 77.99h228.31c70.6 0 77.85-7.25 77.85-77.99v-154.01z"/>
 </g>
 <g id="layer1" transform="translate(-32,-32)">
  <path id="path4254" style="opacity:.5;color:#000000;enable-background:accumulate;fill:#fff" d="m360 520 120-120v44.968c-0.1 67.99-7.61 75.03-76.35 75.03z"/>
  <path id="path4286" style="opacity:.6;color:#000000;enable-background:accumulate;fill:#fff" d="m173.84 56c-68.98 0-77.802 6.959-77.846 73.28 0.223-64.487 9.556-71.28 77.846-71.28h228.31c70.6 0 77.85 7.249 77.85 77.99v-2c0-70.741-7.25-77.99-77.84-77.99z"/>
  <path id="path4295" style="opacity:.1;color:#000000;enable-background:accumulate" d="m480 440.01c0 70.74-7.25 77.99-77.84 77.99h-228.32c-68.29 0-77.623-6.79-77.846-71.28 0.044 66.32 8.866 73.28 77.846 73.28h228.31c70.6 0 77.85-7.25 77.85-77.99z"/>
 </g>
</svg>
