<?xml version="1.0" encoding="UTF-8" standalone="no"?>
<!-- Created with Inkscape (http://www.inkscape.org/) -->
<svg id="svg3336" xmlns:rdf="http://www.w3.org/1999/02/22-rdf-syntax-ns#" style="enable-background:new" xmlns="http://www.w3.org/2000/svg" height="512" viewBox="0 0 512 512" width="512" version="1.1" xmlns:cc="http://creativecommons.org/ns#" xmlns:xlink="http://www.w3.org/1999/xlink" xmlns:dc="http://purl.org/dc/elements/1.1/">
 <defs id="defs3338">
  <linearGradient id="linearGradient4226" y2="125.99" gradientUnits="userSpaceOnUse" y1="397.99" gradientTransform="matrix(0 -.90625 .90622 0 4.0752 488)" x2="-0.000001" x1="512">
   <stop id="stop4340" style="stop-color:#ebebeb" offset="0"/>
   <stop id="stop4342" style="stop-color:#f5f5f5" offset="1"/>
  </linearGradient>
  <filter id="filter4346" style="color-interpolation-filters:sRGB" height="1.0219" width="1.0265" y="-.010966" x="-.013250">
   <feGaussianBlur id="feGaussianBlur4348" stdDeviation="2.120027"/>
  </filter>
  <linearGradient id="linearGradient4358" y2="488" gradientUnits="userSpaceOnUse" x2="488" y1="88" x1="88">
   <stop id="stop4362" style="stop-opacity:.58824" offset="0"/>
   <stop id="stop4364" style="stop-opacity:0" offset=".88"/>
   <stop id="stop4366" offset="1"/>
  </linearGradient>
  <filter id="filter4380" style="color-interpolation-filters:sRGB" height="1.0877" width="1.106" y="-.043863" x="-.052999">
   <feGaussianBlur id="feGaussianBlur4382" stdDeviation="8.4801079"/>
  </filter>
 </defs>
 <metadata id="metadata3341">
  <rdf:RDF>
   <cc:Work rdf:about="">
    <dc:format>image/svg+xml</dc:format>
    <dc:type rdf:resource="http://purl.org/dc/dcmitype/StillImage"/>
    <dc:title/>
   </cc:Work>
  </rdf:RDF>
 </metadata>
 <g id="layer2" transform="translate(-32,-32)">
  <path id="rect4158-9" style="opacity:.1;color:#000000;filter:url(#filter4346);enable-background:accumulate" d="m173.84 58c-70.59 0-78.186 7.251-77.84 77.99v154.01 154.01c-0.346 70.74 7.25 77.99 77.84 77.99h228.31c70.6 0 77.85-7.25 77.85-77.99v-154.01-154.01c0-70.74-7.25-77.99-77.84-77.99z"/>
  <path id="path4350" d="m173.84 58c-70.59 0-78.186 7.251-77.84 77.99v154.01 154.01c-0.346 70.74 7.25 77.99 77.84 77.99h228.31c70.6 0 77.85-7.25 77.85-77.99v-154.01-154.01c0-70.74-7.25-77.99-77.84-77.99z" style="opacity:.3;color:#000000;filter:url(#filter4380);enable-background:accumulate;fill:url(#linearGradient4358)"/>
 </g>
 <g id="layer3">
  <path id="rect4158" style="color:#000000;enable-background:accumulate;fill:url(#linearGradient4226)" d="m141.84 24c-70.59 0-78.186 7.251-77.84 77.99v154.01 154.01c-0.346 70.74 7.25 77.99 77.84 77.99h228.31c70.6 0 77.85-7.25 77.85-77.99v-154.01-154.01c0-70.737-7.2498-77.987-77.843-77.987z"/>
 </g>
 <g id="layer4">
  <path id="path4505-6" style="opacity:.05;fill-opacity:0;color:#000000;enable-background:accumulate" d="m221.81 124-35.188 71.656v59.25c-4.9399 5.788-10.339 11.62-15.969 17.25-18.503 18.503-39.248 34.687-53.125 39.312l-23.374-23.35-71.656 35.19v170.69h256v-317.56c-15.42-33.45-32.37-45.92-56.69-52.44zm-97.56 229c0.007-0.005 0.0239 0.005 0.0312 0-2.6107 1.6304-5.251 3.2267-7.9062 4.8125 2.6559-1.5856 5.2637-3.1824 7.875-4.8125zm-24.094 14.062c0.008-0.004 0.0234 0.004 0.0312 0-2.7418 1.4991-5.5286 2.9806-8.3125 4.4375 2.7843-1.4568 5.5391-2.9386 8.2813-4.4375z"/>
  <path id="path4233" style="color-rendering:auto;text-decoration-color:#000000;color:#000000;shape-rendering:auto;solid-color:#000000;text-decoration-line:none;fill:#888;mix-blend-mode:normal;block-progression:tb;shape-padding:0;text-indent:0;image-rendering:auto;white-space:normal;text-decoration-style:solid;isolation:auto;enable-background:accumulate;text-transform:none" d="m256 136c-27.62 0-52.64 3.83-71.26 10.29-9.32 3.23-17.06 7.09-22.84 11.84-5.79 4.74-9.9 10.84-9.9 17.87v160c0 7.03 4.11 13.13 9.9 17.87 5.78 4.75 13.52 8.61 22.84 11.84 18.62 6.46 43.64 10.29 71.26 10.29s52.64-3.83 71.26-10.29c9.32-3.23 17.06-7.09 22.84-11.84 5.79-4.74 9.9-10.84 9.9-17.87v-160c0-7.03-4.11-13.13-9.9-17.87-5.78-4.75-13.52-8.61-22.84-11.84-18.62-6.46-43.64-10.29-71.26-10.29zm0 12c26.5 0 50.49 3.78 67.33 9.63 8.42 2.92 15.03 6.39 19.16 9.77 4.13 3.39 5.51 6.24 5.51 8.6s-1.38 5.21-5.51 8.6c-4.13 3.38-10.74 6.85-19.16 9.77-16.84 5.85-40.83 9.63-67.33 9.63s-50.49-3.78-67.33-9.63c-8.42-2.92-15.03-6.39-19.16-9.77-4.13-3.39-5.51-6.24-5.51-8.6s1.38-5.21 5.51-8.6c4.13-3.38 10.74-6.85 19.16-9.77 16.84-5.85 40.83-9.63 67.33-9.63zm-92 47.49c5.51 4.02 12.51 7.37 20.74 10.22 18.62 6.46 43.64 10.29 71.26 10.29s52.64-3.83 71.26-10.29c8.23-2.85 15.23-6.2 20.74-10.22v32.51c0 2.36-1.38 5.21-5.51 8.6-4.13 3.38-10.74 6.85-19.16 9.77-16.84 5.85-40.83 9.63-67.33 9.63s-50.49-3.78-67.33-9.63c-8.42-2.92-15.03-6.39-19.16-9.77-4.13-3.39-5.51-6.24-5.51-8.6v-32.51zm0 52c5.51 4.02 12.51 7.37 20.74 10.22 18.62 6.46 43.64 10.29 71.26 10.29s52.64-3.83 71.26-10.29c8.23-2.85 15.23-6.2 20.74-10.22v36.51c0 2.36-1.38 5.21-5.51 8.6-4.13 3.38-10.74 6.85-19.16 9.77-16.84 5.85-40.83 9.63-67.33 9.63s-50.49-3.78-67.33-9.63c-8.42-2.92-15.03-6.39-19.16-9.77-4.13-3.39-5.51-6.24-5.51-8.6v-36.51zm0 56c5.51 4.02 12.51 7.37 20.74 10.22 18.62 6.46 43.64 10.29 71.26 10.29s52.64-3.83 71.26-10.29c8.23-2.85 15.23-6.2 20.74-10.22v32.51c0 2.36-1.38 5.21-5.51 8.6-4.13 3.38-10.74 6.85-19.16 9.77-16.84 5.85-40.83 9.63-67.33 9.63s-50.49-3.78-67.33-9.63c-8.42-2.92-15.03-6.39-19.16-9.77-4.13-3.39-5.51-6.24-5.51-8.6v-32.51z"/>
 </g>
 <g id="layer5" transform="translate(-32,-32)">
  <path id="path4231" style="opacity:.12;color:#000000;enable-background:accumulate;fill:#fff" d="m288 56v464h114.16c70.59 0 77.84-7.25 77.84-77.99v-308.02c0-70.741-7.25-77.99-77.84-77.99z"/>
  <path id="path4255" style="opacity:.12;color:#000000;enable-background:accumulate;fill:#fff" d="m96 288v154.01c-0.346 70.74 7.25 77.99 77.84 77.99h228.31c70.6 0 77.85-7.25 77.85-77.99v-154.01z"/>
 </g>
 <g id="layer1" transform="translate(-32,-32)">
  <path id="path4254" style="opacity:.5;color:#000000;enable-background:accumulate;fill:#fff" d="m360 520 120-120v44.968c-0.1 67.99-7.61 75.03-76.35 75.03z"/>
  <path id="path4286" style="opacity:.6;color:#000000;enable-background:accumulate;fill:#fff" d="m173.84 56c-68.98 0-77.802 6.959-77.846 73.28 0.223-64.487 9.556-71.28 77.846-71.28h228.31c70.6 0 77.85 7.249 77.85 77.99v-2c0-70.741-7.25-77.99-77.84-77.99z"/>
  <path id="path4295" style="opacity:.1;color:#000000;enable-background:accumulate" d="m480 440.01c0 70.74-7.25 77.99-77.84 77.99h-228.32c-68.29 0-77.623-6.79-77.846-71.28 0.044 66.32 8.866 73.28 77.846 73.28h228.31c70.6 0 77.85-7.25 77.85-77.99z"/>
 </g>
</svg>
