<?xml version="1.0" encoding="UTF-8" standalone="no"?>
<!-- Created with Inkscape (http://www.inkscape.org/) -->
<svg id="svg4874" xmlns:rdf="http://www.w3.org/1999/02/22-rdf-syntax-ns#" xmlns="http://www.w3.org/2000/svg" height="96" viewBox="0 0 96 96.000001" width="96" version="1.1" xmlns:cc="http://creativecommons.org/ns#" xmlns:dc="http://purl.org/dc/elements/1.1/">
 <metadata id="metadata4879">
  <rdf:RDF>
   <cc:Work rdf:about="">
    <dc:format>image/svg+xml</dc:format>
    <dc:type rdf:resource="http://purl.org/dc/dcmitype/StillImage"/>
    <dc:title/>
   </cc:Work>
  </rdf:RDF>
 </metadata>
 <g id="layer1" transform="translate(67.857 -78.505)">
  <rect id="rect4782" style="color:#000000;fill:none" transform="rotate(90)" height="96" width="96" y="-28.143" x="78.505"/>
  <path id="path4180" style="color-rendering:auto;text-decoration-color:#000000;color:#000000;shape-rendering:auto;solid-color:#000000;text-decoration-line:none;fill:#808080;mix-blend-mode:normal;block-progression:tb;text-indent:0;image-rendering:auto;white-space:normal;text-decoration-style:solid;isolation:auto;text-transform:none" d="m64 16.004l-2.766 1.148-36.027 14.946-22.01-0.104-0.5505 1.129s-2.6465 5.531-2.6465 14.885 2.6484 14.869 2.6484 14.869l0.545 1.117 5.541 0.026c5.2536 11.326 6.2696 26.103 6.2696 26.103l0.117 1.877h10.879v-27.576l38 15.555v-63.975zm18.99 0.642l-3.535 3.536c7.379 7.378 11.522 17.383 11.522 27.818s-4.143 20.438-11.522 27.816l3.535 3.538c8.315-8.315 12.987-19.595 12.987-31.354s-4.672-23.039-12.987-31.354zm-22.99 5.348v52.026l-34-13.918v-24.002l34-14.106zm13.107 4.535l-3.535 3.535c4.758 4.758 7.428 11.208 7.428 17.936s-2.67 13.176-7.428 17.934l3.535 3.535c5.694-5.694 8.893-13.417 8.893-21.469s-3.199-15.777-8.893-21.471zm-67.246 9.477l16.139 0.076v24l-16.135-0.076c-0.521-1.245-1.865-4.818-1.865-11.998 0-7.164 1.3365-10.742 1.8613-12.002zm7.2717 28.035l8.867 0.041v23.918h-3.246c-0.183-2.441-1.126-13.425-5.621-23.959z" transform="translate(-67.857 78.505)"/>
  <rect id="rect4165" style="color:#000000;fill:none" height="96" width="96" y="78.505" x="-67.857"/>
 </g>
</svg>
