<?xml version="1.0" encoding="UTF-8" standalone="no"?>
<svg style="enable-background:new" xmlns="http://www.w3.org/2000/svg" height="1024" width="1024" version="1.1" xmlns:xlink="http://www.w3.org/1999/xlink" viewBox="0 0 1024 1024">
 <defs>
  <linearGradient id="a" y2="494" gradientUnits="userSpaceOnUse" x2="512" y1="18">
   <stop style="stop-color:#ffea73" offset="0"/>
   <stop style="stop-color:#fef4bd" offset="1"/>
  </linearGradient>
 </defs>
 <g style="enable-background:new" transform="matrix(.7175 0 0 .7175 328.1 328.3)">
  <path d="m166.1 16c-145.3 0-166.1 20.71-166.1 165.9v148.2c0 145.2 20.77 165.9 166.1 165.9h179.9c145.2 0 166-20.7 166-165.9v-148.2c0-145.2-20.8-165.9-166.1-165.9z" style="color:#000000;enable-background:accumulate;fill:url(#a)"/>
  <rect style="opacity:.3;color:#000000;fill-opacity:.9961;enable-background:accumulate;fill:#ef5145" height="473.9" width="2" y="18" x="86.75"/>
  <path d="m8 126c-2.209 0-4 1.791-4 4s1.791 4 4 4 4-1.791 4-4-1.791-4-4-4zm16 0c-2.209 0-4 1.791-4 4s1.791 4 4 4 4-1.791 4-4-1.791-4-4-4zm16 0c-2.209 0-4 1.791-4 4s1.791 4 4 4 4-1.791 4-4-1.791-4-4-4zm16 0c-2.209 0-4 1.791-4 4s1.791 4 4 4 4-1.791 4-4-1.791-4-4-4zm16 0c-2.209 0-4 1.791-4 4s1.791 4 4 4 4-1.791 4-4-1.791-4-4-4zm16 0c-2.209 0-4 1.791-4 4s1.791 4 4 4 4-1.791 4-4-1.791-4-4-4zm16 0c-2.209 0-4 1.791-4 4s1.791 4 4 4 4-1.791 4-4-1.791-4-4-4zm16 0c-2.209 0-4 1.791-4 4s1.791 4 4 4 4-1.791 4-4-1.791-4-4-4zm16 0c-2.209 0-4 1.791-4 4s1.791 4 4 4 4-1.791 4-4-1.791-4-4-4zm16 0c-2.209 0-4 1.791-4 4s1.791 4 4 4 4-1.791 4-4-1.791-4-4-4zm16 0c-2.209 0-4 1.791-4 4s1.791 4 4 4 4-1.791 4-4-1.791-4-4-4zm16 0c-2.209 0-4 1.791-4 4s1.791 4 4 4 4-1.791 4-4-1.791-4-4-4zm16 0c-2.209 0-4 1.791-4 4s1.791 4 4 4 4-1.791 4-4-1.791-4-4-4zm16 0c-2.209 0-4 1.791-4 4s1.791 4 4 4 4-1.791 4-4-1.791-4-4-4zm16 0c-2.209 0-4 1.791-4 4s1.791 4 4 4 4-1.791 4-4-1.791-4-4-4zm16 0c-2.209 0-4 1.791-4 4s1.791 4 4 4 4-1.791 4-4-1.791-4-4-4zm16 0c-2.209 0-4 1.791-4 4s1.791 4 4 4 4-1.791 4-4-1.791-4-4-4zm16 0c-2.209 0-4 1.791-4 4s1.791 4 4 4 4-1.791 4-4-1.791-4-4-4zm16 0c-2.209 0-4 1.791-4 4s1.791 4 4 4 4-1.791 4-4-1.791-4-4-4zm16 0c-2.209 0-4 1.791-4 4s1.791 4 4 4 4-1.791 4-4-1.791-4-4-4zm16 0c-2.209 0-4 1.791-4 4s1.791 4 4 4 4-1.791 4-4-1.791-4-4-4zm16 0c-2.209 0-4 1.791-4 4s1.791 4 4 4 4-1.791 4-4-1.791-4-4-4zm16 0c-2.209 0-4 1.791-4 4s1.791 4 4 4 4-1.791 4-4-1.791-4-4-4zm16 0c-2.209 0-4 1.791-4 4s1.791 4 4 4 4-1.791 4-4-1.791-4-4-4zm16 0c-2.209 0-4 1.791-4 4s1.791 4 4 4 4-1.791 4-4-1.791-4-4-4zm16 0c-2.209 0-4 1.791-4 4s1.791 4 4 4 4-1.791 4-4-1.791-4-4-4zm16 0c-2.209 0-4 1.791-4 4s1.791 4 4 4 4-1.791 4-4-1.791-4-4-4zm16 0c-2.209 0-4 1.791-4 4s1.791 4 4 4 4-1.791 4-4-1.791-4-4-4zm16 0c-2.209 0-4 1.791-4 4s1.791 4 4 4 4-1.791 4-4-1.791-4-4-4zm16 0c-2.209 0-4 1.791-4 4s1.791 4 4 4 4-1.791 4-4-1.791-4-4-4zm16 0c-2.209 0-4 1.791-4 4s1.791 4 4 4 4-1.791 4-4-1.791-4-4-4zm16 0c-2.209 0-4 1.791-4 4s1.791 4 4 4 4-1.791 4-4-1.791-4-4-4z" style="opacity:.4;color:#000000;enable-background:accumulate;fill:#fac82e"/>
  <path style="opacity:.1;color:#000000;fill-opacity:.9961;enable-background:accumulate;fill:#5c81df" d="m0 231v2h512.4v-2z"/>
  <path d="m0 279v2h512.4v-2z" style="opacity:.1;color:#000000;fill-opacity:.9961;enable-background:accumulate;fill:#5c81df"/>
  <path d="m0 375v2h512.4v-2z" style="opacity:.1;color:#000000;fill-opacity:.9961;enable-background:accumulate;fill:#5c81df"/>
  <path d="m166.1 16c-121.5 0-155.9 14.49-164 104h507.8c-8.1-89.51-42.5-104-164-104z" style="color:#000000;enable-background:accumulate;fill:#fad81f"/>
  <path style="opacity:.1;color:#000000;fill-opacity:.9961;enable-background:accumulate;fill:#5c81df" d="m0 183v2h512.4v-2z"/>
  <path style="opacity:.1;color:#000000;fill-opacity:.9961;enable-background:accumulate;fill:#5c81df" d="m0 423v2h512.4v-2z"/>
  <path style="opacity:.1;color:#000000;fill-opacity:.9961;enable-background:accumulate;fill:#5c81df" d="m0 327v2h512.4v-2z"/>
  <path d="m120 176v16h272v-16zm0 48v16h272v-16zm0 48v16h272v-16zm0 48v16h136.2v-16z" style="color:#000000;enable-background:accumulate;fill:#4969ba"/>
  <path d="m512 315-183.6 181h17.53c145.3 0 166.1-20.7 166.1-165.9z" style="opacity:.3;color:#000000;enable-background:accumulate;fill:#fff"/>
 </g>
</svg>
