<?xml version="1.0" encoding="UTF-8" standalone="no"?>
<svg xmlns="http://www.w3.org/2000/svg" height="90" width="90" version="1.1" viewBox="0 0 90 90.000001">
 <rect style="fill:none" height="90" width="90" y="0" x="0"/>
 <path style="paint-order:normal;fill:#808080" d="m44.1 6.824c1.369-0.01328 2.177 0.1219 3.012 0.459 2.705 1.093 4.95 3.643 7.102 8.066 3.011 6.19 4.758 13.43 5.508 22.82 0.1944 2.44 0.1961 11.18 0.002 13.6-0.68 8.46-2.15 15.07-4.65 20.93-2.65 6.19-5.779 9.671-9.279 10.29l0.002-0.0039c-0.789 0.1396-3.64 0.04836-5.705-0.1816-7.64-0.851-14.38-3.89-20.42-9.209-6.338-5.58-10.64-12.78-12.19-20.38-1.939-9.52-0.4971-19.31 3.961-26.91 5.14-8.753 13.43-15.4 22.48-18.01 2.784-0.8038 5.278-1.213 8.602-1.41 0.6025-0.0358 1.122-0.05612 1.578-0.06055zm-1.641 4.252c-0.3873 0.0039-0.8265 0.02288-1.338 0.05469-2.821 0.1754-4.94 0.5398-7.303 1.254-7.682 2.321-14.72 8.224-19.08 16-3.784 6.748-5.009 15.45-3.363 23.91 1.315 6.755 4.968 13.15 10.35 18.11 5.123 4.725 10.85 7.428 17.33 8.184 1.753 0.2043 4.174 0.2842 4.844 0.1602l-0.002 0.0039c2.971-0.5508 5.628-3.643 7.877-9.143 2.122-5.206 3.37-11.08 3.947-18.59 0.1648-2.147 0.163-9.914-0.002-12.08-0.64-8.36-2.12-14.79-4.67-20.29-1.83-3.93-3.74-6.19-6.03-7.16-0.71-0.3-1.4-0.43-2.56-0.41z"/>
 <path style="opacity:.4;stroke-width:.9837;fill:#808080" d="m51.58 7.506c18.64 2.894 32.39 18.79 32.42 37.49-0.02 18.83-13.96 34.81-32.76 37.56 2.01-0.84 3.88-2.69 5.6-5.49 13.89-4.74 23.22-17.67 23.24-32.22-0.02-14.6-9.42-27.57-23.38-32.26-1.57-2.55-3.24-4.186-5.12-5.084z"/>
</svg>
