<?xml version="1.0" encoding="UTF-8" standalone="no"?>
<svg xmlns="http://www.w3.org/2000/svg" height="256" viewBox="0 0 256 256" width="256" version="1.1">
 <g transform="translate(147.9 1.495)">
  <g transform="matrix(0 -1 -1 0 373.5 516.5)">
   <g transform="matrix(-.9996 0 0 1 575.9 -611)">
    <g transform="matrix(-2.667 0 0 2.667 1226 -44.6)">
     <rect style="color:#000000;fill:none" transform="scale(-1,1)" height="96" width="96.04" y="345.4" x="-438"/>
     <path style="stroke-linejoin:round;stroke-width:1.5;color:#000000;stroke:#808080;stroke-linecap:round;fill:none" d="m426 409.9c0 0.001-0.00023 0.002-0.001 0.002-0.00026 0.002-0.001 0.002-0.002 0.002-0.00075 0.001-0.002 0.002-0.002 0.002-0.00076 0.001-0.00076 0.001-0.002 0.002-2.716 1.265-5.484 2.243-7.181 2.799-0.001 1.829-0.0709 4.84-0.4436 7.711-0.001 0.00024-0.001 0.0005-0.002-0.0005-0.001 0.00024-0.002-0.001-0.003-0.002-0.001-0.00025-0.002-0.001-0.002-0.002-0.002-0.00026-0.001-0.0005-0.002-0.001-2.043-2.191-3.829-4.521-4.882-5.962-1.74 0.5638-4.627 1.429-7.474 1.961-0.0005-0.00076-0.00075-0.001 0-0.002-0.00075-0.001 0.00025-0.002 0.0005-0.003-0.00025-0.002 0.00025-0.002 0.0005-0.003-0.00025-0.001-0.00025-0.002 0-0.002 1.454-2.62 3.118-5.037 4.163-6.484-1.074-1.48-2.789-3.958-4.175-6.499 0.0005-0.00075 0.001-0.00075 0.002-0.0005 0.001-0.001 0.002-0.0005 0.003-0.0005 0.001-0.00076 0.002-0.00051 0.003-0.00051 0.001-0.00075 0.001-0.00099 0.002-0.00099 2.942 0.5724 5.756 1.408 7.455 1.955 1.076-1.479 2.903-3.874 4.893-5.977 0.00074 0.00025 0.001 0.00075 0.001 0.002 0.001 0.00077 0.001 0.002 0.002 0.002 0.00099 0.00099 0.001 0.002 0.002 0.003s0.002 0.001 0.002 0.002c0.3644 2.973 0.4389 5.907 0.4436 7.691 1.74 0.5664 4.583 1.564 7.199 2.805z"/>
     <path d="m406 428.5c0 0.00075-0.00018 0.001-0.00079 0.001-0.00019 0.001-0.00078 0.001-0.001 0.001-0.00057 0.00079-0.001 0.001-0.001 0.001-0.00057 0.00079-0.00057 0.00079-0.001 0.001-2.037 0.949-4.114 1.682-5.386 2.099-0.00078 1.372-0.0531 3.631-0.3327 5.784-0.00076 0.00018-0.00079 0.00037-0.002-0.00037-0.00079 0.00017-0.001-0.00076-0.002-0.001-0.00078-0.00019-0.001-0.00075-0.001-0.001-0.002-0.0002-0.00079-0.00038-0.002-0.00075-1.532-1.644-2.872-3.391-3.662-4.472-1.305 0.4229-3.471 1.072-5.606 1.471-0.00038-0.00057-0.00057-0.00075 0-0.001-0.00057-0.00079 0.00019-0.001 0.00038-0.002-0.00019-0.002 0.00018-0.002 0.00036-0.002-0.00018-0.00078-0.00018-0.001 0-0.001 1.09-1.965 2.339-3.778 3.123-4.863-0.8057-1.11-2.092-2.969-3.132-4.875 0.00037-0.00056 0.00078-0.00056 0.002-0.00038 0.00075-0.00074 0.001-0.00037 0.002-0.00037 0.00078-0.00056 0.001-0.00037 0.002-0.00037 0.00079-0.00056 0.00079-0.00074 0.001-0.00074 2.206 0.4293 4.318 1.056 5.592 1.466 0.8073-1.109 2.178-2.906 3.67-4.483 0.00055 0.00019 0.00078 0.00056 0.00078 0.001 0.00078 0.00058 0.00078 0.002 0.001 0.002 0.00074 0.00074 0.00079 0.001 0.001 0.002 0.00074 0.00074 0.001 0.00074 0.001 0.001 0.2733 2.23 0.3292 4.431 0.3327 5.769 1.305 0.4248 3.438 1.173 5.399 2.104z" style="stroke-linejoin:round;stroke-width:1.5;color:#000000;font-variant-east_asian:normal;stroke:#808080;stroke-linecap:round;fill:none"/>
     <path style="stroke-width:1.5;color:#000000;stroke:#808080;fill:none" d="m422.2 378.4c-7.599-6.205-17.71-8.385-27.2-5.861-16.3 4.367-25.98 21.12-21.61 37.41 1.13 4.163 3.129 8.04 5.866 11.38-11.69-3.359-20.76-12.58-23.93-24.32-4.962-18.51 6.027-37.54 24.55-42.5 18.26-4.881 37.07 5.74 42.32 23.89z"/>
    </g>
   </g>
  </g>
 </g>
</svg>
