<?xml version="1.0" encoding="UTF-8" standalone="no"?>
<svg xmlns="http://www.w3.org/2000/svg" height="256" viewBox="0 0 256 256" width="256" version="1.1">
 <g transform="translate(147.9 1.495)">
  <g transform="matrix(0 -1 -1 0 373.5 516.5)">
   <g transform="matrix(-.9996 0 0 1 575.9 -611)">
    <rect style="color:#000000;fill:none" height="256" width="256.1" y="876.4" x="57.97"/>
    <path style="stroke-linejoin:round;stroke-width:2.835;color:#000000;stroke:#808080;fill:none" d="m292.1 1004c0 7.516-6.092 13.61-13.61 13.61-1.492 0-2.924-0.2516-4.268-0.6955-0.1366-0.045-0.2775-0.081-0.4121-0.1303-1.147-0.3465-17.82-5.427-32.76-12.8h0.004 0.008 0.008 0.004c16.33-7.874 33.15-12.88 33.15-12.88 1.343-0.4433 2.776-0.6866 4.268-0.6866 7.516 0 13.61 6.092 13.61 13.61z"/>
    <path style="stroke-linejoin:round;stroke-width:2.677;color:#000000;stroke:#808080;fill:none" d="m269.4 962.2c0 5.94-4.816 10.76-10.76 10.76-1.18 0-2.311-0.199-3.373-0.5498-0.108-0.0357-0.2193-0.0642-0.3258-0.1035-0.9066-0.2739-14.08-4.29-25.9-10.11h0.002 0.008 0.006 0.002c12.9-6.224 26.2-10.18 26.2-10.18 1.061-0.3503 2.194-0.5427 3.373-0.5427 5.94 0 10.76 4.816 10.76 10.76z"/>
    <path style="stroke-linejoin:round;stroke-width:2.678;color:#000000;stroke:#808080;fill:none" d="m271.6 1046c0 5.326-4.318 9.645-9.645 9.645-1.058 0-2.072-0.1785-3.025-0.4929-0.0967-0.032-0.1967-0.057-0.2921-0.093-0.8129-0.2456-12.63-3.846-23.22-9.069h0.002 0.006 0.006 0.002c11.57-5.581 23.5-9.128 23.5-9.128 0.9517-0.3143 1.968-0.4867 3.025-0.4867 5.327 0 9.645 4.318 9.645 9.645z"/>
    <path style="color-rendering:auto;color:#000000;shape-rendering:auto;stroke:#808080;text-decoration-line:none;stroke-width:4.001;fill:none;text-indent:0;image-rendering:auto;text-transform:none" d="m74.58 996.2c0 27.28 16.82 50.45 40.84 61.52l1.61 0.7396 0.1304 1.766c1.834 25.17 23.61 45.1 50.11 45.1 27.69 0 50.43-21.67 50.43-48.46v-117.2c0-20.09-17.06-36.32-37.75-36.32-15.69 0-28.84 9.413-34.52 22.77l-0.7399 1.74-1.886 0.0832c-37.82 1.713-68.23 31.43-68.23 68.28z"/>
   </g>
  </g>
 </g>
</svg>
