<?xml version="1.0" encoding="UTF-8" standalone="no"?>
<svg xmlns="http://www.w3.org/2000/svg" height="256" viewBox="0 0 256 256" width="256" version="1.1">
 <g transform="translate(147.9 1.495)">
  <g transform="matrix(0 -1 -1 0 373.5 516.5)">
   <g transform="matrix(-.9996 0 0 1 575.9 -611)">
    <g transform="matrix(-2.667 0 0 2.667 1226 -44.6)">
     <path style="color-rendering:auto;text-decoration-color:#000000;color:#000000;font-variant-numeric:normal;shape-rendering:auto;solid-color:#000000;stroke:#808080;text-decoration-line:none;stroke-width:1.637;fill:none;font-variant-position:normal;mix-blend-mode:normal;font-feature-settings:normal;shape-padding:0;font-variant-alternates:normal;text-indent:0;font-variant-caps:normal;image-rendering:auto;white-space:normal;text-decoration-style:solid;font-variant-ligatures:none;isolation:auto;text-transform:none" d="m416.2 393.4c0-14.49-11.7-26.18-26.19-26.18s-26.19 11.7-26.19 26.18c0 14.49 11.7 26.18 26.19 26.18s26.19-11.7 26.19-26.18z"/>
     <rect style="color:#000000;fill:none" transform="scale(-1,1)" height="96" width="96.04" y="345.4" x="-438"/>
     <path style="color:#000000;fill:#808080" d="m381.6 422a34.71 34.7 0 0 1 -2.398 -0.5682 34.71 34.7 0 0 0 2.398 0.5682z"/>
     <rect style="color:#000000;fill:#808080" transform="matrix(0,1,1,0,0,0)" height="10" width="1.5" y="348" x="392.6"/>
     <rect style="color:#000000;fill:#808080" transform="matrix(-.5001 .8659 .8661 .4999 0 0)" height="10" width="1.5" y="492.4" x="145"/>
     <rect style="color:#000000;fill:#808080" transform="matrix(-.8661 .4999 .5001 .8659 0 0)" height="10" width="1.5" y="493.6" x="-141.7"/>
     <rect style="color:#000000;fill:#808080" transform="scale(-1,1)" height="10" width="1.501" y="351.4" x="-390.7"/>
     <rect style="color:#000000;fill:#808080" transform="matrix(-.8661 -.4999 -.5001 .8659 0 0)" height="10" width="1.5" y="103.8" x="-535.2"/>
     <rect style="color:#000000;fill:#808080" transform="matrix(-.5001 -.8659 -.8661 .4999 0 0)" height="10" width="1.5" y="-183" x="-536.4"/>
     <rect style="color:#000000;fill:#808080" transform="matrix(.5001 -.8659 -.8661 -.4999 0 0)" height="10" width="1.5" y="-576.5" x="-146.5"/>
     <rect style="color:#000000;fill:#808080" transform="matrix(.8661 -.4999 -.5001 -.8659 0 0)" height="10" width="1.5" y="-577.6" x="140.2"/>
     <rect style="color:#000000;fill:#808080" transform="scale(1,-1)" height="10" width="1.501" y="-435.4" x="389.2"/>
     <rect style="color:#000000;fill:#808080" transform="matrix(.8661 .4999 .5001 -.8659 0 0)" height="10" width="1.5" y="-187.8" x="533.7"/>
     <rect style="color:#000000;fill:#808080" transform="matrix(.5001 .8659 .8661 -.4999 0 0)" height="10" width="1.5" y="98.95" x="534.9"/>
     <path style="color:#000000;fill:#808080" d="m-394.1-432.1 1.5-0.1996v10.34h-1.5z" transform="matrix(0,-1,-1,0,0,0)"/>
    </g>
   </g>
  </g>
 </g>
</svg>
